%TF.GenerationSoftware,KiCad,Pcbnew,8.0.2*%
%TF.CreationDate,2024-08-28T15:29:28+05:30*%
%TF.ProjectId,CTF LED matrix,43544620-4c45-4442-906d-61747269782e,rev?*%
%TF.SameCoordinates,Original*%
%TF.FileFunction,Glue,Bot*%
%TF.FilePolarity,Positive*%
%FSLAX46Y46*%
G04 Gerber Fmt 4.6, Leading zero omitted, Abs format (unit mm)*
G04 Created by KiCad (PCBNEW 8.0.2) date 2024-08-28 15:29:28*
%MOMM*%
%LPD*%
G01*
G04 APERTURE LIST*
%ADD10C,0.150000*%
G04 APERTURE END LIST*
D10*
X144263220Y-74269819D02*
X144263220Y-73269819D01*
X144263220Y-73269819D02*
X143691792Y-74269819D01*
X143691792Y-74269819D02*
X143691792Y-73269819D01*
X142882268Y-73746009D02*
X143215601Y-73746009D01*
X143215601Y-74269819D02*
X143215601Y-73269819D01*
X143215601Y-73269819D02*
X142739411Y-73269819D01*
X142215601Y-73698390D02*
X142310839Y-73650771D01*
X142310839Y-73650771D02*
X142358458Y-73603152D01*
X142358458Y-73603152D02*
X142406077Y-73507914D01*
X142406077Y-73507914D02*
X142406077Y-73460295D01*
X142406077Y-73460295D02*
X142358458Y-73365057D01*
X142358458Y-73365057D02*
X142310839Y-73317438D01*
X142310839Y-73317438D02*
X142215601Y-73269819D01*
X142215601Y-73269819D02*
X142025125Y-73269819D01*
X142025125Y-73269819D02*
X141929887Y-73317438D01*
X141929887Y-73317438D02*
X141882268Y-73365057D01*
X141882268Y-73365057D02*
X141834649Y-73460295D01*
X141834649Y-73460295D02*
X141834649Y-73507914D01*
X141834649Y-73507914D02*
X141882268Y-73603152D01*
X141882268Y-73603152D02*
X141929887Y-73650771D01*
X141929887Y-73650771D02*
X142025125Y-73698390D01*
X142025125Y-73698390D02*
X142215601Y-73698390D01*
X142215601Y-73698390D02*
X142310839Y-73746009D01*
X142310839Y-73746009D02*
X142358458Y-73793628D01*
X142358458Y-73793628D02*
X142406077Y-73888866D01*
X142406077Y-73888866D02*
X142406077Y-74079342D01*
X142406077Y-74079342D02*
X142358458Y-74174580D01*
X142358458Y-74174580D02*
X142310839Y-74222200D01*
X142310839Y-74222200D02*
X142215601Y-74269819D01*
X142215601Y-74269819D02*
X142025125Y-74269819D01*
X142025125Y-74269819D02*
X141929887Y-74222200D01*
X141929887Y-74222200D02*
X141882268Y-74174580D01*
X141882268Y-74174580D02*
X141834649Y-74079342D01*
X141834649Y-74079342D02*
X141834649Y-73888866D01*
X141834649Y-73888866D02*
X141882268Y-73793628D01*
X141882268Y-73793628D02*
X141929887Y-73746009D01*
X141929887Y-73746009D02*
X142025125Y-73698390D01*
X141406077Y-73746009D02*
X140644173Y-73746009D01*
X140644173Y-74031723D02*
X141406077Y-74031723D01*
M02*
