%TF.GenerationSoftware,KiCad,Pcbnew,8.0.2*%
%TF.CreationDate,2024-08-28T15:29:28+05:30*%
%TF.ProjectId,CTF LED matrix,43544620-4c45-4442-906d-61747269782e,rev?*%
%TF.SameCoordinates,Original*%
%TF.FileFunction,Paste,Bot*%
%TF.FilePolarity,Positive*%
%FSLAX46Y46*%
G04 Gerber Fmt 4.6, Leading zero omitted, Abs format (unit mm)*
G04 Created by KiCad (PCBNEW 8.0.2) date 2024-08-28 15:29:28*
%MOMM*%
%LPD*%
G01*
G04 APERTURE LIST*
%ADD10C,0.000000*%
G04 APERTURE END LIST*
D10*
G36*
X138833180Y-82160000D02*
G01*
X138843190Y-82160980D01*
X138853120Y-82162620D01*
X138862910Y-82164910D01*
X138872540Y-82167830D01*
X138881950Y-82171370D01*
X138891110Y-82175520D01*
X138899980Y-82180260D01*
X138908520Y-82185570D01*
X138916700Y-82191430D01*
X138924470Y-82197810D01*
X138931810Y-82204690D01*
X138938690Y-82212030D01*
X138945070Y-82219800D01*
X138950930Y-82227980D01*
X138956240Y-82236520D01*
X138960980Y-82245390D01*
X138965130Y-82254550D01*
X138968670Y-82263960D01*
X138971590Y-82273590D01*
X138973880Y-82283380D01*
X138975510Y-82293310D01*
X138976500Y-82303320D01*
X138976830Y-82313370D01*
X138976830Y-84055970D01*
X138976500Y-84066020D01*
X138975510Y-84076030D01*
X138973880Y-84085960D01*
X138971590Y-84095750D01*
X138968670Y-84105380D01*
X138965130Y-84114790D01*
X138960980Y-84123950D01*
X138956240Y-84132820D01*
X138950930Y-84141360D01*
X138945070Y-84149540D01*
X138938690Y-84157310D01*
X138931810Y-84164650D01*
X138924470Y-84171530D01*
X138916700Y-84177910D01*
X138908520Y-84183770D01*
X138899980Y-84189080D01*
X138891110Y-84193820D01*
X138881950Y-84197970D01*
X138872540Y-84201510D01*
X138862910Y-84204430D01*
X138853120Y-84206720D01*
X138843190Y-84208360D01*
X138833180Y-84209340D01*
X138823130Y-84209670D01*
X138540530Y-84209670D01*
X138530480Y-84209340D01*
X138520470Y-84208360D01*
X138510540Y-84206720D01*
X138500750Y-84204430D01*
X138491120Y-84201510D01*
X138481710Y-84197970D01*
X138472550Y-84193820D01*
X138463680Y-84189080D01*
X138455140Y-84183770D01*
X138446960Y-84177910D01*
X138439190Y-84171530D01*
X138431850Y-84164650D01*
X138424970Y-84157310D01*
X138418590Y-84149540D01*
X138412730Y-84141360D01*
X138407420Y-84132820D01*
X138402680Y-84123950D01*
X138398530Y-84114790D01*
X138394990Y-84105380D01*
X138392070Y-84095750D01*
X138389780Y-84085960D01*
X138388150Y-84076030D01*
X138387160Y-84066020D01*
X138386830Y-84055970D01*
X138386830Y-82313370D01*
X138387160Y-82303320D01*
X138388150Y-82293310D01*
X138389780Y-82283380D01*
X138392070Y-82273590D01*
X138394990Y-82263960D01*
X138398530Y-82254550D01*
X138402680Y-82245390D01*
X138407420Y-82236520D01*
X138412730Y-82227980D01*
X138418590Y-82219800D01*
X138424970Y-82212030D01*
X138431850Y-82204690D01*
X138439190Y-82197810D01*
X138446960Y-82191430D01*
X138455140Y-82185570D01*
X138463680Y-82180260D01*
X138472550Y-82175520D01*
X138481710Y-82171370D01*
X138491120Y-82167830D01*
X138500750Y-82164910D01*
X138510540Y-82162620D01*
X138520470Y-82160980D01*
X138530480Y-82160000D01*
X138540530Y-82159670D01*
X138823130Y-82159670D01*
X138833180Y-82160000D01*
G37*
G36*
X143913180Y-82160010D02*
G01*
X143923190Y-82160990D01*
X143933120Y-82162630D01*
X143942910Y-82164920D01*
X143952540Y-82167840D01*
X143961950Y-82171380D01*
X143971110Y-82175530D01*
X143979980Y-82180270D01*
X143988520Y-82185580D01*
X143996700Y-82191440D01*
X144004470Y-82197820D01*
X144011810Y-82204700D01*
X144018690Y-82212040D01*
X144025070Y-82219810D01*
X144030930Y-82227990D01*
X144036240Y-82236530D01*
X144040980Y-82245400D01*
X144045130Y-82254560D01*
X144048670Y-82263970D01*
X144051590Y-82273600D01*
X144053880Y-82283390D01*
X144055510Y-82293320D01*
X144056500Y-82303330D01*
X144056830Y-82313380D01*
X144056830Y-84055980D01*
X144056500Y-84066030D01*
X144055510Y-84076040D01*
X144053880Y-84085970D01*
X144051590Y-84095760D01*
X144048670Y-84105390D01*
X144045130Y-84114800D01*
X144040980Y-84123960D01*
X144036240Y-84132830D01*
X144030930Y-84141370D01*
X144025070Y-84149550D01*
X144018690Y-84157320D01*
X144011810Y-84164660D01*
X144004470Y-84171540D01*
X143996700Y-84177920D01*
X143988520Y-84183780D01*
X143979980Y-84189090D01*
X143971110Y-84193830D01*
X143961950Y-84197980D01*
X143952540Y-84201520D01*
X143942910Y-84204440D01*
X143933120Y-84206730D01*
X143923190Y-84208370D01*
X143913180Y-84209350D01*
X143903130Y-84209680D01*
X143620530Y-84209680D01*
X143610480Y-84209350D01*
X143600470Y-84208370D01*
X143590540Y-84206730D01*
X143580750Y-84204440D01*
X143571120Y-84201520D01*
X143561710Y-84197980D01*
X143552550Y-84193830D01*
X143543680Y-84189090D01*
X143535140Y-84183780D01*
X143526960Y-84177920D01*
X143519190Y-84171540D01*
X143511850Y-84164660D01*
X143504970Y-84157320D01*
X143498590Y-84149550D01*
X143492730Y-84141370D01*
X143487420Y-84132830D01*
X143482680Y-84123960D01*
X143478530Y-84114800D01*
X143474990Y-84105390D01*
X143472070Y-84095760D01*
X143469780Y-84085970D01*
X143468150Y-84076040D01*
X143467160Y-84066030D01*
X143466830Y-84055980D01*
X143466830Y-82313380D01*
X143467160Y-82303330D01*
X143468150Y-82293320D01*
X143469780Y-82283390D01*
X143472070Y-82273600D01*
X143474990Y-82263970D01*
X143478530Y-82254560D01*
X143482680Y-82245400D01*
X143487420Y-82236530D01*
X143492730Y-82227990D01*
X143498590Y-82219810D01*
X143504970Y-82212040D01*
X143511850Y-82204700D01*
X143519190Y-82197820D01*
X143526960Y-82191440D01*
X143535140Y-82185580D01*
X143543680Y-82180270D01*
X143552550Y-82175530D01*
X143561710Y-82171380D01*
X143571120Y-82167840D01*
X143580750Y-82164920D01*
X143590540Y-82162630D01*
X143600470Y-82160990D01*
X143610480Y-82160010D01*
X143620530Y-82159680D01*
X143903130Y-82159680D01*
X143913180Y-82160010D01*
G37*
G36*
X155228090Y-90284330D02*
G01*
X155232720Y-90284790D01*
X155237320Y-90285550D01*
X155241860Y-90286610D01*
X155246320Y-90287960D01*
X155250680Y-90289600D01*
X155254920Y-90291520D01*
X155259030Y-90293720D01*
X155262990Y-90296180D01*
X155266770Y-90298890D01*
X155270380Y-90301850D01*
X155273780Y-90305030D01*
X155276960Y-90308430D01*
X155279920Y-90312040D01*
X155282630Y-90315820D01*
X155285090Y-90319780D01*
X155287290Y-90323890D01*
X155289210Y-90328130D01*
X155290850Y-90332490D01*
X155292200Y-90336950D01*
X155293260Y-90341490D01*
X155294020Y-90346090D01*
X155294480Y-90350720D01*
X155294630Y-90355380D01*
X155294630Y-91012980D01*
X155294480Y-91017640D01*
X155294020Y-91022270D01*
X155293260Y-91026870D01*
X155292200Y-91031410D01*
X155290850Y-91035870D01*
X155289210Y-91040230D01*
X155287290Y-91044470D01*
X155285090Y-91048580D01*
X155282630Y-91052540D01*
X155279920Y-91056320D01*
X155276960Y-91059930D01*
X155273780Y-91063330D01*
X155270380Y-91066510D01*
X155266770Y-91069470D01*
X155262990Y-91072180D01*
X155259030Y-91074640D01*
X155254920Y-91076840D01*
X155250680Y-91078760D01*
X155246320Y-91080400D01*
X155241860Y-91081750D01*
X155237320Y-91082810D01*
X155232720Y-91083570D01*
X155228090Y-91084030D01*
X155223430Y-91084180D01*
X154415830Y-91084180D01*
X154411170Y-91084030D01*
X154406540Y-91083570D01*
X154401940Y-91082810D01*
X154397400Y-91081750D01*
X154392940Y-91080400D01*
X154388580Y-91078760D01*
X154384340Y-91076840D01*
X154380230Y-91074640D01*
X154376270Y-91072180D01*
X154372490Y-91069470D01*
X154368880Y-91066510D01*
X154365480Y-91063330D01*
X154362300Y-91059930D01*
X154359340Y-91056320D01*
X154356630Y-91052540D01*
X154354170Y-91048580D01*
X154351970Y-91044470D01*
X154350050Y-91040230D01*
X154348410Y-91035870D01*
X154347060Y-91031410D01*
X154346000Y-91026870D01*
X154345240Y-91022270D01*
X154344780Y-91017640D01*
X154344630Y-91012980D01*
X154344630Y-90355380D01*
X154344780Y-90350720D01*
X154345240Y-90346090D01*
X154346000Y-90341490D01*
X154347060Y-90336950D01*
X154348410Y-90332490D01*
X154350050Y-90328130D01*
X154351970Y-90323890D01*
X154354170Y-90319780D01*
X154356630Y-90315820D01*
X154359340Y-90312040D01*
X154362300Y-90308430D01*
X154365480Y-90305030D01*
X154368880Y-90301850D01*
X154372490Y-90298890D01*
X154376270Y-90296180D01*
X154380230Y-90293720D01*
X154384340Y-90291520D01*
X154388580Y-90289600D01*
X154392940Y-90287960D01*
X154397400Y-90286610D01*
X154401940Y-90285550D01*
X154406540Y-90284790D01*
X154411170Y-90284330D01*
X154415830Y-90284180D01*
X155223430Y-90284180D01*
X155228090Y-90284330D01*
G37*
G36*
X148993190Y-82160010D02*
G01*
X149003200Y-82160990D01*
X149013130Y-82162630D01*
X149022920Y-82164920D01*
X149032550Y-82167840D01*
X149041960Y-82171380D01*
X149051120Y-82175530D01*
X149059990Y-82180270D01*
X149068530Y-82185580D01*
X149076710Y-82191440D01*
X149084480Y-82197820D01*
X149091820Y-82204700D01*
X149098700Y-82212040D01*
X149105080Y-82219810D01*
X149110940Y-82227990D01*
X149116250Y-82236530D01*
X149120990Y-82245400D01*
X149125140Y-82254560D01*
X149128680Y-82263970D01*
X149131600Y-82273600D01*
X149133890Y-82283390D01*
X149135520Y-82293320D01*
X149136510Y-82303330D01*
X149136840Y-82313380D01*
X149136840Y-84055980D01*
X149136510Y-84066030D01*
X149135520Y-84076040D01*
X149133890Y-84085970D01*
X149131600Y-84095760D01*
X149128680Y-84105390D01*
X149125140Y-84114800D01*
X149120990Y-84123960D01*
X149116250Y-84132830D01*
X149110940Y-84141370D01*
X149105080Y-84149550D01*
X149098700Y-84157320D01*
X149091820Y-84164660D01*
X149084480Y-84171540D01*
X149076710Y-84177920D01*
X149068530Y-84183780D01*
X149059990Y-84189090D01*
X149051120Y-84193830D01*
X149041960Y-84197980D01*
X149032550Y-84201520D01*
X149022920Y-84204440D01*
X149013130Y-84206730D01*
X149003200Y-84208370D01*
X148993190Y-84209350D01*
X148983140Y-84209680D01*
X148700540Y-84209680D01*
X148690490Y-84209350D01*
X148680480Y-84208370D01*
X148670550Y-84206730D01*
X148660760Y-84204440D01*
X148651130Y-84201520D01*
X148641720Y-84197980D01*
X148632560Y-84193830D01*
X148623690Y-84189090D01*
X148615150Y-84183780D01*
X148606970Y-84177920D01*
X148599200Y-84171540D01*
X148591860Y-84164660D01*
X148584980Y-84157320D01*
X148578600Y-84149550D01*
X148572740Y-84141370D01*
X148567430Y-84132830D01*
X148562690Y-84123960D01*
X148558540Y-84114800D01*
X148555000Y-84105390D01*
X148552080Y-84095760D01*
X148549790Y-84085970D01*
X148548160Y-84076040D01*
X148547170Y-84066030D01*
X148546840Y-84055980D01*
X148546840Y-82313380D01*
X148547170Y-82303330D01*
X148548160Y-82293320D01*
X148549790Y-82283390D01*
X148552080Y-82273600D01*
X148555000Y-82263970D01*
X148558540Y-82254560D01*
X148562690Y-82245400D01*
X148567430Y-82236530D01*
X148572740Y-82227990D01*
X148578600Y-82219810D01*
X148584980Y-82212040D01*
X148591860Y-82204700D01*
X148599200Y-82197820D01*
X148606970Y-82191440D01*
X148615150Y-82185580D01*
X148623690Y-82180270D01*
X148632560Y-82175530D01*
X148641720Y-82171380D01*
X148651130Y-82167840D01*
X148660760Y-82164920D01*
X148670550Y-82162630D01*
X148680480Y-82160990D01*
X148690490Y-82160010D01*
X148700540Y-82159680D01*
X148983140Y-82159680D01*
X148993190Y-82160010D01*
G37*
G36*
X145183180Y-82160010D02*
G01*
X145193190Y-82160990D01*
X145203120Y-82162630D01*
X145212910Y-82164920D01*
X145222540Y-82167840D01*
X145231950Y-82171380D01*
X145241110Y-82175530D01*
X145249980Y-82180270D01*
X145258520Y-82185580D01*
X145266700Y-82191440D01*
X145274470Y-82197820D01*
X145281810Y-82204700D01*
X145288690Y-82212040D01*
X145295070Y-82219810D01*
X145300930Y-82227990D01*
X145306240Y-82236530D01*
X145310980Y-82245400D01*
X145315130Y-82254560D01*
X145318670Y-82263970D01*
X145321590Y-82273600D01*
X145323880Y-82283390D01*
X145325510Y-82293320D01*
X145326500Y-82303330D01*
X145326830Y-82313380D01*
X145326830Y-84055980D01*
X145326500Y-84066030D01*
X145325510Y-84076040D01*
X145323880Y-84085970D01*
X145321590Y-84095760D01*
X145318670Y-84105390D01*
X145315130Y-84114800D01*
X145310980Y-84123960D01*
X145306240Y-84132830D01*
X145300930Y-84141370D01*
X145295070Y-84149550D01*
X145288690Y-84157320D01*
X145281810Y-84164660D01*
X145274470Y-84171540D01*
X145266700Y-84177920D01*
X145258520Y-84183780D01*
X145249980Y-84189090D01*
X145241110Y-84193830D01*
X145231950Y-84197980D01*
X145222540Y-84201520D01*
X145212910Y-84204440D01*
X145203120Y-84206730D01*
X145193190Y-84208370D01*
X145183180Y-84209350D01*
X145173130Y-84209680D01*
X144890530Y-84209680D01*
X144880480Y-84209350D01*
X144870470Y-84208370D01*
X144860540Y-84206730D01*
X144850750Y-84204440D01*
X144841120Y-84201520D01*
X144831710Y-84197980D01*
X144822550Y-84193830D01*
X144813680Y-84189090D01*
X144805140Y-84183780D01*
X144796960Y-84177920D01*
X144789190Y-84171540D01*
X144781850Y-84164660D01*
X144774970Y-84157320D01*
X144768590Y-84149550D01*
X144762730Y-84141370D01*
X144757420Y-84132830D01*
X144752680Y-84123960D01*
X144748530Y-84114800D01*
X144744990Y-84105390D01*
X144742070Y-84095760D01*
X144739780Y-84085970D01*
X144738150Y-84076040D01*
X144737160Y-84066030D01*
X144736830Y-84055980D01*
X144736830Y-82313380D01*
X144737160Y-82303330D01*
X144738150Y-82293320D01*
X144739780Y-82283390D01*
X144742070Y-82273600D01*
X144744990Y-82263970D01*
X144748530Y-82254560D01*
X144752680Y-82245400D01*
X144757420Y-82236530D01*
X144762730Y-82227990D01*
X144768590Y-82219810D01*
X144774970Y-82212040D01*
X144781850Y-82204700D01*
X144789190Y-82197820D01*
X144796960Y-82191440D01*
X144805140Y-82185580D01*
X144813680Y-82180270D01*
X144822550Y-82175530D01*
X144831710Y-82171380D01*
X144841120Y-82167840D01*
X144850750Y-82164920D01*
X144860540Y-82162630D01*
X144870470Y-82160990D01*
X144880480Y-82160010D01*
X144890530Y-82159680D01*
X145173130Y-82159680D01*
X145183180Y-82160010D01*
G37*
G36*
X142643170Y-91470010D02*
G01*
X142653180Y-91470990D01*
X142663110Y-91472630D01*
X142672900Y-91474920D01*
X142682530Y-91477840D01*
X142691940Y-91481380D01*
X142701100Y-91485530D01*
X142709970Y-91490270D01*
X142718510Y-91495580D01*
X142726690Y-91501440D01*
X142734460Y-91507820D01*
X142741800Y-91514700D01*
X142748680Y-91522040D01*
X142755060Y-91529810D01*
X142760920Y-91537990D01*
X142766230Y-91546530D01*
X142770970Y-91555400D01*
X142775120Y-91564560D01*
X142778660Y-91573970D01*
X142781580Y-91583600D01*
X142783870Y-91593390D01*
X142785500Y-91603320D01*
X142786490Y-91613330D01*
X142786820Y-91623380D01*
X142786820Y-93365980D01*
X142786490Y-93376030D01*
X142785500Y-93386040D01*
X142783870Y-93395970D01*
X142781580Y-93405760D01*
X142778660Y-93415390D01*
X142775120Y-93424800D01*
X142770970Y-93433960D01*
X142766230Y-93442830D01*
X142760920Y-93451370D01*
X142755060Y-93459550D01*
X142748680Y-93467320D01*
X142741800Y-93474660D01*
X142734460Y-93481540D01*
X142726690Y-93487920D01*
X142718510Y-93493780D01*
X142709970Y-93499090D01*
X142701100Y-93503830D01*
X142691940Y-93507980D01*
X142682530Y-93511520D01*
X142672900Y-93514440D01*
X142663110Y-93516730D01*
X142653180Y-93518370D01*
X142643170Y-93519350D01*
X142633120Y-93519680D01*
X142350520Y-93519680D01*
X142340470Y-93519350D01*
X142330460Y-93518370D01*
X142320530Y-93516730D01*
X142310740Y-93514440D01*
X142301110Y-93511520D01*
X142291700Y-93507980D01*
X142282540Y-93503830D01*
X142273670Y-93499090D01*
X142265130Y-93493780D01*
X142256950Y-93487920D01*
X142249180Y-93481540D01*
X142241840Y-93474660D01*
X142234960Y-93467320D01*
X142228580Y-93459550D01*
X142222720Y-93451370D01*
X142217410Y-93442830D01*
X142212670Y-93433960D01*
X142208520Y-93424800D01*
X142204980Y-93415390D01*
X142202060Y-93405760D01*
X142199770Y-93395970D01*
X142198140Y-93386040D01*
X142197150Y-93376030D01*
X142196820Y-93365980D01*
X142196820Y-91623380D01*
X142197150Y-91613330D01*
X142198140Y-91603320D01*
X142199770Y-91593390D01*
X142202060Y-91583600D01*
X142204980Y-91573970D01*
X142208520Y-91564560D01*
X142212670Y-91555400D01*
X142217410Y-91546530D01*
X142222720Y-91537990D01*
X142228580Y-91529810D01*
X142234960Y-91522040D01*
X142241840Y-91514700D01*
X142249180Y-91507820D01*
X142256950Y-91501440D01*
X142265130Y-91495580D01*
X142273670Y-91490270D01*
X142282540Y-91485530D01*
X142291700Y-91481380D01*
X142301110Y-91477840D01*
X142310740Y-91474920D01*
X142320530Y-91472630D01*
X142330460Y-91470990D01*
X142340470Y-91470010D01*
X142350520Y-91469680D01*
X142633120Y-91469680D01*
X142643170Y-91470010D01*
G37*
G36*
X155228090Y-88634330D02*
G01*
X155232720Y-88634790D01*
X155237320Y-88635550D01*
X155241860Y-88636610D01*
X155246320Y-88637960D01*
X155250680Y-88639600D01*
X155254920Y-88641520D01*
X155259030Y-88643720D01*
X155262990Y-88646180D01*
X155266770Y-88648890D01*
X155270380Y-88651850D01*
X155273780Y-88655030D01*
X155276960Y-88658430D01*
X155279920Y-88662040D01*
X155282630Y-88665820D01*
X155285090Y-88669780D01*
X155287290Y-88673890D01*
X155289210Y-88678130D01*
X155290850Y-88682490D01*
X155292200Y-88686950D01*
X155293260Y-88691490D01*
X155294020Y-88696090D01*
X155294480Y-88700720D01*
X155294630Y-88705380D01*
X155294630Y-89362980D01*
X155294480Y-89367640D01*
X155294020Y-89372270D01*
X155293260Y-89376870D01*
X155292200Y-89381410D01*
X155290850Y-89385870D01*
X155289210Y-89390230D01*
X155287290Y-89394470D01*
X155285090Y-89398580D01*
X155282630Y-89402540D01*
X155279920Y-89406320D01*
X155276960Y-89409930D01*
X155273780Y-89413330D01*
X155270380Y-89416510D01*
X155266770Y-89419470D01*
X155262990Y-89422180D01*
X155259030Y-89424640D01*
X155254920Y-89426840D01*
X155250680Y-89428760D01*
X155246320Y-89430400D01*
X155241860Y-89431750D01*
X155237320Y-89432810D01*
X155232720Y-89433570D01*
X155228090Y-89434030D01*
X155223430Y-89434180D01*
X154415830Y-89434180D01*
X154411170Y-89434030D01*
X154406540Y-89433570D01*
X154401940Y-89432810D01*
X154397400Y-89431750D01*
X154392940Y-89430400D01*
X154388580Y-89428760D01*
X154384340Y-89426840D01*
X154380230Y-89424640D01*
X154376270Y-89422180D01*
X154372490Y-89419470D01*
X154368880Y-89416510D01*
X154365480Y-89413330D01*
X154362300Y-89409930D01*
X154359340Y-89406320D01*
X154356630Y-89402540D01*
X154354170Y-89398580D01*
X154351970Y-89394470D01*
X154350050Y-89390230D01*
X154348410Y-89385870D01*
X154347060Y-89381410D01*
X154346000Y-89376870D01*
X154345240Y-89372270D01*
X154344780Y-89367640D01*
X154344630Y-89362980D01*
X154344630Y-88705380D01*
X154344780Y-88700720D01*
X154345240Y-88696090D01*
X154346000Y-88691490D01*
X154347060Y-88686950D01*
X154348410Y-88682490D01*
X154350050Y-88678130D01*
X154351970Y-88673890D01*
X154354170Y-88669780D01*
X154356630Y-88665820D01*
X154359340Y-88662040D01*
X154362300Y-88658430D01*
X154365480Y-88655030D01*
X154368880Y-88651850D01*
X154372490Y-88648890D01*
X154376270Y-88646180D01*
X154380230Y-88643720D01*
X154384340Y-88641520D01*
X154388580Y-88639600D01*
X154392940Y-88637960D01*
X154397400Y-88636610D01*
X154401940Y-88635550D01*
X154406540Y-88634790D01*
X154411170Y-88634330D01*
X154415830Y-88634180D01*
X155223430Y-88634180D01*
X155228090Y-88634330D01*
G37*
G36*
X155889090Y-87502730D02*
G01*
X155893720Y-87503190D01*
X155898320Y-87503950D01*
X155902860Y-87505010D01*
X155907320Y-87506360D01*
X155911680Y-87508000D01*
X155915920Y-87509920D01*
X155920030Y-87512120D01*
X155923990Y-87514580D01*
X155927770Y-87517290D01*
X155931380Y-87520250D01*
X155934780Y-87523430D01*
X155937960Y-87526830D01*
X155940920Y-87530440D01*
X155943630Y-87534220D01*
X155946090Y-87538180D01*
X155948290Y-87542290D01*
X155950210Y-87546530D01*
X155951850Y-87550890D01*
X155953200Y-87555350D01*
X155954260Y-87559890D01*
X155955020Y-87564490D01*
X155955480Y-87569120D01*
X155955630Y-87573780D01*
X155955630Y-88331380D01*
X155955480Y-88336040D01*
X155955020Y-88340670D01*
X155954260Y-88345270D01*
X155953200Y-88349810D01*
X155951850Y-88354270D01*
X155950210Y-88358630D01*
X155948290Y-88362870D01*
X155946090Y-88366980D01*
X155943630Y-88370940D01*
X155940920Y-88374720D01*
X155937960Y-88378330D01*
X155934780Y-88381730D01*
X155931380Y-88384910D01*
X155927770Y-88387870D01*
X155923990Y-88390580D01*
X155920030Y-88393040D01*
X155915920Y-88395240D01*
X155911680Y-88397160D01*
X155907320Y-88398800D01*
X155902860Y-88400150D01*
X155898320Y-88401210D01*
X155893720Y-88401970D01*
X155889090Y-88402430D01*
X155884430Y-88402580D01*
X155076830Y-88402580D01*
X155072170Y-88402430D01*
X155067540Y-88401970D01*
X155062940Y-88401210D01*
X155058400Y-88400150D01*
X155053940Y-88398800D01*
X155049580Y-88397160D01*
X155045340Y-88395240D01*
X155041230Y-88393040D01*
X155037270Y-88390580D01*
X155033490Y-88387870D01*
X155029880Y-88384910D01*
X155026480Y-88381730D01*
X155023300Y-88378330D01*
X155020340Y-88374720D01*
X155017630Y-88370940D01*
X155015170Y-88366980D01*
X155012970Y-88362870D01*
X155011050Y-88358630D01*
X155009410Y-88354270D01*
X155008060Y-88349810D01*
X155007000Y-88345270D01*
X155006240Y-88340670D01*
X155005780Y-88336040D01*
X155005630Y-88331380D01*
X155005630Y-87573780D01*
X155005780Y-87569120D01*
X155006240Y-87564490D01*
X155007000Y-87559890D01*
X155008060Y-87555350D01*
X155009410Y-87550890D01*
X155011050Y-87546530D01*
X155012970Y-87542290D01*
X155015170Y-87538180D01*
X155017630Y-87534220D01*
X155020340Y-87530440D01*
X155023300Y-87526830D01*
X155026480Y-87523430D01*
X155029880Y-87520250D01*
X155033490Y-87517290D01*
X155037270Y-87514580D01*
X155041230Y-87512120D01*
X155045340Y-87509920D01*
X155049580Y-87508000D01*
X155053940Y-87506360D01*
X155058400Y-87505010D01*
X155062940Y-87503950D01*
X155067540Y-87503190D01*
X155072170Y-87502730D01*
X155076830Y-87502580D01*
X155884430Y-87502580D01*
X155889090Y-87502730D01*
G37*
G36*
X155889090Y-85952730D02*
G01*
X155893720Y-85953190D01*
X155898320Y-85953950D01*
X155902860Y-85955010D01*
X155907320Y-85956360D01*
X155911680Y-85958000D01*
X155915920Y-85959920D01*
X155920030Y-85962120D01*
X155923990Y-85964580D01*
X155927770Y-85967290D01*
X155931380Y-85970250D01*
X155934780Y-85973430D01*
X155937960Y-85976830D01*
X155940920Y-85980440D01*
X155943630Y-85984220D01*
X155946090Y-85988180D01*
X155948290Y-85992290D01*
X155950210Y-85996530D01*
X155951850Y-86000890D01*
X155953200Y-86005350D01*
X155954260Y-86009890D01*
X155955020Y-86014490D01*
X155955480Y-86019120D01*
X155955630Y-86023780D01*
X155955630Y-86781380D01*
X155955480Y-86786040D01*
X155955020Y-86790670D01*
X155954260Y-86795270D01*
X155953200Y-86799810D01*
X155951850Y-86804270D01*
X155950210Y-86808630D01*
X155948290Y-86812870D01*
X155946090Y-86816980D01*
X155943630Y-86820940D01*
X155940920Y-86824720D01*
X155937960Y-86828330D01*
X155934780Y-86831730D01*
X155931380Y-86834910D01*
X155927770Y-86837870D01*
X155923990Y-86840580D01*
X155920030Y-86843040D01*
X155915920Y-86845240D01*
X155911680Y-86847160D01*
X155907320Y-86848800D01*
X155902860Y-86850150D01*
X155898320Y-86851210D01*
X155893720Y-86851970D01*
X155889090Y-86852430D01*
X155884430Y-86852580D01*
X155076830Y-86852580D01*
X155072170Y-86852430D01*
X155067540Y-86851970D01*
X155062940Y-86851210D01*
X155058400Y-86850150D01*
X155053940Y-86848800D01*
X155049580Y-86847160D01*
X155045340Y-86845240D01*
X155041230Y-86843040D01*
X155037270Y-86840580D01*
X155033490Y-86837870D01*
X155029880Y-86834910D01*
X155026480Y-86831730D01*
X155023300Y-86828330D01*
X155020340Y-86824720D01*
X155017630Y-86820940D01*
X155015170Y-86816980D01*
X155012970Y-86812870D01*
X155011050Y-86808630D01*
X155009410Y-86804270D01*
X155008060Y-86799810D01*
X155007000Y-86795270D01*
X155006240Y-86790670D01*
X155005780Y-86786040D01*
X155005630Y-86781380D01*
X155005630Y-86023780D01*
X155005780Y-86019120D01*
X155006240Y-86014490D01*
X155007000Y-86009890D01*
X155008060Y-86005350D01*
X155009410Y-86000890D01*
X155011050Y-85996530D01*
X155012970Y-85992290D01*
X155015170Y-85988180D01*
X155017630Y-85984220D01*
X155020340Y-85980440D01*
X155023300Y-85976830D01*
X155026480Y-85973430D01*
X155029880Y-85970250D01*
X155033490Y-85967290D01*
X155037270Y-85964580D01*
X155041230Y-85962120D01*
X155045340Y-85959920D01*
X155049580Y-85958000D01*
X155053940Y-85956360D01*
X155058400Y-85955010D01*
X155062940Y-85953950D01*
X155067540Y-85953190D01*
X155072170Y-85952730D01*
X155076830Y-85952580D01*
X155884430Y-85952580D01*
X155889090Y-85952730D01*
G37*
G36*
X152803190Y-82160020D02*
G01*
X152813200Y-82161000D01*
X152823130Y-82162640D01*
X152832920Y-82164930D01*
X152842550Y-82167850D01*
X152851960Y-82171390D01*
X152861120Y-82175540D01*
X152869990Y-82180280D01*
X152878530Y-82185590D01*
X152886710Y-82191450D01*
X152894480Y-82197830D01*
X152901820Y-82204710D01*
X152908700Y-82212050D01*
X152915080Y-82219820D01*
X152920940Y-82228000D01*
X152926250Y-82236540D01*
X152930990Y-82245410D01*
X152935140Y-82254570D01*
X152938680Y-82263980D01*
X152941600Y-82273610D01*
X152943890Y-82283400D01*
X152945520Y-82293330D01*
X152946510Y-82303340D01*
X152946840Y-82313390D01*
X152946840Y-84055990D01*
X152946510Y-84066040D01*
X152945520Y-84076050D01*
X152943890Y-84085980D01*
X152941600Y-84095770D01*
X152938680Y-84105400D01*
X152935140Y-84114810D01*
X152930990Y-84123970D01*
X152926250Y-84132840D01*
X152920940Y-84141380D01*
X152915080Y-84149560D01*
X152908700Y-84157330D01*
X152901820Y-84164670D01*
X152894480Y-84171550D01*
X152886710Y-84177930D01*
X152878530Y-84183790D01*
X152869990Y-84189100D01*
X152861120Y-84193840D01*
X152851960Y-84197990D01*
X152842550Y-84201530D01*
X152832920Y-84204450D01*
X152823130Y-84206740D01*
X152813200Y-84208380D01*
X152803190Y-84209360D01*
X152793140Y-84209690D01*
X152510540Y-84209690D01*
X152500490Y-84209360D01*
X152490480Y-84208380D01*
X152480550Y-84206740D01*
X152470760Y-84204450D01*
X152461130Y-84201530D01*
X152451720Y-84197990D01*
X152442560Y-84193840D01*
X152433690Y-84189100D01*
X152425150Y-84183790D01*
X152416970Y-84177930D01*
X152409200Y-84171550D01*
X152401860Y-84164670D01*
X152394980Y-84157330D01*
X152388600Y-84149560D01*
X152382740Y-84141380D01*
X152377430Y-84132840D01*
X152372690Y-84123970D01*
X152368540Y-84114810D01*
X152365000Y-84105400D01*
X152362080Y-84095770D01*
X152359790Y-84085980D01*
X152358160Y-84076050D01*
X152357170Y-84066040D01*
X152356840Y-84055990D01*
X152356840Y-82313390D01*
X152357170Y-82303340D01*
X152358160Y-82293330D01*
X152359790Y-82283400D01*
X152362080Y-82273610D01*
X152365000Y-82263980D01*
X152368540Y-82254570D01*
X152372690Y-82245410D01*
X152377430Y-82236540D01*
X152382740Y-82228000D01*
X152388600Y-82219820D01*
X152394980Y-82212050D01*
X152401860Y-82204710D01*
X152409200Y-82197830D01*
X152416970Y-82191450D01*
X152425150Y-82185590D01*
X152433690Y-82180280D01*
X152442560Y-82175540D01*
X152451720Y-82171390D01*
X152461130Y-82167850D01*
X152470760Y-82164930D01*
X152480550Y-82162640D01*
X152490480Y-82161000D01*
X152500490Y-82160020D01*
X152510540Y-82159690D01*
X152793140Y-82159690D01*
X152803190Y-82160020D01*
G37*
G36*
X146453180Y-82160010D02*
G01*
X146463190Y-82160990D01*
X146473120Y-82162630D01*
X146482910Y-82164920D01*
X146492540Y-82167840D01*
X146501950Y-82171380D01*
X146511110Y-82175530D01*
X146519980Y-82180270D01*
X146528520Y-82185580D01*
X146536700Y-82191440D01*
X146544470Y-82197820D01*
X146551810Y-82204700D01*
X146558690Y-82212040D01*
X146565070Y-82219810D01*
X146570930Y-82227990D01*
X146576240Y-82236530D01*
X146580980Y-82245400D01*
X146585130Y-82254560D01*
X146588670Y-82263970D01*
X146591590Y-82273600D01*
X146593880Y-82283390D01*
X146595510Y-82293320D01*
X146596500Y-82303330D01*
X146596830Y-82313380D01*
X146596830Y-84055980D01*
X146596500Y-84066030D01*
X146595510Y-84076040D01*
X146593880Y-84085970D01*
X146591590Y-84095760D01*
X146588670Y-84105390D01*
X146585130Y-84114800D01*
X146580980Y-84123960D01*
X146576240Y-84132830D01*
X146570930Y-84141370D01*
X146565070Y-84149550D01*
X146558690Y-84157320D01*
X146551810Y-84164660D01*
X146544470Y-84171540D01*
X146536700Y-84177920D01*
X146528520Y-84183780D01*
X146519980Y-84189090D01*
X146511110Y-84193830D01*
X146501950Y-84197980D01*
X146492540Y-84201520D01*
X146482910Y-84204440D01*
X146473120Y-84206730D01*
X146463190Y-84208370D01*
X146453180Y-84209350D01*
X146443130Y-84209680D01*
X146160530Y-84209680D01*
X146150480Y-84209350D01*
X146140470Y-84208370D01*
X146130540Y-84206730D01*
X146120750Y-84204440D01*
X146111120Y-84201520D01*
X146101710Y-84197980D01*
X146092550Y-84193830D01*
X146083680Y-84189090D01*
X146075140Y-84183780D01*
X146066960Y-84177920D01*
X146059190Y-84171540D01*
X146051850Y-84164660D01*
X146044970Y-84157320D01*
X146038590Y-84149550D01*
X146032730Y-84141370D01*
X146027420Y-84132830D01*
X146022680Y-84123960D01*
X146018530Y-84114800D01*
X146014990Y-84105390D01*
X146012070Y-84095760D01*
X146009780Y-84085970D01*
X146008150Y-84076040D01*
X146007160Y-84066030D01*
X146006830Y-84055980D01*
X146006830Y-82313380D01*
X146007160Y-82303330D01*
X146008150Y-82293320D01*
X146009780Y-82283390D01*
X146012070Y-82273600D01*
X146014990Y-82263970D01*
X146018530Y-82254560D01*
X146022680Y-82245400D01*
X146027420Y-82236530D01*
X146032730Y-82227990D01*
X146038590Y-82219810D01*
X146044970Y-82212040D01*
X146051850Y-82204700D01*
X146059190Y-82197820D01*
X146066960Y-82191440D01*
X146075140Y-82185580D01*
X146083680Y-82180270D01*
X146092550Y-82175530D01*
X146101710Y-82171380D01*
X146111120Y-82167840D01*
X146120750Y-82164920D01*
X146130540Y-82162630D01*
X146140470Y-82160990D01*
X146150480Y-82160010D01*
X146160530Y-82159680D01*
X146443130Y-82159680D01*
X146453180Y-82160010D01*
G37*
G36*
X154803290Y-85950430D02*
G01*
X154807920Y-85950890D01*
X154812520Y-85951650D01*
X154817060Y-85952710D01*
X154821520Y-85954060D01*
X154825880Y-85955700D01*
X154830120Y-85957620D01*
X154834230Y-85959820D01*
X154838190Y-85962280D01*
X154841970Y-85964990D01*
X154845580Y-85967950D01*
X154848980Y-85971130D01*
X154852160Y-85974530D01*
X154855120Y-85978140D01*
X154857830Y-85981920D01*
X154860290Y-85985880D01*
X154862490Y-85989990D01*
X154864410Y-85994230D01*
X154866050Y-85998590D01*
X154867400Y-86003050D01*
X154868460Y-86007590D01*
X154869220Y-86012190D01*
X154869680Y-86016820D01*
X154869830Y-86021480D01*
X154869830Y-86779080D01*
X154869680Y-86783740D01*
X154869220Y-86788370D01*
X154868460Y-86792970D01*
X154867400Y-86797510D01*
X154866050Y-86801970D01*
X154864410Y-86806330D01*
X154862490Y-86810570D01*
X154860290Y-86814680D01*
X154857830Y-86818640D01*
X154855120Y-86822420D01*
X154852160Y-86826030D01*
X154848980Y-86829430D01*
X154845580Y-86832610D01*
X154841970Y-86835570D01*
X154838190Y-86838280D01*
X154834230Y-86840740D01*
X154830120Y-86842940D01*
X154825880Y-86844860D01*
X154821520Y-86846500D01*
X154817060Y-86847850D01*
X154812520Y-86848910D01*
X154807920Y-86849670D01*
X154803290Y-86850130D01*
X154798630Y-86850280D01*
X153991030Y-86850280D01*
X153986370Y-86850130D01*
X153981740Y-86849670D01*
X153977140Y-86848910D01*
X153972600Y-86847850D01*
X153968140Y-86846500D01*
X153963780Y-86844860D01*
X153959540Y-86842940D01*
X153955430Y-86840740D01*
X153951470Y-86838280D01*
X153947690Y-86835570D01*
X153944080Y-86832610D01*
X153940680Y-86829430D01*
X153937500Y-86826030D01*
X153934540Y-86822420D01*
X153931830Y-86818640D01*
X153929370Y-86814680D01*
X153927170Y-86810570D01*
X153925250Y-86806330D01*
X153923610Y-86801970D01*
X153922260Y-86797510D01*
X153921200Y-86792970D01*
X153920440Y-86788370D01*
X153919980Y-86783740D01*
X153919830Y-86779080D01*
X153919830Y-86021480D01*
X153919980Y-86016820D01*
X153920440Y-86012190D01*
X153921200Y-86007590D01*
X153922260Y-86003050D01*
X153923610Y-85998590D01*
X153925250Y-85994230D01*
X153927170Y-85989990D01*
X153929370Y-85985880D01*
X153931830Y-85981920D01*
X153934540Y-85978140D01*
X153937500Y-85974530D01*
X153940680Y-85971130D01*
X153944080Y-85967950D01*
X153947690Y-85964990D01*
X153951470Y-85962280D01*
X153955430Y-85959820D01*
X153959540Y-85957620D01*
X153963780Y-85955700D01*
X153968140Y-85954060D01*
X153972600Y-85952710D01*
X153977140Y-85951650D01*
X153981740Y-85950890D01*
X153986370Y-85950430D01*
X153991030Y-85950280D01*
X154798630Y-85950280D01*
X154803290Y-85950430D01*
G37*
G36*
X147723190Y-82160010D02*
G01*
X147733200Y-82160990D01*
X147743130Y-82162630D01*
X147752920Y-82164920D01*
X147762550Y-82167840D01*
X147771960Y-82171380D01*
X147781120Y-82175530D01*
X147789990Y-82180270D01*
X147798530Y-82185580D01*
X147806710Y-82191440D01*
X147814480Y-82197820D01*
X147821820Y-82204700D01*
X147828700Y-82212040D01*
X147835080Y-82219810D01*
X147840940Y-82227990D01*
X147846250Y-82236530D01*
X147850990Y-82245400D01*
X147855140Y-82254560D01*
X147858680Y-82263970D01*
X147861600Y-82273600D01*
X147863890Y-82283390D01*
X147865520Y-82293320D01*
X147866510Y-82303330D01*
X147866840Y-82313380D01*
X147866840Y-84055980D01*
X147866510Y-84066030D01*
X147865520Y-84076040D01*
X147863890Y-84085970D01*
X147861600Y-84095760D01*
X147858680Y-84105390D01*
X147855140Y-84114800D01*
X147850990Y-84123960D01*
X147846250Y-84132830D01*
X147840940Y-84141370D01*
X147835080Y-84149550D01*
X147828700Y-84157320D01*
X147821820Y-84164660D01*
X147814480Y-84171540D01*
X147806710Y-84177920D01*
X147798530Y-84183780D01*
X147789990Y-84189090D01*
X147781120Y-84193830D01*
X147771960Y-84197980D01*
X147762550Y-84201520D01*
X147752920Y-84204440D01*
X147743130Y-84206730D01*
X147733200Y-84208370D01*
X147723190Y-84209350D01*
X147713140Y-84209680D01*
X147430540Y-84209680D01*
X147420490Y-84209350D01*
X147410480Y-84208370D01*
X147400550Y-84206730D01*
X147390760Y-84204440D01*
X147381130Y-84201520D01*
X147371720Y-84197980D01*
X147362560Y-84193830D01*
X147353690Y-84189090D01*
X147345150Y-84183780D01*
X147336970Y-84177920D01*
X147329200Y-84171540D01*
X147321860Y-84164660D01*
X147314980Y-84157320D01*
X147308600Y-84149550D01*
X147302740Y-84141370D01*
X147297430Y-84132830D01*
X147292690Y-84123960D01*
X147288540Y-84114800D01*
X147285000Y-84105390D01*
X147282080Y-84095760D01*
X147279790Y-84085970D01*
X147278160Y-84076040D01*
X147277170Y-84066030D01*
X147276840Y-84055980D01*
X147276840Y-82313380D01*
X147277170Y-82303330D01*
X147278160Y-82293320D01*
X147279790Y-82283390D01*
X147282080Y-82273600D01*
X147285000Y-82263970D01*
X147288540Y-82254560D01*
X147292690Y-82245400D01*
X147297430Y-82236530D01*
X147302740Y-82227990D01*
X147308600Y-82219810D01*
X147314980Y-82212040D01*
X147321860Y-82204700D01*
X147329200Y-82197820D01*
X147336970Y-82191440D01*
X147345150Y-82185580D01*
X147353690Y-82180270D01*
X147362560Y-82175530D01*
X147371720Y-82171380D01*
X147381130Y-82167840D01*
X147390760Y-82164920D01*
X147400550Y-82162630D01*
X147410480Y-82160990D01*
X147420490Y-82160010D01*
X147430540Y-82159680D01*
X147713140Y-82159680D01*
X147723190Y-82160010D01*
G37*
G36*
X143913170Y-91470010D02*
G01*
X143923180Y-91470990D01*
X143933110Y-91472630D01*
X143942900Y-91474920D01*
X143952530Y-91477840D01*
X143961940Y-91481380D01*
X143971100Y-91485530D01*
X143979970Y-91490270D01*
X143988510Y-91495580D01*
X143996690Y-91501440D01*
X144004460Y-91507820D01*
X144011800Y-91514700D01*
X144018680Y-91522040D01*
X144025060Y-91529810D01*
X144030920Y-91537990D01*
X144036230Y-91546530D01*
X144040970Y-91555400D01*
X144045120Y-91564560D01*
X144048660Y-91573970D01*
X144051580Y-91583600D01*
X144053870Y-91593390D01*
X144055500Y-91603320D01*
X144056490Y-91613330D01*
X144056820Y-91623380D01*
X144056820Y-93365980D01*
X144056490Y-93376030D01*
X144055500Y-93386040D01*
X144053870Y-93395970D01*
X144051580Y-93405760D01*
X144048660Y-93415390D01*
X144045120Y-93424800D01*
X144040970Y-93433960D01*
X144036230Y-93442830D01*
X144030920Y-93451370D01*
X144025060Y-93459550D01*
X144018680Y-93467320D01*
X144011800Y-93474660D01*
X144004460Y-93481540D01*
X143996690Y-93487920D01*
X143988510Y-93493780D01*
X143979970Y-93499090D01*
X143971100Y-93503830D01*
X143961940Y-93507980D01*
X143952530Y-93511520D01*
X143942900Y-93514440D01*
X143933110Y-93516730D01*
X143923180Y-93518370D01*
X143913170Y-93519350D01*
X143903120Y-93519680D01*
X143620520Y-93519680D01*
X143610470Y-93519350D01*
X143600460Y-93518370D01*
X143590530Y-93516730D01*
X143580740Y-93514440D01*
X143571110Y-93511520D01*
X143561700Y-93507980D01*
X143552540Y-93503830D01*
X143543670Y-93499090D01*
X143535130Y-93493780D01*
X143526950Y-93487920D01*
X143519180Y-93481540D01*
X143511840Y-93474660D01*
X143504960Y-93467320D01*
X143498580Y-93459550D01*
X143492720Y-93451370D01*
X143487410Y-93442830D01*
X143482670Y-93433960D01*
X143478520Y-93424800D01*
X143474980Y-93415390D01*
X143472060Y-93405760D01*
X143469770Y-93395970D01*
X143468140Y-93386040D01*
X143467150Y-93376030D01*
X143466820Y-93365980D01*
X143466820Y-91623380D01*
X143467150Y-91613330D01*
X143468140Y-91603320D01*
X143469770Y-91593390D01*
X143472060Y-91583600D01*
X143474980Y-91573970D01*
X143478520Y-91564560D01*
X143482670Y-91555400D01*
X143487410Y-91546530D01*
X143492720Y-91537990D01*
X143498580Y-91529810D01*
X143504960Y-91522040D01*
X143511840Y-91514700D01*
X143519180Y-91507820D01*
X143526950Y-91501440D01*
X143535130Y-91495580D01*
X143543670Y-91490270D01*
X143552540Y-91485530D01*
X143561700Y-91481380D01*
X143571110Y-91477840D01*
X143580740Y-91474920D01*
X143590530Y-91472630D01*
X143600460Y-91470990D01*
X143610470Y-91470010D01*
X143620520Y-91469680D01*
X143903120Y-91469680D01*
X143913170Y-91470010D01*
G37*
G36*
X140103170Y-91470000D02*
G01*
X140113180Y-91470980D01*
X140123110Y-91472620D01*
X140132900Y-91474910D01*
X140142530Y-91477830D01*
X140151940Y-91481370D01*
X140161100Y-91485520D01*
X140169970Y-91490260D01*
X140178510Y-91495570D01*
X140186690Y-91501430D01*
X140194460Y-91507810D01*
X140201800Y-91514690D01*
X140208680Y-91522030D01*
X140215060Y-91529800D01*
X140220920Y-91537980D01*
X140226230Y-91546520D01*
X140230970Y-91555390D01*
X140235120Y-91564550D01*
X140238660Y-91573960D01*
X140241580Y-91583590D01*
X140243870Y-91593380D01*
X140245500Y-91603310D01*
X140246490Y-91613320D01*
X140246820Y-91623370D01*
X140246820Y-93365970D01*
X140246490Y-93376020D01*
X140245500Y-93386030D01*
X140243870Y-93395960D01*
X140241580Y-93405750D01*
X140238660Y-93415380D01*
X140235120Y-93424790D01*
X140230970Y-93433950D01*
X140226230Y-93442820D01*
X140220920Y-93451360D01*
X140215060Y-93459540D01*
X140208680Y-93467310D01*
X140201800Y-93474650D01*
X140194460Y-93481530D01*
X140186690Y-93487910D01*
X140178510Y-93493770D01*
X140169970Y-93499080D01*
X140161100Y-93503820D01*
X140151940Y-93507970D01*
X140142530Y-93511510D01*
X140132900Y-93514430D01*
X140123110Y-93516720D01*
X140113180Y-93518360D01*
X140103170Y-93519340D01*
X140093120Y-93519670D01*
X139810520Y-93519670D01*
X139800470Y-93519340D01*
X139790460Y-93518360D01*
X139780530Y-93516720D01*
X139770740Y-93514430D01*
X139761110Y-93511510D01*
X139751700Y-93507970D01*
X139742540Y-93503820D01*
X139733670Y-93499080D01*
X139725130Y-93493770D01*
X139716950Y-93487910D01*
X139709180Y-93481530D01*
X139701840Y-93474650D01*
X139694960Y-93467310D01*
X139688580Y-93459540D01*
X139682720Y-93451360D01*
X139677410Y-93442820D01*
X139672670Y-93433950D01*
X139668520Y-93424790D01*
X139664980Y-93415380D01*
X139662060Y-93405750D01*
X139659770Y-93395960D01*
X139658140Y-93386030D01*
X139657150Y-93376020D01*
X139656820Y-93365970D01*
X139656820Y-91623370D01*
X139657150Y-91613320D01*
X139658140Y-91603310D01*
X139659770Y-91593380D01*
X139662060Y-91583590D01*
X139664980Y-91573960D01*
X139668520Y-91564550D01*
X139672670Y-91555390D01*
X139677410Y-91546520D01*
X139682720Y-91537980D01*
X139688580Y-91529800D01*
X139694960Y-91522030D01*
X139701840Y-91514690D01*
X139709180Y-91507810D01*
X139716950Y-91501430D01*
X139725130Y-91495570D01*
X139733670Y-91490260D01*
X139742540Y-91485520D01*
X139751700Y-91481370D01*
X139761110Y-91477830D01*
X139770740Y-91474910D01*
X139780530Y-91472620D01*
X139790460Y-91470980D01*
X139800470Y-91470000D01*
X139810520Y-91469670D01*
X140093120Y-91469670D01*
X140103170Y-91470000D01*
G37*
G36*
X147723180Y-91470010D02*
G01*
X147733190Y-91470990D01*
X147743120Y-91472630D01*
X147752910Y-91474920D01*
X147762540Y-91477840D01*
X147771950Y-91481380D01*
X147781110Y-91485530D01*
X147789980Y-91490270D01*
X147798520Y-91495580D01*
X147806700Y-91501440D01*
X147814470Y-91507820D01*
X147821810Y-91514700D01*
X147828690Y-91522040D01*
X147835070Y-91529810D01*
X147840930Y-91537990D01*
X147846240Y-91546530D01*
X147850980Y-91555400D01*
X147855130Y-91564560D01*
X147858670Y-91573970D01*
X147861590Y-91583600D01*
X147863880Y-91593390D01*
X147865510Y-91603320D01*
X147866500Y-91613330D01*
X147866830Y-91623380D01*
X147866830Y-93365980D01*
X147866500Y-93376030D01*
X147865510Y-93386040D01*
X147863880Y-93395970D01*
X147861590Y-93405760D01*
X147858670Y-93415390D01*
X147855130Y-93424800D01*
X147850980Y-93433960D01*
X147846240Y-93442830D01*
X147840930Y-93451370D01*
X147835070Y-93459550D01*
X147828690Y-93467320D01*
X147821810Y-93474660D01*
X147814470Y-93481540D01*
X147806700Y-93487920D01*
X147798520Y-93493780D01*
X147789980Y-93499090D01*
X147781110Y-93503830D01*
X147771950Y-93507980D01*
X147762540Y-93511520D01*
X147752910Y-93514440D01*
X147743120Y-93516730D01*
X147733190Y-93518370D01*
X147723180Y-93519350D01*
X147713130Y-93519680D01*
X147430530Y-93519680D01*
X147420480Y-93519350D01*
X147410470Y-93518370D01*
X147400540Y-93516730D01*
X147390750Y-93514440D01*
X147381120Y-93511520D01*
X147371710Y-93507980D01*
X147362550Y-93503830D01*
X147353680Y-93499090D01*
X147345140Y-93493780D01*
X147336960Y-93487920D01*
X147329190Y-93481540D01*
X147321850Y-93474660D01*
X147314970Y-93467320D01*
X147308590Y-93459550D01*
X147302730Y-93451370D01*
X147297420Y-93442830D01*
X147292680Y-93433960D01*
X147288530Y-93424800D01*
X147284990Y-93415390D01*
X147282070Y-93405760D01*
X147279780Y-93395970D01*
X147278150Y-93386040D01*
X147277160Y-93376030D01*
X147276830Y-93365980D01*
X147276830Y-91623380D01*
X147277160Y-91613330D01*
X147278150Y-91603320D01*
X147279780Y-91593390D01*
X147282070Y-91583600D01*
X147284990Y-91573970D01*
X147288530Y-91564560D01*
X147292680Y-91555400D01*
X147297420Y-91546530D01*
X147302730Y-91537990D01*
X147308590Y-91529810D01*
X147314970Y-91522040D01*
X147321850Y-91514700D01*
X147329190Y-91507820D01*
X147336960Y-91501440D01*
X147345140Y-91495580D01*
X147353680Y-91490270D01*
X147362550Y-91485530D01*
X147371710Y-91481380D01*
X147381120Y-91477840D01*
X147390750Y-91474920D01*
X147400540Y-91472630D01*
X147410470Y-91470990D01*
X147420480Y-91470010D01*
X147430530Y-91469680D01*
X147713130Y-91469680D01*
X147723180Y-91470010D01*
G37*
G36*
X151533190Y-82160020D02*
G01*
X151543200Y-82161000D01*
X151553130Y-82162640D01*
X151562920Y-82164930D01*
X151572550Y-82167850D01*
X151581960Y-82171390D01*
X151591120Y-82175540D01*
X151599990Y-82180280D01*
X151608530Y-82185590D01*
X151616710Y-82191450D01*
X151624480Y-82197830D01*
X151631820Y-82204710D01*
X151638700Y-82212050D01*
X151645080Y-82219820D01*
X151650940Y-82228000D01*
X151656250Y-82236540D01*
X151660990Y-82245410D01*
X151665140Y-82254570D01*
X151668680Y-82263980D01*
X151671600Y-82273610D01*
X151673890Y-82283400D01*
X151675520Y-82293330D01*
X151676510Y-82303340D01*
X151676840Y-82313390D01*
X151676840Y-84055990D01*
X151676510Y-84066040D01*
X151675520Y-84076050D01*
X151673890Y-84085980D01*
X151671600Y-84095770D01*
X151668680Y-84105400D01*
X151665140Y-84114810D01*
X151660990Y-84123970D01*
X151656250Y-84132840D01*
X151650940Y-84141380D01*
X151645080Y-84149560D01*
X151638700Y-84157330D01*
X151631820Y-84164670D01*
X151624480Y-84171550D01*
X151616710Y-84177930D01*
X151608530Y-84183790D01*
X151599990Y-84189100D01*
X151591120Y-84193840D01*
X151581960Y-84197990D01*
X151572550Y-84201530D01*
X151562920Y-84204450D01*
X151553130Y-84206740D01*
X151543200Y-84208380D01*
X151533190Y-84209360D01*
X151523140Y-84209690D01*
X151240540Y-84209690D01*
X151230490Y-84209360D01*
X151220480Y-84208380D01*
X151210550Y-84206740D01*
X151200760Y-84204450D01*
X151191130Y-84201530D01*
X151181720Y-84197990D01*
X151172560Y-84193840D01*
X151163690Y-84189100D01*
X151155150Y-84183790D01*
X151146970Y-84177930D01*
X151139200Y-84171550D01*
X151131860Y-84164670D01*
X151124980Y-84157330D01*
X151118600Y-84149560D01*
X151112740Y-84141380D01*
X151107430Y-84132840D01*
X151102690Y-84123970D01*
X151098540Y-84114810D01*
X151095000Y-84105400D01*
X151092080Y-84095770D01*
X151089790Y-84085980D01*
X151088160Y-84076050D01*
X151087170Y-84066040D01*
X151086840Y-84055990D01*
X151086840Y-82313390D01*
X151087170Y-82303340D01*
X151088160Y-82293330D01*
X151089790Y-82283400D01*
X151092080Y-82273610D01*
X151095000Y-82263980D01*
X151098540Y-82254570D01*
X151102690Y-82245410D01*
X151107430Y-82236540D01*
X151112740Y-82228000D01*
X151118600Y-82219820D01*
X151124980Y-82212050D01*
X151131860Y-82204710D01*
X151139200Y-82197830D01*
X151146970Y-82191450D01*
X151155150Y-82185590D01*
X151163690Y-82180280D01*
X151172560Y-82175540D01*
X151181720Y-82171390D01*
X151191130Y-82167850D01*
X151200760Y-82164930D01*
X151210550Y-82162640D01*
X151220480Y-82161000D01*
X151230490Y-82160020D01*
X151240540Y-82159690D01*
X151523140Y-82159690D01*
X151533190Y-82160020D01*
G37*
G36*
X140103180Y-82160000D02*
G01*
X140113190Y-82160980D01*
X140123120Y-82162620D01*
X140132910Y-82164910D01*
X140142540Y-82167830D01*
X140151950Y-82171370D01*
X140161110Y-82175520D01*
X140169980Y-82180260D01*
X140178520Y-82185570D01*
X140186700Y-82191430D01*
X140194470Y-82197810D01*
X140201810Y-82204690D01*
X140208690Y-82212030D01*
X140215070Y-82219800D01*
X140220930Y-82227980D01*
X140226240Y-82236520D01*
X140230980Y-82245390D01*
X140235130Y-82254550D01*
X140238670Y-82263960D01*
X140241590Y-82273590D01*
X140243880Y-82283380D01*
X140245510Y-82293310D01*
X140246500Y-82303320D01*
X140246830Y-82313370D01*
X140246830Y-84055970D01*
X140246500Y-84066020D01*
X140245510Y-84076030D01*
X140243880Y-84085960D01*
X140241590Y-84095750D01*
X140238670Y-84105380D01*
X140235130Y-84114790D01*
X140230980Y-84123950D01*
X140226240Y-84132820D01*
X140220930Y-84141360D01*
X140215070Y-84149540D01*
X140208690Y-84157310D01*
X140201810Y-84164650D01*
X140194470Y-84171530D01*
X140186700Y-84177910D01*
X140178520Y-84183770D01*
X140169980Y-84189080D01*
X140161110Y-84193820D01*
X140151950Y-84197970D01*
X140142540Y-84201510D01*
X140132910Y-84204430D01*
X140123120Y-84206720D01*
X140113190Y-84208360D01*
X140103180Y-84209340D01*
X140093130Y-84209670D01*
X139810530Y-84209670D01*
X139800480Y-84209340D01*
X139790470Y-84208360D01*
X139780540Y-84206720D01*
X139770750Y-84204430D01*
X139761120Y-84201510D01*
X139751710Y-84197970D01*
X139742550Y-84193820D01*
X139733680Y-84189080D01*
X139725140Y-84183770D01*
X139716960Y-84177910D01*
X139709190Y-84171530D01*
X139701850Y-84164650D01*
X139694970Y-84157310D01*
X139688590Y-84149540D01*
X139682730Y-84141360D01*
X139677420Y-84132820D01*
X139672680Y-84123950D01*
X139668530Y-84114790D01*
X139664990Y-84105380D01*
X139662070Y-84095750D01*
X139659780Y-84085960D01*
X139658150Y-84076030D01*
X139657160Y-84066020D01*
X139656830Y-84055970D01*
X139656830Y-82313370D01*
X139657160Y-82303320D01*
X139658150Y-82293310D01*
X139659780Y-82283380D01*
X139662070Y-82273590D01*
X139664990Y-82263960D01*
X139668530Y-82254550D01*
X139672680Y-82245390D01*
X139677420Y-82236520D01*
X139682730Y-82227980D01*
X139688590Y-82219800D01*
X139694970Y-82212030D01*
X139701850Y-82204690D01*
X139709190Y-82197810D01*
X139716960Y-82191430D01*
X139725140Y-82185570D01*
X139733680Y-82180260D01*
X139742550Y-82175520D01*
X139751710Y-82171370D01*
X139761120Y-82167830D01*
X139770750Y-82164910D01*
X139780540Y-82162620D01*
X139790470Y-82160980D01*
X139800480Y-82160000D01*
X139810530Y-82159670D01*
X140093130Y-82159670D01*
X140103180Y-82160000D01*
G37*
G36*
X151533180Y-91470020D02*
G01*
X151543190Y-91471000D01*
X151553120Y-91472640D01*
X151562910Y-91474930D01*
X151572540Y-91477850D01*
X151581950Y-91481390D01*
X151591110Y-91485540D01*
X151599980Y-91490280D01*
X151608520Y-91495590D01*
X151616700Y-91501450D01*
X151624470Y-91507830D01*
X151631810Y-91514710D01*
X151638690Y-91522050D01*
X151645070Y-91529820D01*
X151650930Y-91538000D01*
X151656240Y-91546540D01*
X151660980Y-91555410D01*
X151665130Y-91564570D01*
X151668670Y-91573980D01*
X151671590Y-91583610D01*
X151673880Y-91593400D01*
X151675510Y-91603330D01*
X151676500Y-91613340D01*
X151676830Y-91623390D01*
X151676830Y-93365990D01*
X151676500Y-93376040D01*
X151675510Y-93386050D01*
X151673880Y-93395980D01*
X151671590Y-93405770D01*
X151668670Y-93415400D01*
X151665130Y-93424810D01*
X151660980Y-93433970D01*
X151656240Y-93442840D01*
X151650930Y-93451380D01*
X151645070Y-93459560D01*
X151638690Y-93467330D01*
X151631810Y-93474670D01*
X151624470Y-93481550D01*
X151616700Y-93487930D01*
X151608520Y-93493790D01*
X151599980Y-93499100D01*
X151591110Y-93503840D01*
X151581950Y-93507990D01*
X151572540Y-93511530D01*
X151562910Y-93514450D01*
X151553120Y-93516740D01*
X151543190Y-93518380D01*
X151533180Y-93519360D01*
X151523130Y-93519690D01*
X151240530Y-93519690D01*
X151230480Y-93519360D01*
X151220470Y-93518380D01*
X151210540Y-93516740D01*
X151200750Y-93514450D01*
X151191120Y-93511530D01*
X151181710Y-93507990D01*
X151172550Y-93503840D01*
X151163680Y-93499100D01*
X151155140Y-93493790D01*
X151146960Y-93487930D01*
X151139190Y-93481550D01*
X151131850Y-93474670D01*
X151124970Y-93467330D01*
X151118590Y-93459560D01*
X151112730Y-93451380D01*
X151107420Y-93442840D01*
X151102680Y-93433970D01*
X151098530Y-93424810D01*
X151094990Y-93415400D01*
X151092070Y-93405770D01*
X151089780Y-93395980D01*
X151088150Y-93386050D01*
X151087160Y-93376040D01*
X151086830Y-93365990D01*
X151086830Y-91623390D01*
X151087160Y-91613340D01*
X151088150Y-91603330D01*
X151089780Y-91593400D01*
X151092070Y-91583610D01*
X151094990Y-91573980D01*
X151098530Y-91564570D01*
X151102680Y-91555410D01*
X151107420Y-91546540D01*
X151112730Y-91538000D01*
X151118590Y-91529820D01*
X151124970Y-91522050D01*
X151131850Y-91514710D01*
X151139190Y-91507830D01*
X151146960Y-91501450D01*
X151155140Y-91495590D01*
X151163680Y-91490280D01*
X151172550Y-91485540D01*
X151181710Y-91481390D01*
X151191120Y-91477850D01*
X151200750Y-91474930D01*
X151210540Y-91472640D01*
X151220470Y-91471000D01*
X151230480Y-91470020D01*
X151240530Y-91469690D01*
X151523130Y-91469690D01*
X151533180Y-91470020D01*
G37*
G36*
X150263180Y-91470010D02*
G01*
X150273190Y-91470990D01*
X150283120Y-91472630D01*
X150292910Y-91474920D01*
X150302540Y-91477840D01*
X150311950Y-91481380D01*
X150321110Y-91485530D01*
X150329980Y-91490270D01*
X150338520Y-91495580D01*
X150346700Y-91501440D01*
X150354470Y-91507820D01*
X150361810Y-91514700D01*
X150368690Y-91522040D01*
X150375070Y-91529810D01*
X150380930Y-91537990D01*
X150386240Y-91546530D01*
X150390980Y-91555400D01*
X150395130Y-91564560D01*
X150398670Y-91573970D01*
X150401590Y-91583600D01*
X150403880Y-91593390D01*
X150405510Y-91603320D01*
X150406500Y-91613330D01*
X150406830Y-91623380D01*
X150406830Y-93365980D01*
X150406500Y-93376030D01*
X150405510Y-93386040D01*
X150403880Y-93395970D01*
X150401590Y-93405760D01*
X150398670Y-93415390D01*
X150395130Y-93424800D01*
X150390980Y-93433960D01*
X150386240Y-93442830D01*
X150380930Y-93451370D01*
X150375070Y-93459550D01*
X150368690Y-93467320D01*
X150361810Y-93474660D01*
X150354470Y-93481540D01*
X150346700Y-93487920D01*
X150338520Y-93493780D01*
X150329980Y-93499090D01*
X150321110Y-93503830D01*
X150311950Y-93507980D01*
X150302540Y-93511520D01*
X150292910Y-93514440D01*
X150283120Y-93516730D01*
X150273190Y-93518370D01*
X150263180Y-93519350D01*
X150253130Y-93519680D01*
X149970530Y-93519680D01*
X149960480Y-93519350D01*
X149950470Y-93518370D01*
X149940540Y-93516730D01*
X149930750Y-93514440D01*
X149921120Y-93511520D01*
X149911710Y-93507980D01*
X149902550Y-93503830D01*
X149893680Y-93499090D01*
X149885140Y-93493780D01*
X149876960Y-93487920D01*
X149869190Y-93481540D01*
X149861850Y-93474660D01*
X149854970Y-93467320D01*
X149848590Y-93459550D01*
X149842730Y-93451370D01*
X149837420Y-93442830D01*
X149832680Y-93433960D01*
X149828530Y-93424800D01*
X149824990Y-93415390D01*
X149822070Y-93405760D01*
X149819780Y-93395970D01*
X149818150Y-93386040D01*
X149817160Y-93376030D01*
X149816830Y-93365980D01*
X149816830Y-91623380D01*
X149817160Y-91613330D01*
X149818150Y-91603320D01*
X149819780Y-91593390D01*
X149822070Y-91583600D01*
X149824990Y-91573970D01*
X149828530Y-91564560D01*
X149832680Y-91555400D01*
X149837420Y-91546530D01*
X149842730Y-91537990D01*
X149848590Y-91529810D01*
X149854970Y-91522040D01*
X149861850Y-91514700D01*
X149869190Y-91507820D01*
X149876960Y-91501440D01*
X149885140Y-91495580D01*
X149893680Y-91490270D01*
X149902550Y-91485530D01*
X149911710Y-91481380D01*
X149921120Y-91477840D01*
X149930750Y-91474920D01*
X149940540Y-91472630D01*
X149950470Y-91470990D01*
X149960480Y-91470010D01*
X149970530Y-91469680D01*
X150253130Y-91469680D01*
X150263180Y-91470010D01*
G37*
G36*
X141373170Y-91470000D02*
G01*
X141383180Y-91470980D01*
X141393110Y-91472620D01*
X141402900Y-91474910D01*
X141412530Y-91477830D01*
X141421940Y-91481370D01*
X141431100Y-91485520D01*
X141439970Y-91490260D01*
X141448510Y-91495570D01*
X141456690Y-91501430D01*
X141464460Y-91507810D01*
X141471800Y-91514690D01*
X141478680Y-91522030D01*
X141485060Y-91529800D01*
X141490920Y-91537980D01*
X141496230Y-91546520D01*
X141500970Y-91555390D01*
X141505120Y-91564550D01*
X141508660Y-91573960D01*
X141511580Y-91583590D01*
X141513870Y-91593380D01*
X141515500Y-91603310D01*
X141516490Y-91613320D01*
X141516820Y-91623370D01*
X141516820Y-93365970D01*
X141516490Y-93376020D01*
X141515500Y-93386030D01*
X141513870Y-93395960D01*
X141511580Y-93405750D01*
X141508660Y-93415380D01*
X141505120Y-93424790D01*
X141500970Y-93433950D01*
X141496230Y-93442820D01*
X141490920Y-93451360D01*
X141485060Y-93459540D01*
X141478680Y-93467310D01*
X141471800Y-93474650D01*
X141464460Y-93481530D01*
X141456690Y-93487910D01*
X141448510Y-93493770D01*
X141439970Y-93499080D01*
X141431100Y-93503820D01*
X141421940Y-93507970D01*
X141412530Y-93511510D01*
X141402900Y-93514430D01*
X141393110Y-93516720D01*
X141383180Y-93518360D01*
X141373170Y-93519340D01*
X141363120Y-93519670D01*
X141080520Y-93519670D01*
X141070470Y-93519340D01*
X141060460Y-93518360D01*
X141050530Y-93516720D01*
X141040740Y-93514430D01*
X141031110Y-93511510D01*
X141021700Y-93507970D01*
X141012540Y-93503820D01*
X141003670Y-93499080D01*
X140995130Y-93493770D01*
X140986950Y-93487910D01*
X140979180Y-93481530D01*
X140971840Y-93474650D01*
X140964960Y-93467310D01*
X140958580Y-93459540D01*
X140952720Y-93451360D01*
X140947410Y-93442820D01*
X140942670Y-93433950D01*
X140938520Y-93424790D01*
X140934980Y-93415380D01*
X140932060Y-93405750D01*
X140929770Y-93395960D01*
X140928140Y-93386030D01*
X140927150Y-93376020D01*
X140926820Y-93365970D01*
X140926820Y-91623370D01*
X140927150Y-91613320D01*
X140928140Y-91603310D01*
X140929770Y-91593380D01*
X140932060Y-91583590D01*
X140934980Y-91573960D01*
X140938520Y-91564550D01*
X140942670Y-91555390D01*
X140947410Y-91546520D01*
X140952720Y-91537980D01*
X140958580Y-91529800D01*
X140964960Y-91522030D01*
X140971840Y-91514690D01*
X140979180Y-91507810D01*
X140986950Y-91501430D01*
X140995130Y-91495570D01*
X141003670Y-91490260D01*
X141012540Y-91485520D01*
X141021700Y-91481370D01*
X141031110Y-91477830D01*
X141040740Y-91474910D01*
X141050530Y-91472620D01*
X141060460Y-91470980D01*
X141070470Y-91470000D01*
X141080520Y-91469670D01*
X141363120Y-91469670D01*
X141373170Y-91470000D01*
G37*
G36*
X141373180Y-82160000D02*
G01*
X141383190Y-82160980D01*
X141393120Y-82162620D01*
X141402910Y-82164910D01*
X141412540Y-82167830D01*
X141421950Y-82171370D01*
X141431110Y-82175520D01*
X141439980Y-82180260D01*
X141448520Y-82185570D01*
X141456700Y-82191430D01*
X141464470Y-82197810D01*
X141471810Y-82204690D01*
X141478690Y-82212030D01*
X141485070Y-82219800D01*
X141490930Y-82227980D01*
X141496240Y-82236520D01*
X141500980Y-82245390D01*
X141505130Y-82254550D01*
X141508670Y-82263960D01*
X141511590Y-82273590D01*
X141513880Y-82283380D01*
X141515510Y-82293310D01*
X141516500Y-82303320D01*
X141516830Y-82313370D01*
X141516830Y-84055970D01*
X141516500Y-84066020D01*
X141515510Y-84076030D01*
X141513880Y-84085960D01*
X141511590Y-84095750D01*
X141508670Y-84105380D01*
X141505130Y-84114790D01*
X141500980Y-84123950D01*
X141496240Y-84132820D01*
X141490930Y-84141360D01*
X141485070Y-84149540D01*
X141478690Y-84157310D01*
X141471810Y-84164650D01*
X141464470Y-84171530D01*
X141456700Y-84177910D01*
X141448520Y-84183770D01*
X141439980Y-84189080D01*
X141431110Y-84193820D01*
X141421950Y-84197970D01*
X141412540Y-84201510D01*
X141402910Y-84204430D01*
X141393120Y-84206720D01*
X141383190Y-84208360D01*
X141373180Y-84209340D01*
X141363130Y-84209670D01*
X141080530Y-84209670D01*
X141070480Y-84209340D01*
X141060470Y-84208360D01*
X141050540Y-84206720D01*
X141040750Y-84204430D01*
X141031120Y-84201510D01*
X141021710Y-84197970D01*
X141012550Y-84193820D01*
X141003680Y-84189080D01*
X140995140Y-84183770D01*
X140986960Y-84177910D01*
X140979190Y-84171530D01*
X140971850Y-84164650D01*
X140964970Y-84157310D01*
X140958590Y-84149540D01*
X140952730Y-84141360D01*
X140947420Y-84132820D01*
X140942680Y-84123950D01*
X140938530Y-84114790D01*
X140934990Y-84105380D01*
X140932070Y-84095750D01*
X140929780Y-84085960D01*
X140928150Y-84076030D01*
X140927160Y-84066020D01*
X140926830Y-84055970D01*
X140926830Y-82313370D01*
X140927160Y-82303320D01*
X140928150Y-82293310D01*
X140929780Y-82283380D01*
X140932070Y-82273590D01*
X140934990Y-82263960D01*
X140938530Y-82254550D01*
X140942680Y-82245390D01*
X140947420Y-82236520D01*
X140952730Y-82227980D01*
X140958590Y-82219800D01*
X140964970Y-82212030D01*
X140971850Y-82204690D01*
X140979190Y-82197810D01*
X140986960Y-82191430D01*
X140995140Y-82185570D01*
X141003680Y-82180260D01*
X141012550Y-82175520D01*
X141021710Y-82171370D01*
X141031120Y-82167830D01*
X141040750Y-82164910D01*
X141050540Y-82162620D01*
X141060470Y-82160980D01*
X141070480Y-82160000D01*
X141080530Y-82159670D01*
X141363130Y-82159670D01*
X141373180Y-82160000D01*
G37*
G36*
X145183170Y-91470010D02*
G01*
X145193180Y-91470990D01*
X145203110Y-91472630D01*
X145212900Y-91474920D01*
X145222530Y-91477840D01*
X145231940Y-91481380D01*
X145241100Y-91485530D01*
X145249970Y-91490270D01*
X145258510Y-91495580D01*
X145266690Y-91501440D01*
X145274460Y-91507820D01*
X145281800Y-91514700D01*
X145288680Y-91522040D01*
X145295060Y-91529810D01*
X145300920Y-91537990D01*
X145306230Y-91546530D01*
X145310970Y-91555400D01*
X145315120Y-91564560D01*
X145318660Y-91573970D01*
X145321580Y-91583600D01*
X145323870Y-91593390D01*
X145325500Y-91603320D01*
X145326490Y-91613330D01*
X145326820Y-91623380D01*
X145326820Y-93365980D01*
X145326490Y-93376030D01*
X145325500Y-93386040D01*
X145323870Y-93395970D01*
X145321580Y-93405760D01*
X145318660Y-93415390D01*
X145315120Y-93424800D01*
X145310970Y-93433960D01*
X145306230Y-93442830D01*
X145300920Y-93451370D01*
X145295060Y-93459550D01*
X145288680Y-93467320D01*
X145281800Y-93474660D01*
X145274460Y-93481540D01*
X145266690Y-93487920D01*
X145258510Y-93493780D01*
X145249970Y-93499090D01*
X145241100Y-93503830D01*
X145231940Y-93507980D01*
X145222530Y-93511520D01*
X145212900Y-93514440D01*
X145203110Y-93516730D01*
X145193180Y-93518370D01*
X145183170Y-93519350D01*
X145173120Y-93519680D01*
X144890520Y-93519680D01*
X144880470Y-93519350D01*
X144870460Y-93518370D01*
X144860530Y-93516730D01*
X144850740Y-93514440D01*
X144841110Y-93511520D01*
X144831700Y-93507980D01*
X144822540Y-93503830D01*
X144813670Y-93499090D01*
X144805130Y-93493780D01*
X144796950Y-93487920D01*
X144789180Y-93481540D01*
X144781840Y-93474660D01*
X144774960Y-93467320D01*
X144768580Y-93459550D01*
X144762720Y-93451370D01*
X144757410Y-93442830D01*
X144752670Y-93433960D01*
X144748520Y-93424800D01*
X144744980Y-93415390D01*
X144742060Y-93405760D01*
X144739770Y-93395970D01*
X144738140Y-93386040D01*
X144737150Y-93376030D01*
X144736820Y-93365980D01*
X144736820Y-91623380D01*
X144737150Y-91613330D01*
X144738140Y-91603320D01*
X144739770Y-91593390D01*
X144742060Y-91583600D01*
X144744980Y-91573970D01*
X144748520Y-91564560D01*
X144752670Y-91555400D01*
X144757410Y-91546530D01*
X144762720Y-91537990D01*
X144768580Y-91529810D01*
X144774960Y-91522040D01*
X144781840Y-91514700D01*
X144789180Y-91507820D01*
X144796950Y-91501440D01*
X144805130Y-91495580D01*
X144813670Y-91490270D01*
X144822540Y-91485530D01*
X144831700Y-91481380D01*
X144841110Y-91477840D01*
X144850740Y-91474920D01*
X144860530Y-91472630D01*
X144870460Y-91470990D01*
X144880470Y-91470010D01*
X144890520Y-91469680D01*
X145173120Y-91469680D01*
X145183170Y-91470010D01*
G37*
G36*
X138833170Y-91470000D02*
G01*
X138843180Y-91470980D01*
X138853110Y-91472620D01*
X138862900Y-91474910D01*
X138872530Y-91477830D01*
X138881940Y-91481370D01*
X138891100Y-91485520D01*
X138899970Y-91490260D01*
X138908510Y-91495570D01*
X138916690Y-91501430D01*
X138924460Y-91507810D01*
X138931800Y-91514690D01*
X138938680Y-91522030D01*
X138945060Y-91529800D01*
X138950920Y-91537980D01*
X138956230Y-91546520D01*
X138960970Y-91555390D01*
X138965120Y-91564550D01*
X138968660Y-91573960D01*
X138971580Y-91583590D01*
X138973870Y-91593380D01*
X138975500Y-91603310D01*
X138976490Y-91613320D01*
X138976820Y-91623370D01*
X138976820Y-93365970D01*
X138976490Y-93376020D01*
X138975500Y-93386030D01*
X138973870Y-93395960D01*
X138971580Y-93405750D01*
X138968660Y-93415380D01*
X138965120Y-93424790D01*
X138960970Y-93433950D01*
X138956230Y-93442820D01*
X138950920Y-93451360D01*
X138945060Y-93459540D01*
X138938680Y-93467310D01*
X138931800Y-93474650D01*
X138924460Y-93481530D01*
X138916690Y-93487910D01*
X138908510Y-93493770D01*
X138899970Y-93499080D01*
X138891100Y-93503820D01*
X138881940Y-93507970D01*
X138872530Y-93511510D01*
X138862900Y-93514430D01*
X138853110Y-93516720D01*
X138843180Y-93518360D01*
X138833170Y-93519340D01*
X138823120Y-93519670D01*
X138540520Y-93519670D01*
X138530470Y-93519340D01*
X138520460Y-93518360D01*
X138510530Y-93516720D01*
X138500740Y-93514430D01*
X138491110Y-93511510D01*
X138481700Y-93507970D01*
X138472540Y-93503820D01*
X138463670Y-93499080D01*
X138455130Y-93493770D01*
X138446950Y-93487910D01*
X138439180Y-93481530D01*
X138431840Y-93474650D01*
X138424960Y-93467310D01*
X138418580Y-93459540D01*
X138412720Y-93451360D01*
X138407410Y-93442820D01*
X138402670Y-93433950D01*
X138398520Y-93424790D01*
X138394980Y-93415380D01*
X138392060Y-93405750D01*
X138389770Y-93395960D01*
X138388140Y-93386030D01*
X138387150Y-93376020D01*
X138386820Y-93365970D01*
X138386820Y-91623370D01*
X138387150Y-91613320D01*
X138388140Y-91603310D01*
X138389770Y-91593380D01*
X138392060Y-91583590D01*
X138394980Y-91573960D01*
X138398520Y-91564550D01*
X138402670Y-91555390D01*
X138407410Y-91546520D01*
X138412720Y-91537980D01*
X138418580Y-91529800D01*
X138424960Y-91522030D01*
X138431840Y-91514690D01*
X138439180Y-91507810D01*
X138446950Y-91501430D01*
X138455130Y-91495570D01*
X138463670Y-91490260D01*
X138472540Y-91485520D01*
X138481700Y-91481370D01*
X138491110Y-91477830D01*
X138500740Y-91474910D01*
X138510530Y-91472620D01*
X138520460Y-91470980D01*
X138530470Y-91470000D01*
X138540520Y-91469670D01*
X138823120Y-91469670D01*
X138833170Y-91470000D01*
G37*
G36*
X154803290Y-87500430D02*
G01*
X154807920Y-87500890D01*
X154812520Y-87501650D01*
X154817060Y-87502710D01*
X154821520Y-87504060D01*
X154825880Y-87505700D01*
X154830120Y-87507620D01*
X154834230Y-87509820D01*
X154838190Y-87512280D01*
X154841970Y-87514990D01*
X154845580Y-87517950D01*
X154848980Y-87521130D01*
X154852160Y-87524530D01*
X154855120Y-87528140D01*
X154857830Y-87531920D01*
X154860290Y-87535880D01*
X154862490Y-87539990D01*
X154864410Y-87544230D01*
X154866050Y-87548590D01*
X154867400Y-87553050D01*
X154868460Y-87557590D01*
X154869220Y-87562190D01*
X154869680Y-87566820D01*
X154869830Y-87571480D01*
X154869830Y-88329080D01*
X154869680Y-88333740D01*
X154869220Y-88338370D01*
X154868460Y-88342970D01*
X154867400Y-88347510D01*
X154866050Y-88351970D01*
X154864410Y-88356330D01*
X154862490Y-88360570D01*
X154860290Y-88364680D01*
X154857830Y-88368640D01*
X154855120Y-88372420D01*
X154852160Y-88376030D01*
X154848980Y-88379430D01*
X154845580Y-88382610D01*
X154841970Y-88385570D01*
X154838190Y-88388280D01*
X154834230Y-88390740D01*
X154830120Y-88392940D01*
X154825880Y-88394860D01*
X154821520Y-88396500D01*
X154817060Y-88397850D01*
X154812520Y-88398910D01*
X154807920Y-88399670D01*
X154803290Y-88400130D01*
X154798630Y-88400280D01*
X153991030Y-88400280D01*
X153986370Y-88400130D01*
X153981740Y-88399670D01*
X153977140Y-88398910D01*
X153972600Y-88397850D01*
X153968140Y-88396500D01*
X153963780Y-88394860D01*
X153959540Y-88392940D01*
X153955430Y-88390740D01*
X153951470Y-88388280D01*
X153947690Y-88385570D01*
X153944080Y-88382610D01*
X153940680Y-88379430D01*
X153937500Y-88376030D01*
X153934540Y-88372420D01*
X153931830Y-88368640D01*
X153929370Y-88364680D01*
X153927170Y-88360570D01*
X153925250Y-88356330D01*
X153923610Y-88351970D01*
X153922260Y-88347510D01*
X153921200Y-88342970D01*
X153920440Y-88338370D01*
X153919980Y-88333740D01*
X153919830Y-88329080D01*
X153919830Y-87571480D01*
X153919980Y-87566820D01*
X153920440Y-87562190D01*
X153921200Y-87557590D01*
X153922260Y-87553050D01*
X153923610Y-87548590D01*
X153925250Y-87544230D01*
X153927170Y-87539990D01*
X153929370Y-87535880D01*
X153931830Y-87531920D01*
X153934540Y-87528140D01*
X153937500Y-87524530D01*
X153940680Y-87521130D01*
X153944080Y-87517950D01*
X153947690Y-87514990D01*
X153951470Y-87512280D01*
X153955430Y-87509820D01*
X153959540Y-87507620D01*
X153963780Y-87505700D01*
X153968140Y-87504060D01*
X153972600Y-87502710D01*
X153977140Y-87501650D01*
X153981740Y-87500890D01*
X153986370Y-87500430D01*
X153991030Y-87500280D01*
X154798630Y-87500280D01*
X154803290Y-87500430D01*
G37*
G36*
X152803180Y-91470020D02*
G01*
X152813190Y-91471000D01*
X152823120Y-91472640D01*
X152832910Y-91474930D01*
X152842540Y-91477850D01*
X152851950Y-91481390D01*
X152861110Y-91485540D01*
X152869980Y-91490280D01*
X152878520Y-91495590D01*
X152886700Y-91501450D01*
X152894470Y-91507830D01*
X152901810Y-91514710D01*
X152908690Y-91522050D01*
X152915070Y-91529820D01*
X152920930Y-91538000D01*
X152926240Y-91546540D01*
X152930980Y-91555410D01*
X152935130Y-91564570D01*
X152938670Y-91573980D01*
X152941590Y-91583610D01*
X152943880Y-91593400D01*
X152945510Y-91603330D01*
X152946500Y-91613340D01*
X152946830Y-91623390D01*
X152946830Y-93365990D01*
X152946500Y-93376040D01*
X152945510Y-93386050D01*
X152943880Y-93395980D01*
X152941590Y-93405770D01*
X152938670Y-93415400D01*
X152935130Y-93424810D01*
X152930980Y-93433970D01*
X152926240Y-93442840D01*
X152920930Y-93451380D01*
X152915070Y-93459560D01*
X152908690Y-93467330D01*
X152901810Y-93474670D01*
X152894470Y-93481550D01*
X152886700Y-93487930D01*
X152878520Y-93493790D01*
X152869980Y-93499100D01*
X152861110Y-93503840D01*
X152851950Y-93507990D01*
X152842540Y-93511530D01*
X152832910Y-93514450D01*
X152823120Y-93516740D01*
X152813190Y-93518380D01*
X152803180Y-93519360D01*
X152793130Y-93519690D01*
X152510530Y-93519690D01*
X152500480Y-93519360D01*
X152490470Y-93518380D01*
X152480540Y-93516740D01*
X152470750Y-93514450D01*
X152461120Y-93511530D01*
X152451710Y-93507990D01*
X152442550Y-93503840D01*
X152433680Y-93499100D01*
X152425140Y-93493790D01*
X152416960Y-93487930D01*
X152409190Y-93481550D01*
X152401850Y-93474670D01*
X152394970Y-93467330D01*
X152388590Y-93459560D01*
X152382730Y-93451380D01*
X152377420Y-93442840D01*
X152372680Y-93433970D01*
X152368530Y-93424810D01*
X152364990Y-93415400D01*
X152362070Y-93405770D01*
X152359780Y-93395980D01*
X152358150Y-93386050D01*
X152357160Y-93376040D01*
X152356830Y-93365990D01*
X152356830Y-91623390D01*
X152357160Y-91613340D01*
X152358150Y-91603330D01*
X152359780Y-91593400D01*
X152362070Y-91583610D01*
X152364990Y-91573980D01*
X152368530Y-91564570D01*
X152372680Y-91555410D01*
X152377420Y-91546540D01*
X152382730Y-91538000D01*
X152388590Y-91529820D01*
X152394970Y-91522050D01*
X152401850Y-91514710D01*
X152409190Y-91507830D01*
X152416960Y-91501450D01*
X152425140Y-91495590D01*
X152433680Y-91490280D01*
X152442550Y-91485540D01*
X152451710Y-91481390D01*
X152461120Y-91477850D01*
X152470750Y-91474930D01*
X152480540Y-91472640D01*
X152490470Y-91471000D01*
X152500480Y-91470020D01*
X152510530Y-91469690D01*
X152793130Y-91469690D01*
X152803180Y-91470020D01*
G37*
G36*
X142643180Y-82160010D02*
G01*
X142653190Y-82160990D01*
X142663120Y-82162630D01*
X142672910Y-82164920D01*
X142682540Y-82167840D01*
X142691950Y-82171380D01*
X142701110Y-82175530D01*
X142709980Y-82180270D01*
X142718520Y-82185580D01*
X142726700Y-82191440D01*
X142734470Y-82197820D01*
X142741810Y-82204700D01*
X142748690Y-82212040D01*
X142755070Y-82219810D01*
X142760930Y-82227990D01*
X142766240Y-82236530D01*
X142770980Y-82245400D01*
X142775130Y-82254560D01*
X142778670Y-82263970D01*
X142781590Y-82273600D01*
X142783880Y-82283390D01*
X142785510Y-82293320D01*
X142786500Y-82303330D01*
X142786830Y-82313380D01*
X142786830Y-84055980D01*
X142786500Y-84066030D01*
X142785510Y-84076040D01*
X142783880Y-84085970D01*
X142781590Y-84095760D01*
X142778670Y-84105390D01*
X142775130Y-84114800D01*
X142770980Y-84123960D01*
X142766240Y-84132830D01*
X142760930Y-84141370D01*
X142755070Y-84149550D01*
X142748690Y-84157320D01*
X142741810Y-84164660D01*
X142734470Y-84171540D01*
X142726700Y-84177920D01*
X142718520Y-84183780D01*
X142709980Y-84189090D01*
X142701110Y-84193830D01*
X142691950Y-84197980D01*
X142682540Y-84201520D01*
X142672910Y-84204440D01*
X142663120Y-84206730D01*
X142653190Y-84208370D01*
X142643180Y-84209350D01*
X142633130Y-84209680D01*
X142350530Y-84209680D01*
X142340480Y-84209350D01*
X142330470Y-84208370D01*
X142320540Y-84206730D01*
X142310750Y-84204440D01*
X142301120Y-84201520D01*
X142291710Y-84197980D01*
X142282550Y-84193830D01*
X142273680Y-84189090D01*
X142265140Y-84183780D01*
X142256960Y-84177920D01*
X142249190Y-84171540D01*
X142241850Y-84164660D01*
X142234970Y-84157320D01*
X142228590Y-84149550D01*
X142222730Y-84141370D01*
X142217420Y-84132830D01*
X142212680Y-84123960D01*
X142208530Y-84114800D01*
X142204990Y-84105390D01*
X142202070Y-84095760D01*
X142199780Y-84085970D01*
X142198150Y-84076040D01*
X142197160Y-84066030D01*
X142196830Y-84055980D01*
X142196830Y-82313380D01*
X142197160Y-82303330D01*
X142198150Y-82293320D01*
X142199780Y-82283390D01*
X142202070Y-82273600D01*
X142204990Y-82263970D01*
X142208530Y-82254560D01*
X142212680Y-82245400D01*
X142217420Y-82236530D01*
X142222730Y-82227990D01*
X142228590Y-82219810D01*
X142234970Y-82212040D01*
X142241850Y-82204700D01*
X142249190Y-82197820D01*
X142256960Y-82191440D01*
X142265140Y-82185580D01*
X142273680Y-82180270D01*
X142282550Y-82175530D01*
X142291710Y-82171380D01*
X142301120Y-82167840D01*
X142310750Y-82164920D01*
X142320540Y-82162630D01*
X142330470Y-82160990D01*
X142340480Y-82160010D01*
X142350530Y-82159680D01*
X142633130Y-82159680D01*
X142643180Y-82160010D01*
G37*
G36*
X148993180Y-91470010D02*
G01*
X149003190Y-91470990D01*
X149013120Y-91472630D01*
X149022910Y-91474920D01*
X149032540Y-91477840D01*
X149041950Y-91481380D01*
X149051110Y-91485530D01*
X149059980Y-91490270D01*
X149068520Y-91495580D01*
X149076700Y-91501440D01*
X149084470Y-91507820D01*
X149091810Y-91514700D01*
X149098690Y-91522040D01*
X149105070Y-91529810D01*
X149110930Y-91537990D01*
X149116240Y-91546530D01*
X149120980Y-91555400D01*
X149125130Y-91564560D01*
X149128670Y-91573970D01*
X149131590Y-91583600D01*
X149133880Y-91593390D01*
X149135510Y-91603320D01*
X149136500Y-91613330D01*
X149136830Y-91623380D01*
X149136830Y-93365980D01*
X149136500Y-93376030D01*
X149135510Y-93386040D01*
X149133880Y-93395970D01*
X149131590Y-93405760D01*
X149128670Y-93415390D01*
X149125130Y-93424800D01*
X149120980Y-93433960D01*
X149116240Y-93442830D01*
X149110930Y-93451370D01*
X149105070Y-93459550D01*
X149098690Y-93467320D01*
X149091810Y-93474660D01*
X149084470Y-93481540D01*
X149076700Y-93487920D01*
X149068520Y-93493780D01*
X149059980Y-93499090D01*
X149051110Y-93503830D01*
X149041950Y-93507980D01*
X149032540Y-93511520D01*
X149022910Y-93514440D01*
X149013120Y-93516730D01*
X149003190Y-93518370D01*
X148993180Y-93519350D01*
X148983130Y-93519680D01*
X148700530Y-93519680D01*
X148690480Y-93519350D01*
X148680470Y-93518370D01*
X148670540Y-93516730D01*
X148660750Y-93514440D01*
X148651120Y-93511520D01*
X148641710Y-93507980D01*
X148632550Y-93503830D01*
X148623680Y-93499090D01*
X148615140Y-93493780D01*
X148606960Y-93487920D01*
X148599190Y-93481540D01*
X148591850Y-93474660D01*
X148584970Y-93467320D01*
X148578590Y-93459550D01*
X148572730Y-93451370D01*
X148567420Y-93442830D01*
X148562680Y-93433960D01*
X148558530Y-93424800D01*
X148554990Y-93415390D01*
X148552070Y-93405760D01*
X148549780Y-93395970D01*
X148548150Y-93386040D01*
X148547160Y-93376030D01*
X148546830Y-93365980D01*
X148546830Y-91623380D01*
X148547160Y-91613330D01*
X148548150Y-91603320D01*
X148549780Y-91593390D01*
X148552070Y-91583600D01*
X148554990Y-91573970D01*
X148558530Y-91564560D01*
X148562680Y-91555400D01*
X148567420Y-91546530D01*
X148572730Y-91537990D01*
X148578590Y-91529810D01*
X148584970Y-91522040D01*
X148591850Y-91514700D01*
X148599190Y-91507820D01*
X148606960Y-91501440D01*
X148615140Y-91495580D01*
X148623680Y-91490270D01*
X148632550Y-91485530D01*
X148641710Y-91481380D01*
X148651120Y-91477840D01*
X148660750Y-91474920D01*
X148670540Y-91472630D01*
X148680470Y-91470990D01*
X148690480Y-91470010D01*
X148700530Y-91469680D01*
X148983130Y-91469680D01*
X148993180Y-91470010D01*
G37*
G36*
X150263190Y-82160010D02*
G01*
X150273200Y-82160990D01*
X150283130Y-82162630D01*
X150292920Y-82164920D01*
X150302550Y-82167840D01*
X150311960Y-82171380D01*
X150321120Y-82175530D01*
X150329990Y-82180270D01*
X150338530Y-82185580D01*
X150346710Y-82191440D01*
X150354480Y-82197820D01*
X150361820Y-82204700D01*
X150368700Y-82212040D01*
X150375080Y-82219810D01*
X150380940Y-82227990D01*
X150386250Y-82236530D01*
X150390990Y-82245400D01*
X150395140Y-82254560D01*
X150398680Y-82263970D01*
X150401600Y-82273600D01*
X150403890Y-82283390D01*
X150405520Y-82293320D01*
X150406510Y-82303330D01*
X150406840Y-82313380D01*
X150406840Y-84055980D01*
X150406510Y-84066030D01*
X150405520Y-84076040D01*
X150403890Y-84085970D01*
X150401600Y-84095760D01*
X150398680Y-84105390D01*
X150395140Y-84114800D01*
X150390990Y-84123960D01*
X150386250Y-84132830D01*
X150380940Y-84141370D01*
X150375080Y-84149550D01*
X150368700Y-84157320D01*
X150361820Y-84164660D01*
X150354480Y-84171540D01*
X150346710Y-84177920D01*
X150338530Y-84183780D01*
X150329990Y-84189090D01*
X150321120Y-84193830D01*
X150311960Y-84197980D01*
X150302550Y-84201520D01*
X150292920Y-84204440D01*
X150283130Y-84206730D01*
X150273200Y-84208370D01*
X150263190Y-84209350D01*
X150253140Y-84209680D01*
X149970540Y-84209680D01*
X149960490Y-84209350D01*
X149950480Y-84208370D01*
X149940550Y-84206730D01*
X149930760Y-84204440D01*
X149921130Y-84201520D01*
X149911720Y-84197980D01*
X149902560Y-84193830D01*
X149893690Y-84189090D01*
X149885150Y-84183780D01*
X149876970Y-84177920D01*
X149869200Y-84171540D01*
X149861860Y-84164660D01*
X149854980Y-84157320D01*
X149848600Y-84149550D01*
X149842740Y-84141370D01*
X149837430Y-84132830D01*
X149832690Y-84123960D01*
X149828540Y-84114800D01*
X149825000Y-84105390D01*
X149822080Y-84095760D01*
X149819790Y-84085970D01*
X149818160Y-84076040D01*
X149817170Y-84066030D01*
X149816840Y-84055980D01*
X149816840Y-82313380D01*
X149817170Y-82303330D01*
X149818160Y-82293320D01*
X149819790Y-82283390D01*
X149822080Y-82273600D01*
X149825000Y-82263970D01*
X149828540Y-82254560D01*
X149832690Y-82245400D01*
X149837430Y-82236530D01*
X149842740Y-82227990D01*
X149848600Y-82219810D01*
X149854980Y-82212040D01*
X149861860Y-82204700D01*
X149869200Y-82197820D01*
X149876970Y-82191440D01*
X149885150Y-82185580D01*
X149893690Y-82180270D01*
X149902560Y-82175530D01*
X149911720Y-82171380D01*
X149921130Y-82167840D01*
X149930760Y-82164920D01*
X149940550Y-82162630D01*
X149950480Y-82160990D01*
X149960490Y-82160010D01*
X149970540Y-82159680D01*
X150253140Y-82159680D01*
X150263190Y-82160010D01*
G37*
G36*
X146453170Y-91470010D02*
G01*
X146463180Y-91470990D01*
X146473110Y-91472630D01*
X146482900Y-91474920D01*
X146492530Y-91477840D01*
X146501940Y-91481380D01*
X146511100Y-91485530D01*
X146519970Y-91490270D01*
X146528510Y-91495580D01*
X146536690Y-91501440D01*
X146544460Y-91507820D01*
X146551800Y-91514700D01*
X146558680Y-91522040D01*
X146565060Y-91529810D01*
X146570920Y-91537990D01*
X146576230Y-91546530D01*
X146580970Y-91555400D01*
X146585120Y-91564560D01*
X146588660Y-91573970D01*
X146591580Y-91583600D01*
X146593870Y-91593390D01*
X146595500Y-91603320D01*
X146596490Y-91613330D01*
X146596820Y-91623380D01*
X146596820Y-93365980D01*
X146596490Y-93376030D01*
X146595500Y-93386040D01*
X146593870Y-93395970D01*
X146591580Y-93405760D01*
X146588660Y-93415390D01*
X146585120Y-93424800D01*
X146580970Y-93433960D01*
X146576230Y-93442830D01*
X146570920Y-93451370D01*
X146565060Y-93459550D01*
X146558680Y-93467320D01*
X146551800Y-93474660D01*
X146544460Y-93481540D01*
X146536690Y-93487920D01*
X146528510Y-93493780D01*
X146519970Y-93499090D01*
X146511100Y-93503830D01*
X146501940Y-93507980D01*
X146492530Y-93511520D01*
X146482900Y-93514440D01*
X146473110Y-93516730D01*
X146463180Y-93518370D01*
X146453170Y-93519350D01*
X146443120Y-93519680D01*
X146160520Y-93519680D01*
X146150470Y-93519350D01*
X146140460Y-93518370D01*
X146130530Y-93516730D01*
X146120740Y-93514440D01*
X146111110Y-93511520D01*
X146101700Y-93507980D01*
X146092540Y-93503830D01*
X146083670Y-93499090D01*
X146075130Y-93493780D01*
X146066950Y-93487920D01*
X146059180Y-93481540D01*
X146051840Y-93474660D01*
X146044960Y-93467320D01*
X146038580Y-93459550D01*
X146032720Y-93451370D01*
X146027410Y-93442830D01*
X146022670Y-93433960D01*
X146018520Y-93424800D01*
X146014980Y-93415390D01*
X146012060Y-93405760D01*
X146009770Y-93395970D01*
X146008140Y-93386040D01*
X146007150Y-93376030D01*
X146006820Y-93365980D01*
X146006820Y-91623380D01*
X146007150Y-91613330D01*
X146008140Y-91603320D01*
X146009770Y-91593390D01*
X146012060Y-91583600D01*
X146014980Y-91573970D01*
X146018520Y-91564560D01*
X146022670Y-91555400D01*
X146027410Y-91546530D01*
X146032720Y-91537990D01*
X146038580Y-91529810D01*
X146044960Y-91522040D01*
X146051840Y-91514700D01*
X146059180Y-91507820D01*
X146066950Y-91501440D01*
X146075130Y-91495580D01*
X146083670Y-91490270D01*
X146092540Y-91485530D01*
X146101700Y-91481380D01*
X146111110Y-91477840D01*
X146120740Y-91474920D01*
X146130530Y-91472630D01*
X146140460Y-91470990D01*
X146150470Y-91470010D01*
X146160520Y-91469680D01*
X146443120Y-91469680D01*
X146453170Y-91470010D01*
G37*
M02*
