%TF.GenerationSoftware,KiCad,Pcbnew,8.0.2*%
%TF.CreationDate,2024-08-28T15:29:38+05:30*%
%TF.ProjectId,CTF LED matrix,43544620-4c45-4442-906d-61747269782e,rev?*%
%TF.SameCoordinates,Original*%
%TF.FileFunction,Drillmap*%
%TF.FilePolarity,Positive*%
%FSLAX45Y45*%
G04 Gerber Fmt 4.5, Leading zero omitted, Abs format (unit mm)*
G04 Created by KiCad (PCBNEW 8.0.2) date 2024-08-28 15:29:38*
%MOMM*%
%LPD*%
G01*
G04 APERTURE LIST*
%ADD10C,0.050000*%
%ADD11C,0.200000*%
%ADD12C,0.100000*%
G04 APERTURE END LIST*
D10*
X15963844Y-12224703D02*
X15961391Y-12224778D01*
X15968747Y-12224462D02*
X15966297Y-12224597D01*
X15961391Y-12224778D02*
X15958937Y-12224823D01*
X15971196Y-12224296D02*
X15968747Y-12224462D01*
X15966297Y-12224597D02*
X15963844Y-12224703D01*
X15956483Y-12224838D02*
X13306483Y-12224838D01*
X15958937Y-12224823D02*
X15956483Y-12224838D01*
X16111085Y-12151717D02*
X16109517Y-12153604D01*
X16109517Y-12153604D02*
X16107925Y-12155473D01*
X16114152Y-12147884D02*
X16112630Y-12149810D01*
X16117125Y-12143978D02*
X16115650Y-12145940D01*
X16126754Y-12129756D02*
X16125454Y-12131838D01*
X16125454Y-12131838D02*
X16124128Y-12133903D01*
X16118574Y-12141998D02*
X16117125Y-12143978D01*
X16120000Y-12140000D02*
X16118574Y-12141998D01*
X16122777Y-12135952D02*
X16121401Y-12137984D01*
X16128029Y-12127659D02*
X16126754Y-12129756D01*
X16129278Y-12125546D02*
X16128029Y-12127659D01*
X16132867Y-12119117D02*
X16131697Y-12121275D01*
X16136218Y-12112561D02*
X16135128Y-12114760D01*
X16142184Y-12099101D02*
X16141259Y-12101375D01*
X16147871Y-12082895D02*
X16147144Y-12085239D01*
X16148569Y-12080542D02*
X16147871Y-12082895D01*
X16149238Y-12078181D02*
X16148569Y-12080542D01*
X16154318Y-12054184D02*
X16153943Y-12056610D01*
X16154979Y-12049320D02*
X16154664Y-12051754D01*
X16151623Y-12068658D02*
X16151071Y-12071050D01*
X16149878Y-12075811D02*
X16149238Y-12078181D01*
X16155746Y-7407678D02*
X16155941Y-7410125D01*
X16152147Y-12066260D02*
X16151623Y-12068658D01*
X16153104Y-12061446D02*
X16152640Y-12063856D01*
X16154664Y-12051754D02*
X16154318Y-12054184D01*
X16153943Y-12056610D02*
X16153539Y-12059030D01*
X16155264Y-12046882D02*
X16154979Y-12049320D01*
X16134011Y-12116946D02*
X16132867Y-12119117D01*
X16150489Y-12073434D02*
X16149878Y-12075811D01*
X16135128Y-12114760D02*
X16134011Y-12116946D01*
X16138317Y-12108124D02*
X16137281Y-12110349D01*
X16156242Y-12034652D02*
X16156107Y-12037102D01*
X16156423Y-12029746D02*
X16156348Y-12032199D01*
X16141259Y-12101375D02*
X16140306Y-12103636D01*
X16145605Y-12089900D02*
X16144792Y-12092216D01*
X16152640Y-12063856D02*
X16152147Y-12066260D01*
X16155520Y-12044441D02*
X16155264Y-12046882D01*
X16156348Y-12032199D02*
X16156242Y-12034652D01*
X16156107Y-7412574D02*
X16156242Y-7415024D01*
X16156242Y-7415024D02*
X16156348Y-7417477D01*
X16155941Y-7410125D02*
X16156107Y-7412574D01*
X16156423Y-7419930D02*
X16156468Y-7422384D01*
X16155746Y-12041998D02*
X16155520Y-12044441D01*
X16124128Y-12133903D02*
X16122777Y-12135952D01*
X16121401Y-12137984D02*
X16120000Y-12140000D01*
X16143082Y-12096817D02*
X16142184Y-12099101D01*
X16146389Y-12087574D02*
X16145605Y-12089900D01*
X16156348Y-7417477D02*
X16156423Y-7419930D01*
X16156483Y-12024838D02*
X16156468Y-12027292D01*
X16112630Y-12149810D02*
X16111085Y-12151717D01*
X16115650Y-12145940D02*
X16114152Y-12147884D01*
X16139325Y-12105886D02*
X16138317Y-12108124D01*
X16140306Y-12103636D02*
X16139325Y-12105886D01*
X16156468Y-12027292D02*
X16156423Y-12029746D01*
X16156468Y-7422384D02*
X16156483Y-7424838D01*
X16131697Y-12121275D02*
X16130500Y-12123418D01*
X16156483Y-7424838D02*
X16156483Y-12024838D01*
X16137281Y-12110349D02*
X16136218Y-12112561D01*
X16130500Y-12123418D02*
X16129278Y-12125546D01*
X16143951Y-12094522D02*
X16143082Y-12096817D01*
X16144792Y-12092216D02*
X16143951Y-12094522D01*
X16147144Y-12085239D02*
X16146389Y-12087574D01*
X16153539Y-12059030D02*
X16153104Y-12061446D01*
X16151071Y-12071050D02*
X16150489Y-12073434D01*
X16155941Y-12039551D02*
X16155746Y-12041998D01*
X16156107Y-12037102D02*
X16155941Y-12039551D01*
X16155520Y-7405235D02*
X16155746Y-7407678D01*
X16155264Y-7402794D02*
X16155520Y-7405235D01*
X16154979Y-7400356D02*
X16155264Y-7402794D01*
X16145605Y-7359776D02*
X16146389Y-7362102D01*
X16149238Y-7371495D02*
X16149878Y-7373865D01*
X16154664Y-7397922D02*
X16154979Y-7400356D01*
X16154318Y-7395492D02*
X16154664Y-7397922D01*
X16153943Y-7393066D02*
X16154318Y-7395492D01*
X16147871Y-7366781D02*
X16148569Y-7369134D01*
X16153539Y-7390646D02*
X16153943Y-7393066D01*
X16153104Y-7388230D02*
X16153539Y-7390646D01*
X16152640Y-7385820D02*
X16153104Y-7388230D01*
X16152147Y-7383416D02*
X16152640Y-7385820D01*
X16151623Y-7381018D02*
X16152147Y-7383416D01*
X16148569Y-7369134D02*
X16149238Y-7371495D01*
X16142184Y-7350575D02*
X16143082Y-7352859D01*
X16094391Y-7279989D02*
X16096158Y-7281692D01*
X16130500Y-7326258D02*
X16131697Y-7328401D01*
X16151071Y-7378626D02*
X16151623Y-7381018D01*
X16146389Y-7362102D02*
X16147144Y-7364437D01*
X16101332Y-7286930D02*
X16103014Y-7288718D01*
X16150489Y-7376242D02*
X16151071Y-7378626D01*
X16092603Y-7278307D02*
X16094391Y-7279989D01*
X16143082Y-7352859D02*
X16143951Y-7355154D01*
X16149878Y-7373865D02*
X16150489Y-7376242D01*
X16147144Y-7364437D02*
X16147871Y-7366781D01*
X16122777Y-7313724D02*
X16124128Y-7315773D01*
X16111085Y-7297959D02*
X16112630Y-7299866D01*
X16143951Y-7355154D02*
X16144792Y-7357460D01*
X16141259Y-7348301D02*
X16142184Y-7350575D01*
X16134011Y-7332730D02*
X16135128Y-7334916D01*
X16129278Y-7324130D02*
X16130500Y-7326258D01*
X16097904Y-7283417D02*
X16099629Y-7285163D01*
X16140306Y-7346040D02*
X16141259Y-7348301D01*
X16139325Y-7343790D02*
X16140306Y-7346040D01*
X16118574Y-7307678D02*
X16120000Y-7309676D01*
X16085249Y-7271804D02*
X16087118Y-7273396D01*
X16106310Y-7292355D02*
X16107925Y-7294203D01*
X16103014Y-7288718D02*
X16104673Y-7290526D01*
X16109517Y-7296072D02*
X16111085Y-7297959D01*
X16088966Y-7275011D02*
X16090795Y-7276648D01*
X16138317Y-7341552D02*
X16139325Y-7343790D01*
X16136218Y-7337115D02*
X16137281Y-7339327D01*
X16135128Y-7334916D02*
X16136218Y-7337115D01*
X16107925Y-7294203D02*
X16109517Y-7296072D01*
X16132867Y-7330559D02*
X16134011Y-7332730D01*
X16131697Y-7328401D02*
X16132867Y-7330559D01*
X16128029Y-7322017D02*
X16129278Y-7324130D01*
X16124128Y-7315773D02*
X16125454Y-7317838D01*
X16117125Y-7305698D02*
X16118574Y-7307678D01*
X16114152Y-7301792D02*
X16115650Y-7303736D01*
X16115650Y-7303736D02*
X16117125Y-7305698D01*
X16090795Y-7276648D02*
X16092603Y-7278307D01*
X16087118Y-7273396D02*
X16088966Y-7275011D01*
X16112630Y-7299866D02*
X16114152Y-7301792D01*
X16126754Y-7319920D02*
X16128029Y-7322017D01*
X16099629Y-7285163D02*
X16101332Y-7286930D01*
X16104673Y-7290526D02*
X16106310Y-7292355D01*
X16096158Y-7281692D02*
X16097904Y-7283417D01*
X16120000Y-7309676D02*
X16121401Y-7311692D01*
X16125454Y-7317838D02*
X16126754Y-7319920D01*
X16137281Y-7339327D02*
X16138317Y-7341552D01*
X16144792Y-7357460D02*
X16145605Y-7359776D01*
X16121401Y-7311692D02*
X16122777Y-7313724D01*
X15973643Y-12224101D02*
X15971196Y-12224296D01*
X15976086Y-12223875D02*
X15973643Y-12224101D01*
X15978527Y-12223619D02*
X15976086Y-12223875D01*
X15980965Y-12223334D02*
X15978527Y-12223619D01*
X15983399Y-12223019D02*
X15980965Y-12223334D01*
X15985829Y-12222673D02*
X15983399Y-12223019D01*
X15988255Y-12222298D02*
X15985829Y-12222673D01*
X15990675Y-12221894D02*
X15988255Y-12222298D01*
X15995501Y-12220995D02*
X15993091Y-12221459D01*
X16000303Y-12219978D02*
X15997905Y-12220502D01*
X16005079Y-12218844D02*
X16002695Y-12219426D01*
X16007456Y-12218233D02*
X16005079Y-12218844D01*
X16012187Y-12216924D02*
X16009826Y-12217593D01*
X16014540Y-12216226D02*
X16012187Y-12216924D01*
X16016884Y-12215499D02*
X16014540Y-12216226D01*
X16026167Y-12212306D02*
X16023861Y-12213147D01*
X16033020Y-12209614D02*
X16030746Y-12210539D01*
X16035281Y-12208661D02*
X16033020Y-12209614D01*
X16037531Y-12207680D02*
X16035281Y-12208661D01*
X16039769Y-12206672D02*
X16037531Y-12207680D01*
X16044206Y-12204573D02*
X16041994Y-12205636D01*
X16052920Y-12200052D02*
X16050762Y-12201222D01*
X16061401Y-12195109D02*
X16059304Y-12196384D01*
X16050762Y-12201222D02*
X16048591Y-12202366D01*
X16046405Y-12203483D02*
X16044206Y-12204573D01*
X16055063Y-12198855D02*
X16052920Y-12200052D01*
X16063483Y-12193809D02*
X16061401Y-12195109D01*
X16073643Y-12186929D02*
X16071645Y-12188355D01*
X16081455Y-12180985D02*
X16079529Y-12182507D01*
X16097904Y-12166259D02*
X16096158Y-12167984D01*
X16083362Y-12179440D02*
X16081455Y-12180985D01*
X16077585Y-12184005D02*
X16075623Y-12185480D01*
X16079529Y-12182507D02*
X16077585Y-12184005D01*
X16090795Y-12173028D02*
X16088966Y-12174665D01*
X16092603Y-12171369D02*
X16090795Y-12173028D01*
X16096158Y-12167984D02*
X16094391Y-12169687D01*
X16107925Y-12155473D02*
X16106310Y-12157321D01*
X16104673Y-12159150D02*
X16103014Y-12160958D01*
X16057191Y-12197633D02*
X16055063Y-12198855D01*
X16059304Y-12196384D02*
X16057191Y-12197633D01*
X16085249Y-12177872D02*
X16083362Y-12179440D01*
X16103014Y-12160958D02*
X16101332Y-12162746D01*
X16099629Y-12164513D02*
X16097904Y-12166259D01*
X16075623Y-12185480D02*
X16073643Y-12186929D01*
X16094391Y-12169687D02*
X16092603Y-12171369D01*
X16087118Y-12176280D02*
X16085249Y-12177872D01*
X16065548Y-12192483D02*
X16063483Y-12193809D01*
X16019219Y-12214744D02*
X16016884Y-12215499D01*
X16106310Y-12157321D02*
X16104673Y-12159150D01*
X16009826Y-12217593D02*
X16007456Y-12218233D01*
X16023861Y-12213147D02*
X16021545Y-12213960D01*
X16088966Y-12174665D02*
X16087118Y-12176280D01*
X16069629Y-12189756D02*
X16067597Y-12191132D01*
X16041994Y-12205636D02*
X16039769Y-12206672D01*
X15997905Y-12220502D02*
X15995501Y-12220995D01*
X15993091Y-12221459D02*
X15990675Y-12221894D01*
X16030746Y-12210539D02*
X16028462Y-12211437D01*
X16002695Y-12219426D02*
X16000303Y-12219978D01*
X16071645Y-12188355D02*
X16069629Y-12189756D01*
X16101332Y-12162746D02*
X16099629Y-12164513D01*
X16048591Y-12202366D02*
X16046405Y-12203483D01*
X16067597Y-12191132D02*
X16065548Y-12192483D01*
X16021545Y-12213960D02*
X16019219Y-12214744D01*
X16028462Y-12211437D02*
X16026167Y-12212306D01*
X16014540Y-7233450D02*
X16016884Y-7234177D01*
X16055063Y-7250821D02*
X16057191Y-7252043D01*
X16075623Y-7264196D02*
X16077585Y-7265671D01*
X16026167Y-7237370D02*
X16028462Y-7238239D01*
X16030746Y-7239137D02*
X16033020Y-7240062D01*
X16067597Y-7258544D02*
X16069629Y-7259920D01*
X16065548Y-7257193D02*
X16067597Y-7258544D01*
X16052920Y-7249624D02*
X16055063Y-7250821D01*
X16039769Y-7243004D02*
X16041994Y-7244040D01*
X16037531Y-7241996D02*
X16039769Y-7243004D01*
X16035281Y-7241015D02*
X16037531Y-7241996D01*
X16016884Y-7234177D02*
X16019219Y-7234932D01*
X16028462Y-7238239D02*
X16030746Y-7239137D01*
X16083362Y-7270236D02*
X16085249Y-7271804D01*
X16081455Y-7268691D02*
X16083362Y-7270236D01*
X16050762Y-7248454D02*
X16052920Y-7249624D01*
X16077585Y-7265671D02*
X16079529Y-7267169D01*
X16063483Y-7255867D02*
X16065548Y-7257193D01*
X16041994Y-7244040D02*
X16044206Y-7245103D01*
X16046405Y-7246193D02*
X16048591Y-7247310D01*
X16048591Y-7247310D02*
X16050762Y-7248454D01*
X16021545Y-7235716D02*
X16023861Y-7236529D01*
X16073643Y-7262747D02*
X16075623Y-7264196D01*
X16057191Y-7252043D02*
X16059304Y-7253292D01*
X16071645Y-7261321D02*
X16073643Y-7262747D01*
X16059304Y-7253292D02*
X16061401Y-7254567D01*
X16019219Y-7234932D02*
X16021545Y-7235716D01*
X16044206Y-7245103D02*
X16046405Y-7246193D01*
X16023861Y-7236529D02*
X16026167Y-7237370D01*
X16061401Y-7254567D02*
X16063483Y-7255867D01*
X16033020Y-7240062D02*
X16035281Y-7241015D01*
X16079529Y-7267169D02*
X16081455Y-7268691D01*
X16069629Y-7259920D02*
X16071645Y-7261321D01*
X16012187Y-7232752D02*
X16014540Y-7233450D01*
X16009826Y-7232083D02*
X16012187Y-7232752D01*
X16007456Y-7231443D02*
X16009826Y-7232083D01*
X16005079Y-7230832D02*
X16007456Y-7231443D01*
X16002695Y-7230250D02*
X16005079Y-7230832D01*
X16000303Y-7229698D02*
X16002695Y-7230250D01*
X15997905Y-7229174D02*
X16000303Y-7229698D01*
X15990675Y-7227782D02*
X15993091Y-7228217D01*
X15988255Y-7227378D02*
X15990675Y-7227782D01*
X15983399Y-7226657D02*
X15985829Y-7227003D01*
X15978527Y-7226057D02*
X15980965Y-7226342D01*
X15976086Y-7225801D02*
X15978527Y-7226057D01*
X15963844Y-7224973D02*
X15966297Y-7225079D01*
X13299122Y-7224973D02*
X13301575Y-7224898D01*
X13286880Y-7225801D02*
X13289323Y-7225575D01*
X13279567Y-7226657D02*
X13282001Y-7226342D01*
X13232220Y-7239137D02*
X13234504Y-7238239D01*
X13277137Y-7227003D02*
X13279567Y-7226657D01*
X13274711Y-7227378D02*
X13277137Y-7227003D01*
X13246082Y-7234177D02*
X13248426Y-7233450D01*
X13236799Y-7237370D02*
X13239105Y-7236529D01*
X13214375Y-7247310D02*
X13216561Y-7246193D01*
X15973643Y-7225575D02*
X15976086Y-7225801D01*
X13306483Y-7224838D02*
X15956483Y-7224838D01*
X13301575Y-7224898D02*
X13304029Y-7224853D01*
X13250779Y-7232752D02*
X13253140Y-7232083D01*
X15971196Y-7225380D02*
X15973643Y-7225575D01*
X15968747Y-7225214D02*
X15971196Y-7225380D01*
X13262663Y-7229698D02*
X13265061Y-7229174D01*
X13253140Y-7232083D02*
X13255510Y-7231443D01*
X15961391Y-7224898D02*
X15963844Y-7224973D01*
X15956483Y-7224838D02*
X15958937Y-7224853D01*
X13257887Y-7230832D02*
X13260271Y-7230250D01*
X13239105Y-7236529D02*
X13241421Y-7235716D01*
X13282001Y-7226342D02*
X13284439Y-7226057D01*
X13234504Y-7238239D02*
X13236799Y-7237370D01*
X13260271Y-7230250D02*
X13262663Y-7229698D01*
X13255510Y-7231443D02*
X13257887Y-7230832D01*
X13248426Y-7233450D02*
X13250779Y-7232752D01*
X13241421Y-7235716D02*
X13243747Y-7234932D01*
X13229946Y-7240062D02*
X13232220Y-7239137D01*
X13225435Y-7241996D02*
X13227685Y-7241015D01*
X13218760Y-7245103D02*
X13220972Y-7244040D01*
X15966297Y-7225079D02*
X15968747Y-7225214D01*
X15958937Y-7224853D02*
X15961391Y-7224898D01*
X13272291Y-7227782D02*
X13274711Y-7227378D01*
X13289323Y-7225575D02*
X13291770Y-7225380D01*
X13267465Y-7228681D02*
X13269875Y-7228217D01*
X13220972Y-7244040D02*
X13223197Y-7243004D01*
X13216561Y-7246193D02*
X13218760Y-7245103D01*
X13243747Y-7234932D02*
X13246082Y-7234177D01*
X13265061Y-7229174D02*
X13267465Y-7228681D01*
X13223197Y-7243004D02*
X13225435Y-7241996D01*
X15993091Y-7228217D02*
X15995501Y-7228681D01*
X15995501Y-7228681D02*
X15997905Y-7229174D01*
X13269875Y-7228217D02*
X13272291Y-7227782D01*
X15985829Y-7227003D02*
X15988255Y-7227378D01*
X15980965Y-7226342D02*
X15983399Y-7226657D01*
X13294219Y-7225214D02*
X13296669Y-7225079D01*
X13291770Y-7225380D02*
X13294219Y-7225214D01*
X13304029Y-7224853D02*
X13306483Y-7224838D01*
X13296669Y-7225079D02*
X13299122Y-7224973D01*
X13284439Y-7226057D02*
X13286880Y-7225801D01*
X13227685Y-7241015D02*
X13229946Y-7240062D01*
X13153449Y-7296072D02*
X13155041Y-7294203D01*
X13203662Y-7253292D02*
X13205775Y-7252043D01*
X13158293Y-7290526D02*
X13159952Y-7288718D01*
X13199483Y-7255867D02*
X13201565Y-7254567D01*
X13168575Y-7279989D02*
X13170363Y-7278307D01*
X13205775Y-7252043D02*
X13207903Y-7250821D01*
X13181511Y-7268691D02*
X13183437Y-7267169D01*
X13151881Y-7297959D02*
X13153449Y-7296072D01*
X13185381Y-7265671D02*
X13187343Y-7264196D01*
X13183437Y-7267169D02*
X13185381Y-7265671D01*
X13155041Y-7294203D02*
X13156656Y-7292355D01*
X13175848Y-7273396D02*
X13177717Y-7271804D01*
X13212204Y-7248454D02*
X13214375Y-7247310D01*
X13177717Y-7271804D02*
X13179604Y-7270236D01*
X13197418Y-7257193D02*
X13199483Y-7255867D01*
X13166808Y-7281692D02*
X13168575Y-7279989D01*
X13207903Y-7250821D02*
X13210046Y-7249624D01*
X13201565Y-7254567D02*
X13203662Y-7253292D01*
X13195369Y-7258544D02*
X13197418Y-7257193D01*
X13189323Y-7262747D02*
X13191321Y-7261321D01*
X13179604Y-7270236D02*
X13181511Y-7268691D01*
X13172171Y-7276648D02*
X13174000Y-7275011D01*
X13170363Y-7278307D02*
X13172171Y-7276648D01*
X13163337Y-7285163D02*
X13165062Y-7283417D01*
X13156656Y-7292355D02*
X13158293Y-7290526D01*
X13161634Y-7286930D02*
X13163337Y-7285163D01*
X13191321Y-7261321D02*
X13193337Y-7259920D01*
X13210046Y-7249624D02*
X13212204Y-7248454D01*
X13187343Y-7264196D02*
X13189323Y-7262747D01*
X13174000Y-7275011D02*
X13175848Y-7273396D01*
X13193337Y-7259920D02*
X13195369Y-7258544D01*
X13165062Y-7283417D02*
X13166808Y-7281692D01*
X13159952Y-7288718D02*
X13161634Y-7286930D01*
X13142966Y-7309676D02*
X13144392Y-7307678D01*
X13148814Y-7301792D02*
X13150336Y-7299866D01*
X13147316Y-7303736D02*
X13148814Y-7301792D01*
X13144392Y-7307678D02*
X13145841Y-7305698D01*
X13145841Y-7305698D02*
X13147316Y-7303736D01*
X13141565Y-7311692D02*
X13142966Y-7309676D01*
X13137512Y-7317838D02*
X13138838Y-7315773D01*
X13136212Y-7319920D02*
X13137512Y-7317838D01*
X13133688Y-7324130D02*
X13134937Y-7322017D01*
X13134937Y-7322017D02*
X13136212Y-7319920D01*
X13131269Y-7328401D02*
X13132466Y-7326258D01*
X13130099Y-7330559D02*
X13131269Y-7328401D01*
X13124649Y-7341552D02*
X13125685Y-7339327D01*
X13126748Y-7337115D02*
X13127838Y-7334916D01*
X13123641Y-7343790D02*
X13124649Y-7341552D01*
X13117361Y-7359776D02*
X13118174Y-7357460D01*
X13107220Y-7407678D02*
X13107446Y-7405235D01*
X13119015Y-7355154D02*
X13119884Y-7352859D01*
X13116577Y-7362102D02*
X13117361Y-7359776D01*
X13109023Y-7393066D02*
X13109427Y-7390646D01*
X13115822Y-7364437D02*
X13116577Y-7362102D01*
X13107702Y-7402794D02*
X13107987Y-7400356D01*
X13125685Y-7339327D02*
X13126748Y-7337115D01*
X13109862Y-7388230D02*
X13110326Y-7385820D01*
X13106543Y-7419930D02*
X13106618Y-7417477D01*
X13107025Y-12039551D02*
X13106859Y-12037102D01*
X13118174Y-7357460D02*
X13119015Y-7355154D01*
X13112477Y-7376242D02*
X13113088Y-7373865D01*
X13111895Y-7378626D02*
X13112477Y-7376242D01*
X13110326Y-7385820D02*
X13110819Y-7383416D01*
X13111343Y-7381018D02*
X13111895Y-7378626D01*
X13106483Y-12024838D02*
X13106483Y-7424838D01*
X13106498Y-12027292D02*
X13106483Y-12024838D01*
X13107987Y-7400356D02*
X13108302Y-7397922D01*
X13110819Y-7383416D02*
X13111343Y-7381018D01*
X13107446Y-7405235D02*
X13107702Y-7402794D01*
X13109427Y-7390646D02*
X13109862Y-7388230D01*
X13108302Y-7397922D02*
X13108648Y-7395492D01*
X13107025Y-7410125D02*
X13107220Y-7407678D01*
X13106483Y-7424838D02*
X13106498Y-7422384D01*
X13106618Y-12032199D02*
X13106543Y-12029746D01*
X13106724Y-7415024D02*
X13106859Y-7412574D01*
X13127838Y-7334916D02*
X13128955Y-7332730D01*
X13120782Y-7350575D02*
X13121707Y-7348301D01*
X13106859Y-12037102D02*
X13106724Y-12034652D01*
X13115095Y-7366781D02*
X13115822Y-7364437D01*
X13106498Y-7422384D02*
X13106543Y-7419930D01*
X13150336Y-7299866D02*
X13151881Y-7297959D01*
X13138838Y-7315773D02*
X13140189Y-7313724D01*
X13113728Y-7371495D02*
X13114397Y-7369134D01*
X13108648Y-7395492D02*
X13109023Y-7393066D01*
X13113088Y-7373865D02*
X13113728Y-7371495D01*
X13106618Y-7417477D02*
X13106724Y-7415024D01*
X13140189Y-7313724D02*
X13141565Y-7311692D01*
X13122660Y-7346040D02*
X13123641Y-7343790D01*
X13114397Y-7369134D02*
X13115095Y-7366781D01*
X13121707Y-7348301D02*
X13122660Y-7346040D01*
X13132466Y-7326258D02*
X13133688Y-7324130D01*
X13128955Y-7332730D02*
X13130099Y-7330559D01*
X13106724Y-12034652D02*
X13106618Y-12032199D01*
X13107220Y-12041998D02*
X13107025Y-12039551D01*
X13106543Y-12029746D02*
X13106498Y-12027292D01*
X13119884Y-7352859D02*
X13120782Y-7350575D01*
X13106859Y-7412574D02*
X13107025Y-7410125D01*
X13128955Y-12116946D02*
X13127838Y-12114760D01*
X13119015Y-12094522D02*
X13118174Y-12092216D01*
X13127838Y-12114760D02*
X13126748Y-12112561D01*
X13114397Y-12080542D02*
X13113728Y-12078181D01*
X13124649Y-12108124D02*
X13123641Y-12105886D01*
X13123641Y-12105886D02*
X13122660Y-12103636D01*
X13109862Y-12061446D02*
X13109427Y-12059030D01*
X13122660Y-12103636D02*
X13121707Y-12101375D01*
X13120782Y-12099101D02*
X13119884Y-12096817D01*
X13125685Y-12110349D02*
X13124649Y-12108124D01*
X13111895Y-12071050D02*
X13111343Y-12068658D01*
X13107446Y-12044441D02*
X13107220Y-12041998D01*
X13111343Y-12068658D02*
X13110819Y-12066260D01*
X13107702Y-12046882D02*
X13107446Y-12044441D01*
X13115095Y-12082895D02*
X13114397Y-12080542D01*
X13130099Y-12119117D02*
X13128955Y-12116946D01*
X13126748Y-12112561D02*
X13125685Y-12110349D01*
X13107987Y-12049320D02*
X13107702Y-12046882D01*
X13108648Y-12054184D02*
X13108302Y-12051754D01*
X13110819Y-12066260D02*
X13110326Y-12063856D01*
X13113088Y-12075811D02*
X13112477Y-12073434D01*
X13113728Y-12078181D02*
X13113088Y-12075811D01*
X13116577Y-12087574D02*
X13115822Y-12085239D01*
X13119884Y-12096817D02*
X13119015Y-12094522D01*
X13117361Y-12089900D02*
X13116577Y-12087574D01*
X13109023Y-12056610D02*
X13108648Y-12054184D01*
X13108302Y-12051754D02*
X13107987Y-12049320D01*
X13109427Y-12059030D02*
X13109023Y-12056610D01*
X13112477Y-12073434D02*
X13111895Y-12071050D01*
X13110326Y-12063856D02*
X13109862Y-12061446D01*
X13115822Y-12085239D02*
X13115095Y-12082895D01*
X13118174Y-12092216D02*
X13117361Y-12089900D01*
X13121707Y-12101375D02*
X13120782Y-12099101D01*
X13132466Y-12123418D02*
X13131269Y-12121275D01*
X13131269Y-12121275D02*
X13130099Y-12119117D01*
X13133688Y-12125546D02*
X13132466Y-12123418D01*
X13136212Y-12129756D02*
X13134937Y-12127659D01*
X13137512Y-12131838D02*
X13136212Y-12129756D01*
X13138838Y-12133903D02*
X13137512Y-12131838D01*
X13140189Y-12135952D02*
X13138838Y-12133903D01*
X13165062Y-12166259D02*
X13163337Y-12164513D01*
X13163337Y-12164513D02*
X13161634Y-12162746D01*
X13141565Y-12137984D02*
X13140189Y-12135952D01*
X13144392Y-12141998D02*
X13142966Y-12140000D01*
X13145841Y-12143978D02*
X13144392Y-12141998D01*
X13147316Y-12145940D02*
X13145841Y-12143978D01*
X13148814Y-12147884D02*
X13147316Y-12145940D01*
X13168575Y-12169687D02*
X13166808Y-12167984D01*
X13153449Y-12153604D02*
X13151881Y-12151717D01*
X13203662Y-12196384D02*
X13201565Y-12195109D01*
X13210046Y-12200052D02*
X13207903Y-12198855D01*
X13234504Y-12211437D02*
X13232220Y-12210539D01*
X13185381Y-12184005D02*
X13183437Y-12182507D01*
X13166808Y-12167984D02*
X13165062Y-12166259D01*
X13161634Y-12162746D02*
X13159952Y-12160958D01*
X13181511Y-12180985D02*
X13179604Y-12179440D01*
X13197418Y-12192483D02*
X13195369Y-12191132D01*
X13207903Y-12198855D02*
X13205775Y-12197633D01*
X13189323Y-12186929D02*
X13187343Y-12185480D01*
X13150336Y-12149810D02*
X13148814Y-12147884D01*
X13248426Y-12216226D02*
X13246082Y-12215499D01*
X13151881Y-12151717D02*
X13150336Y-12149810D01*
X13155041Y-12155473D02*
X13153449Y-12153604D01*
X13156656Y-12157321D02*
X13155041Y-12155473D01*
X13227685Y-12208661D02*
X13225435Y-12207680D01*
X13158293Y-12159150D02*
X13156656Y-12157321D01*
X13236799Y-12212306D02*
X13234504Y-12211437D01*
X13159952Y-12160958D02*
X13158293Y-12159150D01*
X13174000Y-12174665D02*
X13172171Y-12173028D01*
X13175848Y-12176280D02*
X13174000Y-12174665D01*
X13187343Y-12185480D02*
X13185381Y-12184005D01*
X13214375Y-12202366D02*
X13212204Y-12201222D01*
X13177717Y-12177872D02*
X13175848Y-12176280D01*
X13183437Y-12182507D02*
X13181511Y-12180985D01*
X13201565Y-12195109D02*
X13199483Y-12193809D01*
X13191321Y-12188355D02*
X13189323Y-12186929D01*
X13223197Y-12206672D02*
X13220972Y-12205636D01*
X13218760Y-12204573D02*
X13216561Y-12203483D01*
X13179604Y-12179440D02*
X13177717Y-12177872D01*
X13216561Y-12203483D02*
X13214375Y-12202366D01*
X13195369Y-12191132D02*
X13193337Y-12189756D01*
X13172171Y-12173028D02*
X13170363Y-12171369D01*
X13212204Y-12201222D02*
X13210046Y-12200052D01*
X13134937Y-12127659D02*
X13133688Y-12125546D01*
X13142966Y-12140000D02*
X13141565Y-12137984D01*
X13205775Y-12197633D02*
X13203662Y-12196384D01*
X13246082Y-12215499D02*
X13243747Y-12214744D01*
X13193337Y-12189756D02*
X13191321Y-12188355D01*
X13199483Y-12193809D02*
X13197418Y-12192483D01*
X13225435Y-12207680D02*
X13223197Y-12206672D01*
X13241421Y-12213960D02*
X13239105Y-12213147D01*
X13229946Y-12209614D02*
X13227685Y-12208661D01*
X13232220Y-12210539D02*
X13229946Y-12209614D01*
X13239105Y-12213147D02*
X13236799Y-12212306D01*
X13243747Y-12214744D02*
X13241421Y-12213960D01*
X13220972Y-12205636D02*
X13218760Y-12204573D01*
X13170363Y-12171369D02*
X13168575Y-12169687D01*
X13265061Y-12220502D02*
X13262663Y-12219978D01*
X13279567Y-12223019D02*
X13277137Y-12222673D01*
X13289323Y-12224101D02*
X13286880Y-12223875D01*
X13304029Y-12224823D02*
X13301575Y-12224778D01*
X13291770Y-12224296D02*
X13289323Y-12224101D01*
X13286880Y-12223875D02*
X13284439Y-12223619D01*
X13257887Y-12218844D02*
X13255510Y-12218233D01*
X13260271Y-12219426D02*
X13257887Y-12218844D01*
X13269875Y-12221459D02*
X13267465Y-12220995D01*
X13274711Y-12222298D02*
X13272291Y-12221894D01*
X13262663Y-12219978D02*
X13260271Y-12219426D01*
X13296669Y-12224597D02*
X13294219Y-12224462D01*
X13250779Y-12216924D02*
X13248426Y-12216226D01*
X13267465Y-12220995D02*
X13265061Y-12220502D01*
X13282001Y-12223334D02*
X13279567Y-12223019D01*
X13299122Y-12224703D02*
X13296669Y-12224597D01*
X13294219Y-12224462D02*
X13291770Y-12224296D01*
X13284439Y-12223619D02*
X13282001Y-12223334D01*
X13306483Y-12224838D02*
X13304029Y-12224823D01*
X13277137Y-12222673D02*
X13274711Y-12222298D01*
X13253140Y-12217593D02*
X13250779Y-12216924D01*
X13255510Y-12218233D02*
X13253140Y-12217593D01*
X13272291Y-12221894D02*
X13269875Y-12221459D01*
X13301575Y-12224778D02*
X13299122Y-12224703D01*
D11*
D12*
X13201683Y-10011038D02*
X13231683Y-10041038D01*
X13231683Y-10011038D02*
X13201683Y-10041038D01*
X13226783Y-9445738D02*
X13256783Y-9475738D01*
X13256783Y-9445738D02*
X13226783Y-9475738D01*
X13242183Y-8765938D02*
X13272183Y-8795938D01*
X13272183Y-8765938D02*
X13242183Y-8795938D01*
X13298083Y-9723438D02*
X13328083Y-9753438D01*
X13328083Y-9723438D02*
X13298083Y-9753438D01*
X13326283Y-8299738D02*
X13356283Y-8329738D01*
X13356283Y-8299738D02*
X13326283Y-8329738D01*
X13344183Y-10604238D02*
X13374183Y-10634238D01*
X13374183Y-10604238D02*
X13344183Y-10634238D01*
X13370483Y-9539838D02*
X13400483Y-9569838D01*
X13400483Y-9539838D02*
X13370483Y-9569838D01*
X13375983Y-10988538D02*
X13405983Y-11018538D01*
X13405983Y-10988538D02*
X13375983Y-11018538D01*
X13386183Y-10348538D02*
X13416183Y-10378538D01*
X13416183Y-10348538D02*
X13386183Y-10378538D01*
X13403583Y-11807638D02*
X13433583Y-11837638D01*
X13433583Y-11807638D02*
X13403583Y-11837638D01*
X13419783Y-11267138D02*
X13449783Y-11297138D01*
X13449783Y-11267138D02*
X13419783Y-11297138D01*
X13436883Y-12079338D02*
X13466883Y-12109338D01*
X13466883Y-12079338D02*
X13436883Y-12109338D01*
X13489783Y-8178638D02*
X13519783Y-8208638D01*
X13519783Y-8178638D02*
X13489783Y-8208638D01*
X13515183Y-8560738D02*
X13545183Y-8590738D01*
X13545183Y-8560738D02*
X13515183Y-8590738D01*
X13590883Y-9082538D02*
X13620883Y-9112538D01*
X13620883Y-9082538D02*
X13590883Y-9112538D01*
X13603383Y-7887938D02*
X13633383Y-7917938D01*
X13633383Y-7887938D02*
X13603383Y-7917938D01*
X13670083Y-10471238D02*
X13700083Y-10501238D01*
X13700083Y-10471238D02*
X13670083Y-10501238D01*
X13671783Y-10747138D02*
X13701783Y-10777138D01*
X13701783Y-10747138D02*
X13671783Y-10777138D01*
X13674383Y-11642638D02*
X13704383Y-11672638D01*
X13704383Y-11642638D02*
X13674383Y-11672638D01*
X13674383Y-11938038D02*
X13704383Y-11968038D01*
X13704383Y-11938038D02*
X13674383Y-11968038D01*
X13677283Y-11057338D02*
X13707283Y-11087338D01*
X13707283Y-11057338D02*
X13677283Y-11087338D01*
X13678183Y-11344138D02*
X13708183Y-11374138D01*
X13708183Y-11344138D02*
X13678183Y-11374138D01*
X13678383Y-10174738D02*
X13708383Y-10204738D01*
X13708383Y-10174738D02*
X13678383Y-10204738D01*
X13682983Y-9871038D02*
X13712983Y-9901038D01*
X13712983Y-9871038D02*
X13682983Y-9901038D01*
X13688883Y-9317038D02*
X13718883Y-9347038D01*
X13718883Y-9317038D02*
X13688883Y-9347038D01*
X13767583Y-8429438D02*
X13797583Y-8459438D01*
X13797583Y-8429438D02*
X13767583Y-8459438D01*
X13875483Y-7948838D02*
X13905483Y-7978838D01*
X13905483Y-7948838D02*
X13875483Y-7978838D01*
X13936583Y-7311538D02*
X13966583Y-7341538D01*
X13966583Y-7311538D02*
X13936583Y-7341538D01*
X13969983Y-11350438D02*
X13999983Y-11380438D01*
X13999983Y-11350438D02*
X13969983Y-11380438D01*
X13971983Y-11054638D02*
X14001983Y-11084638D01*
X14001983Y-11054638D02*
X13971983Y-11084638D01*
X13973283Y-10760138D02*
X14003283Y-10790138D01*
X14003283Y-10760138D02*
X13973283Y-10790138D01*
X13973383Y-10172538D02*
X14003383Y-10202538D01*
X14003383Y-10172538D02*
X13973383Y-10202538D01*
X13973583Y-10465238D02*
X14003583Y-10495238D01*
X14003583Y-10465238D02*
X13973583Y-10495238D01*
X13973983Y-9878538D02*
X14003983Y-9908538D01*
X14003983Y-9878538D02*
X13973983Y-9908538D01*
X13975083Y-11934938D02*
X14005083Y-11964938D01*
X14005083Y-11934938D02*
X13975083Y-11964938D01*
X13975583Y-11643238D02*
X14005583Y-11673238D01*
X14005583Y-11643238D02*
X13975583Y-11673238D01*
X13986483Y-8899338D02*
X14016483Y-8929338D01*
X14016483Y-8899338D02*
X13986483Y-8929338D01*
X14005283Y-9055938D02*
X14035283Y-9085938D01*
X14035283Y-9055938D02*
X14005283Y-9085938D01*
X14033083Y-8047738D02*
X14063083Y-8077738D01*
X14063083Y-8047738D02*
X14033083Y-8077738D01*
X14073983Y-10515638D02*
X14103983Y-10545638D01*
X14103983Y-10515638D02*
X14073983Y-10545638D01*
X14073983Y-11103438D02*
X14103983Y-11133438D01*
X14103983Y-11103438D02*
X14073983Y-11133438D01*
X14073983Y-11397538D02*
X14103983Y-11427538D01*
X14103983Y-11397538D02*
X14073983Y-11427538D01*
X14074083Y-10809638D02*
X14104083Y-10839638D01*
X14104083Y-10809638D02*
X14074083Y-10839638D01*
X14074283Y-10221738D02*
X14104283Y-10251738D01*
X14104283Y-10221738D02*
X14074283Y-10251738D01*
X14074483Y-11986138D02*
X14104483Y-12016138D01*
X14104483Y-11986138D02*
X14074483Y-12016138D01*
X14074583Y-9927838D02*
X14104583Y-9957838D01*
X14104583Y-9927838D02*
X14074583Y-9957838D01*
X14075283Y-11692638D02*
X14105283Y-11722638D01*
X14105283Y-11692638D02*
X14075283Y-11722638D01*
X14100483Y-8992038D02*
X14130483Y-9022038D01*
X14130483Y-8992038D02*
X14100483Y-9022038D01*
X14102283Y-9459838D02*
X14132283Y-9489838D01*
X14132283Y-9459838D02*
X14102283Y-9489838D01*
X14106383Y-8613238D02*
X14136383Y-8643238D01*
X14136383Y-8613238D02*
X14106383Y-8643238D01*
X14120483Y-7868638D02*
X14150483Y-7898638D01*
X14150483Y-7868638D02*
X14120483Y-7898638D01*
X14201683Y-9498438D02*
X14231683Y-9528438D01*
X14231683Y-9498438D02*
X14201683Y-9528438D01*
X14207283Y-8043038D02*
X14237283Y-8073038D01*
X14237283Y-8043038D02*
X14207283Y-8073038D01*
X14238983Y-7858338D02*
X14268983Y-7888338D01*
X14268983Y-7858338D02*
X14238983Y-7888338D01*
X14271483Y-10173138D02*
X14301483Y-10203138D01*
X14301483Y-10173138D02*
X14271483Y-10203138D01*
X14273083Y-10466838D02*
X14303083Y-10496838D01*
X14303083Y-10466838D02*
X14273083Y-10496838D01*
X14273283Y-10760438D02*
X14303283Y-10790438D01*
X14303283Y-10760438D02*
X14273283Y-10790438D01*
X14273383Y-11643938D02*
X14303383Y-11673938D01*
X14303383Y-11643938D02*
X14273383Y-11673938D01*
X14273483Y-9878938D02*
X14303483Y-9908938D01*
X14303483Y-9878938D02*
X14273483Y-9908938D01*
X14273483Y-11348738D02*
X14303483Y-11378738D01*
X14303483Y-11348738D02*
X14273483Y-11378738D01*
X14273683Y-11055138D02*
X14303683Y-11085138D01*
X14303683Y-11055138D02*
X14273683Y-11085138D01*
X14273783Y-11938438D02*
X14303783Y-11968438D01*
X14303783Y-11938438D02*
X14273783Y-11968438D01*
X14274883Y-9578538D02*
X14304883Y-9608538D01*
X14304883Y-9578538D02*
X14274883Y-9608538D01*
X14280683Y-8530538D02*
X14310683Y-8560538D01*
X14310683Y-8530538D02*
X14280683Y-8560538D01*
X14353683Y-9419038D02*
X14383683Y-9449038D01*
X14383683Y-9419038D02*
X14353683Y-9449038D01*
X14364883Y-9935938D02*
X14394883Y-9965938D01*
X14394883Y-9935938D02*
X14364883Y-9965938D01*
X14373583Y-10221338D02*
X14403583Y-10251338D01*
X14403583Y-10221338D02*
X14373583Y-10251338D01*
X14374183Y-10515738D02*
X14404183Y-10545738D01*
X14404183Y-10515738D02*
X14374183Y-10545738D01*
X14374183Y-10809738D02*
X14404183Y-10839738D01*
X14404183Y-10809738D02*
X14374183Y-10839738D01*
X14374383Y-11397738D02*
X14404383Y-11427738D01*
X14404383Y-11397738D02*
X14374383Y-11427738D01*
X14374483Y-11692038D02*
X14404483Y-11722038D01*
X14404483Y-11692038D02*
X14374483Y-11722038D01*
X14374583Y-11103938D02*
X14404583Y-11133938D01*
X14404583Y-11103938D02*
X14374583Y-11133938D01*
X14374783Y-11986338D02*
X14404783Y-12016338D01*
X14404783Y-11986338D02*
X14374783Y-12016338D01*
X14445283Y-9461338D02*
X14475283Y-9491338D01*
X14475283Y-9461338D02*
X14445283Y-9491338D01*
X14488183Y-8140538D02*
X14518183Y-8170538D01*
X14518183Y-8140538D02*
X14488183Y-8170538D01*
X14495183Y-7876138D02*
X14525183Y-7906138D01*
X14525183Y-7876138D02*
X14495183Y-7906138D01*
X14536183Y-9511038D02*
X14566183Y-9541038D01*
X14566183Y-9511038D02*
X14536183Y-9541038D01*
X14573183Y-10170838D02*
X14603183Y-10200838D01*
X14603183Y-10170838D02*
X14573183Y-10200838D01*
X14573583Y-10760538D02*
X14603583Y-10790538D01*
X14603583Y-10760538D02*
X14573583Y-10790538D01*
X14573583Y-11936638D02*
X14603583Y-11966638D01*
X14603583Y-11936638D02*
X14573583Y-11966638D01*
X14573683Y-11350238D02*
X14603683Y-11380238D01*
X14603683Y-11350238D02*
X14573683Y-11380238D01*
X14573783Y-9877738D02*
X14603783Y-9907738D01*
X14603783Y-9877738D02*
X14573783Y-9907738D01*
X14573783Y-11054038D02*
X14603783Y-11084038D01*
X14603783Y-11054038D02*
X14573783Y-11084038D01*
X14573983Y-10465738D02*
X14603983Y-10495738D01*
X14603983Y-10465738D02*
X14573983Y-10495738D01*
X14575083Y-11641638D02*
X14605083Y-11671638D01*
X14605083Y-11641638D02*
X14575083Y-11671638D01*
X14594783Y-7534238D02*
X14624783Y-7564238D01*
X14624783Y-7534238D02*
X14594783Y-7564238D01*
X14615783Y-8142438D02*
X14645783Y-8172438D01*
X14645783Y-8142438D02*
X14615783Y-8172438D01*
X14654683Y-9499838D02*
X14684683Y-9529838D01*
X14684683Y-9499838D02*
X14654683Y-9529838D01*
X14673583Y-10222138D02*
X14703583Y-10252138D01*
X14703583Y-10222138D02*
X14673583Y-10252138D01*
X14674183Y-10516738D02*
X14704183Y-10546738D01*
X14704183Y-10516738D02*
X14674183Y-10546738D01*
X14674283Y-10810738D02*
X14704283Y-10840738D01*
X14704283Y-10810738D02*
X14674283Y-10840738D01*
X14674283Y-11104738D02*
X14704283Y-11134738D01*
X14704283Y-11104738D02*
X14674283Y-11134738D01*
X14674283Y-11986838D02*
X14704283Y-12016838D01*
X14704283Y-11986838D02*
X14674283Y-12016838D01*
X14674683Y-11399138D02*
X14704683Y-11429138D01*
X14704683Y-11399138D02*
X14674683Y-11429138D01*
X14674683Y-11693038D02*
X14704683Y-11723038D01*
X14704683Y-11693038D02*
X14674683Y-11723038D01*
X14738783Y-8145738D02*
X14768783Y-8175738D01*
X14768783Y-8145738D02*
X14738783Y-8175738D01*
X14748983Y-7426738D02*
X14778983Y-7456738D01*
X14778983Y-7426738D02*
X14748983Y-7456738D01*
X14808683Y-7690038D02*
X14838683Y-7720038D01*
X14838683Y-7690038D02*
X14808683Y-7720038D01*
X14825783Y-8443938D02*
X14855783Y-8473938D01*
X14855783Y-8443938D02*
X14825783Y-8473938D01*
X14872783Y-8950138D02*
X14902783Y-8980138D01*
X14902783Y-8950138D02*
X14872783Y-8980138D01*
X14873283Y-11936538D02*
X14903283Y-11966538D01*
X14903283Y-11936538D02*
X14873283Y-11966538D01*
X14873383Y-10466938D02*
X14903383Y-10496938D01*
X14903383Y-10466938D02*
X14873383Y-10496938D01*
X14873383Y-11643238D02*
X14903383Y-11673238D01*
X14903383Y-11643238D02*
X14873383Y-11673238D01*
X14873783Y-11054838D02*
X14903783Y-11084838D01*
X14903783Y-11054838D02*
X14873783Y-11084838D01*
X14873783Y-11348638D02*
X14903783Y-11378638D01*
X14903783Y-11348638D02*
X14873783Y-11378638D01*
X14873883Y-9879038D02*
X14903883Y-9909038D01*
X14903883Y-9879038D02*
X14873883Y-9909038D01*
X14873883Y-10172538D02*
X14903883Y-10202538D01*
X14903883Y-10172538D02*
X14873883Y-10202538D01*
X14874083Y-10759938D02*
X14904083Y-10789938D01*
X14904083Y-10759938D02*
X14874083Y-10789938D01*
X14879683Y-9407338D02*
X14909683Y-9437338D01*
X14909683Y-9407338D02*
X14879683Y-9437338D01*
X14973983Y-11986738D02*
X15003983Y-12016738D01*
X15003983Y-11986738D02*
X14973983Y-12016738D01*
X14974183Y-10516738D02*
X15004183Y-10546738D01*
X15004183Y-10516738D02*
X14974183Y-10546738D01*
X14974283Y-10810738D02*
X15004283Y-10840738D01*
X15004283Y-10810738D02*
X14974283Y-10840738D01*
X14974283Y-11692738D02*
X15004283Y-11722738D01*
X15004283Y-11692738D02*
X14974283Y-11722738D01*
X14974383Y-10222838D02*
X15004383Y-10252838D01*
X15004383Y-10222838D02*
X14974383Y-10252838D01*
X14974383Y-11398838D02*
X15004383Y-11428838D01*
X15004383Y-11398838D02*
X14974383Y-11428838D01*
X14974483Y-9928838D02*
X15004483Y-9958838D01*
X15004483Y-9928838D02*
X14974483Y-9958838D01*
X14974483Y-11104838D02*
X15004483Y-11134838D01*
X15004483Y-11104838D02*
X14974483Y-11134838D01*
X14993083Y-8473638D02*
X15023083Y-8503638D01*
X15023083Y-8473638D02*
X14993083Y-8503638D01*
X15028683Y-8943538D02*
X15058683Y-8973538D01*
X15058683Y-8943538D02*
X15028683Y-8973538D01*
X15066883Y-9649338D02*
X15096883Y-9679338D01*
X15096883Y-9649338D02*
X15066883Y-9679338D01*
X15122883Y-9414838D02*
X15152883Y-9444838D01*
X15152883Y-9414838D02*
X15122883Y-9444838D01*
X15131083Y-8779738D02*
X15161083Y-8809738D01*
X15161083Y-8779738D02*
X15131083Y-8809738D01*
X15133283Y-8779238D02*
X15163283Y-8809238D01*
X15163283Y-8779238D02*
X15133283Y-8809238D01*
X15149983Y-7962838D02*
X15179983Y-7992838D01*
X15179983Y-7962838D02*
X15149983Y-7992838D01*
X15173383Y-11642538D02*
X15203383Y-11672538D01*
X15203383Y-11642538D02*
X15173383Y-11672538D01*
X15173783Y-9878938D02*
X15203783Y-9908938D01*
X15203783Y-9878938D02*
X15173783Y-9908938D01*
X15173883Y-10466238D02*
X15203883Y-10496238D01*
X15203883Y-10466238D02*
X15173883Y-10496238D01*
X15173983Y-11349238D02*
X15203983Y-11379238D01*
X15203983Y-11349238D02*
X15173983Y-11379238D01*
X15174083Y-11055138D02*
X15204083Y-11085138D01*
X15204083Y-11055138D02*
X15174083Y-11085138D01*
X15174283Y-10173038D02*
X15204283Y-10203038D01*
X15204283Y-10173038D02*
X15174283Y-10203038D01*
X15174283Y-11937038D02*
X15204283Y-11967038D01*
X15204283Y-11937038D02*
X15174283Y-11967038D01*
X15174483Y-10761038D02*
X15204483Y-10791038D01*
X15204483Y-10761038D02*
X15174483Y-10791038D01*
X15253983Y-9431338D02*
X15283983Y-9461338D01*
X15283983Y-9431338D02*
X15253983Y-9461338D01*
X15261683Y-8519638D02*
X15291683Y-8549638D01*
X15291683Y-8519638D02*
X15261683Y-8549638D01*
X15274183Y-10516738D02*
X15304183Y-10546738D01*
X15304183Y-10516738D02*
X15274183Y-10546738D01*
X15274183Y-11692738D02*
X15304183Y-11722738D01*
X15304183Y-11692738D02*
X15274183Y-11722738D01*
X15274483Y-9928838D02*
X15304483Y-9958838D01*
X15304483Y-9928838D02*
X15274483Y-9958838D01*
X15274483Y-11987138D02*
X15304483Y-12017138D01*
X15304483Y-11987138D02*
X15274483Y-12017138D01*
X15274583Y-10222938D02*
X15304583Y-10252938D01*
X15304583Y-10222938D02*
X15274583Y-10252938D01*
X15274583Y-11399038D02*
X15304583Y-11429038D01*
X15304583Y-11399038D02*
X15274583Y-11429038D01*
X15274683Y-10811038D02*
X15304683Y-10841038D01*
X15304683Y-10811038D02*
X15274683Y-10841038D01*
X15274683Y-11105038D02*
X15304683Y-11135038D01*
X15304683Y-11105038D02*
X15274683Y-11135038D01*
X15315483Y-9250838D02*
X15345483Y-9280838D01*
X15345483Y-9250838D02*
X15315483Y-9280838D01*
X15346383Y-7996638D02*
X15376383Y-8026638D01*
X15376383Y-7996638D02*
X15346383Y-8026638D01*
X15347283Y-8111938D02*
X15377283Y-8141938D01*
X15377283Y-8111938D02*
X15347283Y-8141938D01*
X15416983Y-9551838D02*
X15446983Y-9581838D01*
X15446983Y-9551838D02*
X15416983Y-9581838D01*
X15455283Y-9238338D02*
X15485283Y-9268338D01*
X15485283Y-9238338D02*
X15455283Y-9268338D01*
X15473283Y-10466838D02*
X15503283Y-10496838D01*
X15503283Y-10466838D02*
X15473283Y-10496838D01*
X15473783Y-9878238D02*
X15503783Y-9908238D01*
X15503783Y-9878238D02*
X15473783Y-9908238D01*
X15473783Y-11642638D02*
X15503783Y-11672638D01*
X15503783Y-11642638D02*
X15473783Y-11672638D01*
X15474283Y-11936938D02*
X15504283Y-11966938D01*
X15504283Y-11936938D02*
X15474283Y-11966938D01*
X15474383Y-11054638D02*
X15504383Y-11084638D01*
X15504383Y-11054638D02*
X15474383Y-11084638D01*
X15474383Y-11348538D02*
X15504383Y-11378538D01*
X15504383Y-11348538D02*
X15474383Y-11378538D01*
X15474983Y-10172538D02*
X15504983Y-10202538D01*
X15504983Y-10172538D02*
X15474983Y-10202538D01*
X15474983Y-10759538D02*
X15504983Y-10789538D01*
X15504983Y-10759538D02*
X15474983Y-10789538D01*
X15514183Y-8447138D02*
X15544183Y-8477138D01*
X15544183Y-8447138D02*
X15514183Y-8477138D01*
X15574083Y-10516638D02*
X15604083Y-10546638D01*
X15604083Y-10516638D02*
X15574083Y-10546638D01*
X15574283Y-9928638D02*
X15604283Y-9958638D01*
X15604283Y-9928638D02*
X15574283Y-9958638D01*
X15574283Y-11692838D02*
X15604283Y-11722838D01*
X15604283Y-11692838D02*
X15574283Y-11722838D01*
X15574583Y-10811038D02*
X15604583Y-10841038D01*
X15604583Y-10811038D02*
X15574583Y-10841038D01*
X15574583Y-11105038D02*
X15604583Y-11135038D01*
X15604583Y-11105038D02*
X15574583Y-11135038D01*
X15574583Y-11398938D02*
X15604583Y-11428938D01*
X15604583Y-11398938D02*
X15574583Y-11428938D01*
X15574583Y-11987138D02*
X15604583Y-12017138D01*
X15604583Y-11987138D02*
X15574583Y-12017138D01*
X15574783Y-10223038D02*
X15604783Y-10253038D01*
X15604783Y-10223038D02*
X15574783Y-10253038D01*
X15610783Y-8986538D02*
X15640783Y-9016538D01*
X15640783Y-8986538D02*
X15610783Y-9016538D01*
X15628083Y-8210338D02*
X15658083Y-8240338D01*
X15658083Y-8210338D02*
X15628083Y-8240338D01*
X15637183Y-8647638D02*
X15667183Y-8677638D01*
X15667183Y-8647638D02*
X15637183Y-8677638D01*
X15648983Y-8452338D02*
X15678983Y-8482338D01*
X15678983Y-8452338D02*
X15648983Y-8482338D01*
X15663883Y-9395738D02*
X15693883Y-9425738D01*
X15693883Y-9395738D02*
X15663883Y-9425738D01*
X15770183Y-11935238D02*
X15800183Y-11965238D01*
X15800183Y-11935238D02*
X15770183Y-11965238D01*
X15772783Y-9877038D02*
X15802783Y-9907038D01*
X15802783Y-9877038D02*
X15772783Y-9907038D01*
X15773183Y-10172538D02*
X15803183Y-10202538D01*
X15803183Y-10172538D02*
X15773183Y-10202538D01*
X15773183Y-11351938D02*
X15803183Y-11381938D01*
X15803183Y-11351938D02*
X15773183Y-11381938D01*
X15773583Y-10466538D02*
X15803583Y-10496538D01*
X15803583Y-10466538D02*
X15773583Y-10496538D01*
X15773883Y-10760738D02*
X15803883Y-10790738D01*
X15803883Y-10760738D02*
X15773883Y-10790738D01*
X15773883Y-11054538D02*
X15803883Y-11084538D01*
X15803883Y-11054538D02*
X15773883Y-11084538D01*
X15776783Y-11642138D02*
X15806783Y-11672138D01*
X15806783Y-11642138D02*
X15776783Y-11672138D01*
X15815383Y-9041238D02*
X15845383Y-9071238D01*
X15845383Y-9041238D02*
X15815383Y-9071238D01*
X15839383Y-8766538D02*
X15869383Y-8796538D01*
X15869383Y-8766538D02*
X15839383Y-8796538D01*
X15878783Y-8128938D02*
X15908783Y-8158938D01*
X15908783Y-8128938D02*
X15878783Y-8158938D01*
X15915683Y-7634938D02*
X15945683Y-7664938D01*
X15945683Y-7634938D02*
X15915683Y-7664938D01*
X15923783Y-9677238D02*
X15953783Y-9707238D01*
X15953783Y-9677238D02*
X15923783Y-9707238D01*
X15994383Y-9253738D02*
X16024383Y-9283738D01*
X16024383Y-9253738D02*
X15994383Y-9283738D01*
X15539483Y-7424338D02*
G75*
G02*
X15489483Y-7424338I-25000J0D01*
G01*
X15489483Y-7424338D02*
G75*
G02*
X15539483Y-7424338I25000J0D01*
G01*
X15539483Y-8288338D02*
G75*
G02*
X15489483Y-8288338I-25000J0D01*
G01*
X15489483Y-8288338D02*
G75*
G02*
X15539483Y-8288338I25000J0D01*
G01*
X15919483Y-7424338D02*
G75*
G02*
X15869483Y-7424338I-25000J0D01*
G01*
X15869483Y-7424338D02*
G75*
G02*
X15919483Y-7424338I25000J0D01*
G01*
X15919483Y-8288338D02*
G75*
G02*
X15869483Y-8288338I-25000J0D01*
G01*
X15869483Y-8288338D02*
G75*
G02*
X15919483Y-8288338I25000J0D01*
G01*
X13312283Y-7484838D02*
X13312283Y-7554838D01*
X13277283Y-7519838D02*
X13347283Y-7519838D01*
X13312283Y-7611838D02*
X13312283Y-7681838D01*
X13277283Y-7646838D02*
X13347283Y-7646838D01*
X13312283Y-7738838D02*
X13312283Y-7808838D01*
X13277283Y-7773838D02*
X13347283Y-7773838D01*
X13312283Y-7865838D02*
X13312283Y-7935838D01*
X13277283Y-7900838D02*
X13347283Y-7900838D01*
X13312283Y-7992838D02*
X13312283Y-8062838D01*
X13277283Y-8027838D02*
X13347283Y-8027838D01*
X13439283Y-7484838D02*
X13439283Y-7554838D01*
X13404283Y-7519838D02*
X13474283Y-7519838D01*
X13439283Y-7611838D02*
X13439283Y-7681838D01*
X13404283Y-7646838D02*
X13474283Y-7646838D01*
X13439283Y-7738838D02*
X13439283Y-7808838D01*
X13404283Y-7773838D02*
X13474283Y-7773838D01*
X13439283Y-7865838D02*
X13439283Y-7935838D01*
X13404283Y-7900838D02*
X13474283Y-7900838D01*
X13439283Y-7992838D02*
X13439283Y-8062838D01*
X13404283Y-8027838D02*
X13474283Y-8027838D01*
D11*
X13364760Y-12538822D02*
X13364760Y-12338822D01*
X13364760Y-12338822D02*
X13412379Y-12338822D01*
X13412379Y-12338822D02*
X13440950Y-12348346D01*
X13440950Y-12348346D02*
X13459998Y-12367393D01*
X13459998Y-12367393D02*
X13469522Y-12386441D01*
X13469522Y-12386441D02*
X13479045Y-12424536D01*
X13479045Y-12424536D02*
X13479045Y-12453107D01*
X13479045Y-12453107D02*
X13469522Y-12491203D01*
X13469522Y-12491203D02*
X13459998Y-12510250D01*
X13459998Y-12510250D02*
X13440950Y-12529298D01*
X13440950Y-12529298D02*
X13412379Y-12538822D01*
X13412379Y-12538822D02*
X13364760Y-12538822D01*
X13564760Y-12538822D02*
X13564760Y-12405488D01*
X13564760Y-12443584D02*
X13574284Y-12424536D01*
X13574284Y-12424536D02*
X13583807Y-12415012D01*
X13583807Y-12415012D02*
X13602855Y-12405488D01*
X13602855Y-12405488D02*
X13621903Y-12405488D01*
X13688569Y-12538822D02*
X13688569Y-12405488D01*
X13688569Y-12338822D02*
X13679045Y-12348346D01*
X13679045Y-12348346D02*
X13688569Y-12357869D01*
X13688569Y-12357869D02*
X13698093Y-12348346D01*
X13698093Y-12348346D02*
X13688569Y-12338822D01*
X13688569Y-12338822D02*
X13688569Y-12357869D01*
X13812379Y-12538822D02*
X13793331Y-12529298D01*
X13793331Y-12529298D02*
X13783807Y-12510250D01*
X13783807Y-12510250D02*
X13783807Y-12338822D01*
X13917141Y-12538822D02*
X13898093Y-12529298D01*
X13898093Y-12529298D02*
X13888569Y-12510250D01*
X13888569Y-12510250D02*
X13888569Y-12338822D01*
X14145712Y-12538822D02*
X14145712Y-12338822D01*
X14145712Y-12338822D02*
X14212379Y-12481679D01*
X14212379Y-12481679D02*
X14279045Y-12338822D01*
X14279045Y-12338822D02*
X14279045Y-12538822D01*
X14459998Y-12538822D02*
X14459998Y-12434060D01*
X14459998Y-12434060D02*
X14450474Y-12415012D01*
X14450474Y-12415012D02*
X14431426Y-12405488D01*
X14431426Y-12405488D02*
X14393331Y-12405488D01*
X14393331Y-12405488D02*
X14374284Y-12415012D01*
X14459998Y-12529298D02*
X14440950Y-12538822D01*
X14440950Y-12538822D02*
X14393331Y-12538822D01*
X14393331Y-12538822D02*
X14374284Y-12529298D01*
X14374284Y-12529298D02*
X14364760Y-12510250D01*
X14364760Y-12510250D02*
X14364760Y-12491203D01*
X14364760Y-12491203D02*
X14374284Y-12472155D01*
X14374284Y-12472155D02*
X14393331Y-12462631D01*
X14393331Y-12462631D02*
X14440950Y-12462631D01*
X14440950Y-12462631D02*
X14459998Y-12453107D01*
X14555236Y-12405488D02*
X14555236Y-12605488D01*
X14555236Y-12415012D02*
X14574284Y-12405488D01*
X14574284Y-12405488D02*
X14612379Y-12405488D01*
X14612379Y-12405488D02*
X14631426Y-12415012D01*
X14631426Y-12415012D02*
X14640950Y-12424536D01*
X14640950Y-12424536D02*
X14650474Y-12443584D01*
X14650474Y-12443584D02*
X14650474Y-12500726D01*
X14650474Y-12500726D02*
X14640950Y-12519774D01*
X14640950Y-12519774D02*
X14631426Y-12529298D01*
X14631426Y-12529298D02*
X14612379Y-12538822D01*
X14612379Y-12538822D02*
X14574284Y-12538822D01*
X14574284Y-12538822D02*
X14555236Y-12529298D01*
X14736188Y-12519774D02*
X14745712Y-12529298D01*
X14745712Y-12529298D02*
X14736188Y-12538822D01*
X14736188Y-12538822D02*
X14726665Y-12529298D01*
X14726665Y-12529298D02*
X14736188Y-12519774D01*
X14736188Y-12519774D02*
X14736188Y-12538822D01*
X14736188Y-12415012D02*
X14745712Y-12424536D01*
X14745712Y-12424536D02*
X14736188Y-12434060D01*
X14736188Y-12434060D02*
X14726665Y-12424536D01*
X14726665Y-12424536D02*
X14736188Y-12415012D01*
X14736188Y-12415012D02*
X14736188Y-12434060D01*
D12*
X13073983Y-12852338D02*
X13103983Y-12882338D01*
X13103983Y-12852338D02*
X13073983Y-12882338D01*
D11*
X13402855Y-12758822D02*
X13421903Y-12758822D01*
X13421903Y-12758822D02*
X13440950Y-12768346D01*
X13440950Y-12768346D02*
X13450474Y-12777869D01*
X13450474Y-12777869D02*
X13459998Y-12796917D01*
X13459998Y-12796917D02*
X13469522Y-12835012D01*
X13469522Y-12835012D02*
X13469522Y-12882631D01*
X13469522Y-12882631D02*
X13459998Y-12920726D01*
X13459998Y-12920726D02*
X13450474Y-12939774D01*
X13450474Y-12939774D02*
X13440950Y-12949298D01*
X13440950Y-12949298D02*
X13421903Y-12958822D01*
X13421903Y-12958822D02*
X13402855Y-12958822D01*
X13402855Y-12958822D02*
X13383807Y-12949298D01*
X13383807Y-12949298D02*
X13374284Y-12939774D01*
X13374284Y-12939774D02*
X13364760Y-12920726D01*
X13364760Y-12920726D02*
X13355236Y-12882631D01*
X13355236Y-12882631D02*
X13355236Y-12835012D01*
X13355236Y-12835012D02*
X13364760Y-12796917D01*
X13364760Y-12796917D02*
X13374284Y-12777869D01*
X13374284Y-12777869D02*
X13383807Y-12768346D01*
X13383807Y-12768346D02*
X13402855Y-12758822D01*
X13555236Y-12939774D02*
X13564760Y-12949298D01*
X13564760Y-12949298D02*
X13555236Y-12958822D01*
X13555236Y-12958822D02*
X13545712Y-12949298D01*
X13545712Y-12949298D02*
X13555236Y-12939774D01*
X13555236Y-12939774D02*
X13555236Y-12958822D01*
X13631426Y-12758822D02*
X13755236Y-12758822D01*
X13755236Y-12758822D02*
X13688569Y-12835012D01*
X13688569Y-12835012D02*
X13717141Y-12835012D01*
X13717141Y-12835012D02*
X13736188Y-12844536D01*
X13736188Y-12844536D02*
X13745712Y-12854060D01*
X13745712Y-12854060D02*
X13755236Y-12873107D01*
X13755236Y-12873107D02*
X13755236Y-12920726D01*
X13755236Y-12920726D02*
X13745712Y-12939774D01*
X13745712Y-12939774D02*
X13736188Y-12949298D01*
X13736188Y-12949298D02*
X13717141Y-12958822D01*
X13717141Y-12958822D02*
X13659998Y-12958822D01*
X13659998Y-12958822D02*
X13640950Y-12949298D01*
X13640950Y-12949298D02*
X13631426Y-12939774D01*
X13879045Y-12758822D02*
X13898093Y-12758822D01*
X13898093Y-12758822D02*
X13917141Y-12768346D01*
X13917141Y-12768346D02*
X13926665Y-12777869D01*
X13926665Y-12777869D02*
X13936188Y-12796917D01*
X13936188Y-12796917D02*
X13945712Y-12835012D01*
X13945712Y-12835012D02*
X13945712Y-12882631D01*
X13945712Y-12882631D02*
X13936188Y-12920726D01*
X13936188Y-12920726D02*
X13926665Y-12939774D01*
X13926665Y-12939774D02*
X13917141Y-12949298D01*
X13917141Y-12949298D02*
X13898093Y-12958822D01*
X13898093Y-12958822D02*
X13879045Y-12958822D01*
X13879045Y-12958822D02*
X13859998Y-12949298D01*
X13859998Y-12949298D02*
X13850474Y-12939774D01*
X13850474Y-12939774D02*
X13840950Y-12920726D01*
X13840950Y-12920726D02*
X13831426Y-12882631D01*
X13831426Y-12882631D02*
X13831426Y-12835012D01*
X13831426Y-12835012D02*
X13840950Y-12796917D01*
X13840950Y-12796917D02*
X13850474Y-12777869D01*
X13850474Y-12777869D02*
X13859998Y-12768346D01*
X13859998Y-12768346D02*
X13879045Y-12758822D01*
X14069522Y-12758822D02*
X14088569Y-12758822D01*
X14088569Y-12758822D02*
X14107617Y-12768346D01*
X14107617Y-12768346D02*
X14117141Y-12777869D01*
X14117141Y-12777869D02*
X14126665Y-12796917D01*
X14126665Y-12796917D02*
X14136188Y-12835012D01*
X14136188Y-12835012D02*
X14136188Y-12882631D01*
X14136188Y-12882631D02*
X14126665Y-12920726D01*
X14126665Y-12920726D02*
X14117141Y-12939774D01*
X14117141Y-12939774D02*
X14107617Y-12949298D01*
X14107617Y-12949298D02*
X14088569Y-12958822D01*
X14088569Y-12958822D02*
X14069522Y-12958822D01*
X14069522Y-12958822D02*
X14050474Y-12949298D01*
X14050474Y-12949298D02*
X14040950Y-12939774D01*
X14040950Y-12939774D02*
X14031426Y-12920726D01*
X14031426Y-12920726D02*
X14021903Y-12882631D01*
X14021903Y-12882631D02*
X14021903Y-12835012D01*
X14021903Y-12835012D02*
X14031426Y-12796917D01*
X14031426Y-12796917D02*
X14040950Y-12777869D01*
X14040950Y-12777869D02*
X14050474Y-12768346D01*
X14050474Y-12768346D02*
X14069522Y-12758822D01*
X14221903Y-12958822D02*
X14221903Y-12825488D01*
X14221903Y-12844536D02*
X14231426Y-12835012D01*
X14231426Y-12835012D02*
X14250474Y-12825488D01*
X14250474Y-12825488D02*
X14279046Y-12825488D01*
X14279046Y-12825488D02*
X14298093Y-12835012D01*
X14298093Y-12835012D02*
X14307617Y-12854060D01*
X14307617Y-12854060D02*
X14307617Y-12958822D01*
X14307617Y-12854060D02*
X14317141Y-12835012D01*
X14317141Y-12835012D02*
X14336188Y-12825488D01*
X14336188Y-12825488D02*
X14364760Y-12825488D01*
X14364760Y-12825488D02*
X14383807Y-12835012D01*
X14383807Y-12835012D02*
X14393331Y-12854060D01*
X14393331Y-12854060D02*
X14393331Y-12958822D01*
X14488569Y-12958822D02*
X14488569Y-12825488D01*
X14488569Y-12844536D02*
X14498093Y-12835012D01*
X14498093Y-12835012D02*
X14517141Y-12825488D01*
X14517141Y-12825488D02*
X14545712Y-12825488D01*
X14545712Y-12825488D02*
X14564760Y-12835012D01*
X14564760Y-12835012D02*
X14574284Y-12854060D01*
X14574284Y-12854060D02*
X14574284Y-12958822D01*
X14574284Y-12854060D02*
X14583807Y-12835012D01*
X14583807Y-12835012D02*
X14602855Y-12825488D01*
X14602855Y-12825488D02*
X14631426Y-12825488D01*
X14631426Y-12825488D02*
X14650474Y-12835012D01*
X14650474Y-12835012D02*
X14659998Y-12854060D01*
X14659998Y-12854060D02*
X14659998Y-12958822D01*
X15050474Y-12749298D02*
X14879046Y-13006441D01*
X15307617Y-12758822D02*
X15326665Y-12758822D01*
X15326665Y-12758822D02*
X15345712Y-12768346D01*
X15345712Y-12768346D02*
X15355236Y-12777869D01*
X15355236Y-12777869D02*
X15364760Y-12796917D01*
X15364760Y-12796917D02*
X15374284Y-12835012D01*
X15374284Y-12835012D02*
X15374284Y-12882631D01*
X15374284Y-12882631D02*
X15364760Y-12920726D01*
X15364760Y-12920726D02*
X15355236Y-12939774D01*
X15355236Y-12939774D02*
X15345712Y-12949298D01*
X15345712Y-12949298D02*
X15326665Y-12958822D01*
X15326665Y-12958822D02*
X15307617Y-12958822D01*
X15307617Y-12958822D02*
X15288569Y-12949298D01*
X15288569Y-12949298D02*
X15279046Y-12939774D01*
X15279046Y-12939774D02*
X15269522Y-12920726D01*
X15269522Y-12920726D02*
X15259998Y-12882631D01*
X15259998Y-12882631D02*
X15259998Y-12835012D01*
X15259998Y-12835012D02*
X15269522Y-12796917D01*
X15269522Y-12796917D02*
X15279046Y-12777869D01*
X15279046Y-12777869D02*
X15288569Y-12768346D01*
X15288569Y-12768346D02*
X15307617Y-12758822D01*
X15459998Y-12939774D02*
X15469522Y-12949298D01*
X15469522Y-12949298D02*
X15459998Y-12958822D01*
X15459998Y-12958822D02*
X15450474Y-12949298D01*
X15450474Y-12949298D02*
X15459998Y-12939774D01*
X15459998Y-12939774D02*
X15459998Y-12958822D01*
X15593331Y-12758822D02*
X15612379Y-12758822D01*
X15612379Y-12758822D02*
X15631427Y-12768346D01*
X15631427Y-12768346D02*
X15640950Y-12777869D01*
X15640950Y-12777869D02*
X15650474Y-12796917D01*
X15650474Y-12796917D02*
X15659998Y-12835012D01*
X15659998Y-12835012D02*
X15659998Y-12882631D01*
X15659998Y-12882631D02*
X15650474Y-12920726D01*
X15650474Y-12920726D02*
X15640950Y-12939774D01*
X15640950Y-12939774D02*
X15631427Y-12949298D01*
X15631427Y-12949298D02*
X15612379Y-12958822D01*
X15612379Y-12958822D02*
X15593331Y-12958822D01*
X15593331Y-12958822D02*
X15574284Y-12949298D01*
X15574284Y-12949298D02*
X15564760Y-12939774D01*
X15564760Y-12939774D02*
X15555236Y-12920726D01*
X15555236Y-12920726D02*
X15545712Y-12882631D01*
X15545712Y-12882631D02*
X15545712Y-12835012D01*
X15545712Y-12835012D02*
X15555236Y-12796917D01*
X15555236Y-12796917D02*
X15564760Y-12777869D01*
X15564760Y-12777869D02*
X15574284Y-12768346D01*
X15574284Y-12768346D02*
X15593331Y-12758822D01*
X15850474Y-12958822D02*
X15736189Y-12958822D01*
X15793331Y-12958822D02*
X15793331Y-12758822D01*
X15793331Y-12758822D02*
X15774284Y-12787393D01*
X15774284Y-12787393D02*
X15755236Y-12806441D01*
X15755236Y-12806441D02*
X15736189Y-12815965D01*
X16040950Y-12958822D02*
X15926665Y-12958822D01*
X15983808Y-12958822D02*
X15983808Y-12758822D01*
X15983808Y-12758822D02*
X15964760Y-12787393D01*
X15964760Y-12787393D02*
X15945712Y-12806441D01*
X15945712Y-12806441D02*
X15926665Y-12815965D01*
X16155236Y-12844536D02*
X16136189Y-12835012D01*
X16136189Y-12835012D02*
X16126665Y-12825488D01*
X16126665Y-12825488D02*
X16117141Y-12806441D01*
X16117141Y-12806441D02*
X16117141Y-12796917D01*
X16117141Y-12796917D02*
X16126665Y-12777869D01*
X16126665Y-12777869D02*
X16136189Y-12768346D01*
X16136189Y-12768346D02*
X16155236Y-12758822D01*
X16155236Y-12758822D02*
X16193331Y-12758822D01*
X16193331Y-12758822D02*
X16212379Y-12768346D01*
X16212379Y-12768346D02*
X16221903Y-12777869D01*
X16221903Y-12777869D02*
X16231427Y-12796917D01*
X16231427Y-12796917D02*
X16231427Y-12806441D01*
X16231427Y-12806441D02*
X16221903Y-12825488D01*
X16221903Y-12825488D02*
X16212379Y-12835012D01*
X16212379Y-12835012D02*
X16193331Y-12844536D01*
X16193331Y-12844536D02*
X16155236Y-12844536D01*
X16155236Y-12844536D02*
X16136189Y-12854060D01*
X16136189Y-12854060D02*
X16126665Y-12863584D01*
X16126665Y-12863584D02*
X16117141Y-12882631D01*
X16117141Y-12882631D02*
X16117141Y-12920726D01*
X16117141Y-12920726D02*
X16126665Y-12939774D01*
X16126665Y-12939774D02*
X16136189Y-12949298D01*
X16136189Y-12949298D02*
X16155236Y-12958822D01*
X16155236Y-12958822D02*
X16193331Y-12958822D01*
X16193331Y-12958822D02*
X16212379Y-12949298D01*
X16212379Y-12949298D02*
X16221903Y-12939774D01*
X16221903Y-12939774D02*
X16231427Y-12920726D01*
X16231427Y-12920726D02*
X16231427Y-12882631D01*
X16231427Y-12882631D02*
X16221903Y-12863584D01*
X16221903Y-12863584D02*
X16212379Y-12854060D01*
X16212379Y-12854060D02*
X16193331Y-12844536D01*
X16307617Y-12758822D02*
X16307617Y-12796917D01*
X16383808Y-12758822D02*
X16383808Y-12796917D01*
X16679046Y-13035012D02*
X16669522Y-13025488D01*
X16669522Y-13025488D02*
X16650474Y-12996917D01*
X16650474Y-12996917D02*
X16640951Y-12977869D01*
X16640951Y-12977869D02*
X16631427Y-12949298D01*
X16631427Y-12949298D02*
X16621903Y-12901679D01*
X16621903Y-12901679D02*
X16621903Y-12863584D01*
X16621903Y-12863584D02*
X16631427Y-12815965D01*
X16631427Y-12815965D02*
X16640951Y-12787393D01*
X16640951Y-12787393D02*
X16650474Y-12768346D01*
X16650474Y-12768346D02*
X16669522Y-12739774D01*
X16669522Y-12739774D02*
X16679046Y-12730250D01*
X16859998Y-12958822D02*
X16745712Y-12958822D01*
X16802855Y-12958822D02*
X16802855Y-12758822D01*
X16802855Y-12758822D02*
X16783808Y-12787393D01*
X16783808Y-12787393D02*
X16764760Y-12806441D01*
X16764760Y-12806441D02*
X16745712Y-12815965D01*
X16974284Y-12844536D02*
X16955236Y-12835012D01*
X16955236Y-12835012D02*
X16945713Y-12825488D01*
X16945713Y-12825488D02*
X16936189Y-12806441D01*
X16936189Y-12806441D02*
X16936189Y-12796917D01*
X16936189Y-12796917D02*
X16945713Y-12777869D01*
X16945713Y-12777869D02*
X16955236Y-12768346D01*
X16955236Y-12768346D02*
X16974284Y-12758822D01*
X16974284Y-12758822D02*
X17012379Y-12758822D01*
X17012379Y-12758822D02*
X17031427Y-12768346D01*
X17031427Y-12768346D02*
X17040951Y-12777869D01*
X17040951Y-12777869D02*
X17050474Y-12796917D01*
X17050474Y-12796917D02*
X17050474Y-12806441D01*
X17050474Y-12806441D02*
X17040951Y-12825488D01*
X17040951Y-12825488D02*
X17031427Y-12835012D01*
X17031427Y-12835012D02*
X17012379Y-12844536D01*
X17012379Y-12844536D02*
X16974284Y-12844536D01*
X16974284Y-12844536D02*
X16955236Y-12854060D01*
X16955236Y-12854060D02*
X16945713Y-12863584D01*
X16945713Y-12863584D02*
X16936189Y-12882631D01*
X16936189Y-12882631D02*
X16936189Y-12920726D01*
X16936189Y-12920726D02*
X16945713Y-12939774D01*
X16945713Y-12939774D02*
X16955236Y-12949298D01*
X16955236Y-12949298D02*
X16974284Y-12958822D01*
X16974284Y-12958822D02*
X17012379Y-12958822D01*
X17012379Y-12958822D02*
X17031427Y-12949298D01*
X17031427Y-12949298D02*
X17040951Y-12939774D01*
X17040951Y-12939774D02*
X17050474Y-12920726D01*
X17050474Y-12920726D02*
X17050474Y-12882631D01*
X17050474Y-12882631D02*
X17040951Y-12863584D01*
X17040951Y-12863584D02*
X17031427Y-12854060D01*
X17031427Y-12854060D02*
X17012379Y-12844536D01*
X17117141Y-12758822D02*
X17240951Y-12758822D01*
X17240951Y-12758822D02*
X17174284Y-12835012D01*
X17174284Y-12835012D02*
X17202855Y-12835012D01*
X17202855Y-12835012D02*
X17221903Y-12844536D01*
X17221903Y-12844536D02*
X17231427Y-12854060D01*
X17231427Y-12854060D02*
X17240951Y-12873107D01*
X17240951Y-12873107D02*
X17240951Y-12920726D01*
X17240951Y-12920726D02*
X17231427Y-12939774D01*
X17231427Y-12939774D02*
X17221903Y-12949298D01*
X17221903Y-12949298D02*
X17202855Y-12958822D01*
X17202855Y-12958822D02*
X17145713Y-12958822D01*
X17145713Y-12958822D02*
X17126665Y-12949298D01*
X17126665Y-12949298D02*
X17117141Y-12939774D01*
X17479046Y-12958822D02*
X17479046Y-12758822D01*
X17564760Y-12958822D02*
X17564760Y-12854060D01*
X17564760Y-12854060D02*
X17555236Y-12835012D01*
X17555236Y-12835012D02*
X17536189Y-12825488D01*
X17536189Y-12825488D02*
X17507617Y-12825488D01*
X17507617Y-12825488D02*
X17488570Y-12835012D01*
X17488570Y-12835012D02*
X17479046Y-12844536D01*
X17688570Y-12958822D02*
X17669522Y-12949298D01*
X17669522Y-12949298D02*
X17659998Y-12939774D01*
X17659998Y-12939774D02*
X17650475Y-12920726D01*
X17650475Y-12920726D02*
X17650475Y-12863584D01*
X17650475Y-12863584D02*
X17659998Y-12844536D01*
X17659998Y-12844536D02*
X17669522Y-12835012D01*
X17669522Y-12835012D02*
X17688570Y-12825488D01*
X17688570Y-12825488D02*
X17717141Y-12825488D01*
X17717141Y-12825488D02*
X17736189Y-12835012D01*
X17736189Y-12835012D02*
X17745713Y-12844536D01*
X17745713Y-12844536D02*
X17755236Y-12863584D01*
X17755236Y-12863584D02*
X17755236Y-12920726D01*
X17755236Y-12920726D02*
X17745713Y-12939774D01*
X17745713Y-12939774D02*
X17736189Y-12949298D01*
X17736189Y-12949298D02*
X17717141Y-12958822D01*
X17717141Y-12958822D02*
X17688570Y-12958822D01*
X17869522Y-12958822D02*
X17850475Y-12949298D01*
X17850475Y-12949298D02*
X17840951Y-12930250D01*
X17840951Y-12930250D02*
X17840951Y-12758822D01*
X18021903Y-12949298D02*
X18002856Y-12958822D01*
X18002856Y-12958822D02*
X17964760Y-12958822D01*
X17964760Y-12958822D02*
X17945713Y-12949298D01*
X17945713Y-12949298D02*
X17936189Y-12930250D01*
X17936189Y-12930250D02*
X17936189Y-12854060D01*
X17936189Y-12854060D02*
X17945713Y-12835012D01*
X17945713Y-12835012D02*
X17964760Y-12825488D01*
X17964760Y-12825488D02*
X18002856Y-12825488D01*
X18002856Y-12825488D02*
X18021903Y-12835012D01*
X18021903Y-12835012D02*
X18031427Y-12854060D01*
X18031427Y-12854060D02*
X18031427Y-12873107D01*
X18031427Y-12873107D02*
X17936189Y-12892155D01*
X18107617Y-12949298D02*
X18126665Y-12958822D01*
X18126665Y-12958822D02*
X18164760Y-12958822D01*
X18164760Y-12958822D02*
X18183808Y-12949298D01*
X18183808Y-12949298D02*
X18193332Y-12930250D01*
X18193332Y-12930250D02*
X18193332Y-12920726D01*
X18193332Y-12920726D02*
X18183808Y-12901679D01*
X18183808Y-12901679D02*
X18164760Y-12892155D01*
X18164760Y-12892155D02*
X18136189Y-12892155D01*
X18136189Y-12892155D02*
X18117141Y-12882631D01*
X18117141Y-12882631D02*
X18107617Y-12863584D01*
X18107617Y-12863584D02*
X18107617Y-12854060D01*
X18107617Y-12854060D02*
X18117141Y-12835012D01*
X18117141Y-12835012D02*
X18136189Y-12825488D01*
X18136189Y-12825488D02*
X18164760Y-12825488D01*
X18164760Y-12825488D02*
X18183808Y-12835012D01*
X18259998Y-13035012D02*
X18269522Y-13025488D01*
X18269522Y-13025488D02*
X18288570Y-12996917D01*
X18288570Y-12996917D02*
X18298094Y-12977869D01*
X18298094Y-12977869D02*
X18307617Y-12949298D01*
X18307617Y-12949298D02*
X18317141Y-12901679D01*
X18317141Y-12901679D02*
X18317141Y-12863584D01*
X18317141Y-12863584D02*
X18307617Y-12815965D01*
X18307617Y-12815965D02*
X18298094Y-12787393D01*
X18298094Y-12787393D02*
X18288570Y-12768346D01*
X18288570Y-12768346D02*
X18269522Y-12739774D01*
X18269522Y-12739774D02*
X18259998Y-12730250D01*
D12*
X13103983Y-13131338D02*
G75*
G02*
X13053983Y-13131338I-25000J0D01*
G01*
X13053983Y-13131338D02*
G75*
G02*
X13103983Y-13131338I25000J0D01*
G01*
D11*
X13402855Y-13022822D02*
X13421903Y-13022822D01*
X13421903Y-13022822D02*
X13440950Y-13032346D01*
X13440950Y-13032346D02*
X13450474Y-13041869D01*
X13450474Y-13041869D02*
X13459998Y-13060917D01*
X13459998Y-13060917D02*
X13469522Y-13099012D01*
X13469522Y-13099012D02*
X13469522Y-13146631D01*
X13469522Y-13146631D02*
X13459998Y-13184726D01*
X13459998Y-13184726D02*
X13450474Y-13203774D01*
X13450474Y-13203774D02*
X13440950Y-13213298D01*
X13440950Y-13213298D02*
X13421903Y-13222822D01*
X13421903Y-13222822D02*
X13402855Y-13222822D01*
X13402855Y-13222822D02*
X13383807Y-13213298D01*
X13383807Y-13213298D02*
X13374284Y-13203774D01*
X13374284Y-13203774D02*
X13364760Y-13184726D01*
X13364760Y-13184726D02*
X13355236Y-13146631D01*
X13355236Y-13146631D02*
X13355236Y-13099012D01*
X13355236Y-13099012D02*
X13364760Y-13060917D01*
X13364760Y-13060917D02*
X13374284Y-13041869D01*
X13374284Y-13041869D02*
X13383807Y-13032346D01*
X13383807Y-13032346D02*
X13402855Y-13022822D01*
X13555236Y-13203774D02*
X13564760Y-13213298D01*
X13564760Y-13213298D02*
X13555236Y-13222822D01*
X13555236Y-13222822D02*
X13545712Y-13213298D01*
X13545712Y-13213298D02*
X13555236Y-13203774D01*
X13555236Y-13203774D02*
X13555236Y-13222822D01*
X13745712Y-13022822D02*
X13650474Y-13022822D01*
X13650474Y-13022822D02*
X13640950Y-13118060D01*
X13640950Y-13118060D02*
X13650474Y-13108536D01*
X13650474Y-13108536D02*
X13669522Y-13099012D01*
X13669522Y-13099012D02*
X13717141Y-13099012D01*
X13717141Y-13099012D02*
X13736188Y-13108536D01*
X13736188Y-13108536D02*
X13745712Y-13118060D01*
X13745712Y-13118060D02*
X13755236Y-13137107D01*
X13755236Y-13137107D02*
X13755236Y-13184726D01*
X13755236Y-13184726D02*
X13745712Y-13203774D01*
X13745712Y-13203774D02*
X13736188Y-13213298D01*
X13736188Y-13213298D02*
X13717141Y-13222822D01*
X13717141Y-13222822D02*
X13669522Y-13222822D01*
X13669522Y-13222822D02*
X13650474Y-13213298D01*
X13650474Y-13213298D02*
X13640950Y-13203774D01*
X13879045Y-13022822D02*
X13898093Y-13022822D01*
X13898093Y-13022822D02*
X13917141Y-13032346D01*
X13917141Y-13032346D02*
X13926665Y-13041869D01*
X13926665Y-13041869D02*
X13936188Y-13060917D01*
X13936188Y-13060917D02*
X13945712Y-13099012D01*
X13945712Y-13099012D02*
X13945712Y-13146631D01*
X13945712Y-13146631D02*
X13936188Y-13184726D01*
X13936188Y-13184726D02*
X13926665Y-13203774D01*
X13926665Y-13203774D02*
X13917141Y-13213298D01*
X13917141Y-13213298D02*
X13898093Y-13222822D01*
X13898093Y-13222822D02*
X13879045Y-13222822D01*
X13879045Y-13222822D02*
X13859998Y-13213298D01*
X13859998Y-13213298D02*
X13850474Y-13203774D01*
X13850474Y-13203774D02*
X13840950Y-13184726D01*
X13840950Y-13184726D02*
X13831426Y-13146631D01*
X13831426Y-13146631D02*
X13831426Y-13099012D01*
X13831426Y-13099012D02*
X13840950Y-13060917D01*
X13840950Y-13060917D02*
X13850474Y-13041869D01*
X13850474Y-13041869D02*
X13859998Y-13032346D01*
X13859998Y-13032346D02*
X13879045Y-13022822D01*
X14069522Y-13022822D02*
X14088569Y-13022822D01*
X14088569Y-13022822D02*
X14107617Y-13032346D01*
X14107617Y-13032346D02*
X14117141Y-13041869D01*
X14117141Y-13041869D02*
X14126665Y-13060917D01*
X14126665Y-13060917D02*
X14136188Y-13099012D01*
X14136188Y-13099012D02*
X14136188Y-13146631D01*
X14136188Y-13146631D02*
X14126665Y-13184726D01*
X14126665Y-13184726D02*
X14117141Y-13203774D01*
X14117141Y-13203774D02*
X14107617Y-13213298D01*
X14107617Y-13213298D02*
X14088569Y-13222822D01*
X14088569Y-13222822D02*
X14069522Y-13222822D01*
X14069522Y-13222822D02*
X14050474Y-13213298D01*
X14050474Y-13213298D02*
X14040950Y-13203774D01*
X14040950Y-13203774D02*
X14031426Y-13184726D01*
X14031426Y-13184726D02*
X14021903Y-13146631D01*
X14021903Y-13146631D02*
X14021903Y-13099012D01*
X14021903Y-13099012D02*
X14031426Y-13060917D01*
X14031426Y-13060917D02*
X14040950Y-13041869D01*
X14040950Y-13041869D02*
X14050474Y-13032346D01*
X14050474Y-13032346D02*
X14069522Y-13022822D01*
X14221903Y-13222822D02*
X14221903Y-13089488D01*
X14221903Y-13108536D02*
X14231426Y-13099012D01*
X14231426Y-13099012D02*
X14250474Y-13089488D01*
X14250474Y-13089488D02*
X14279046Y-13089488D01*
X14279046Y-13089488D02*
X14298093Y-13099012D01*
X14298093Y-13099012D02*
X14307617Y-13118060D01*
X14307617Y-13118060D02*
X14307617Y-13222822D01*
X14307617Y-13118060D02*
X14317141Y-13099012D01*
X14317141Y-13099012D02*
X14336188Y-13089488D01*
X14336188Y-13089488D02*
X14364760Y-13089488D01*
X14364760Y-13089488D02*
X14383807Y-13099012D01*
X14383807Y-13099012D02*
X14393331Y-13118060D01*
X14393331Y-13118060D02*
X14393331Y-13222822D01*
X14488569Y-13222822D02*
X14488569Y-13089488D01*
X14488569Y-13108536D02*
X14498093Y-13099012D01*
X14498093Y-13099012D02*
X14517141Y-13089488D01*
X14517141Y-13089488D02*
X14545712Y-13089488D01*
X14545712Y-13089488D02*
X14564760Y-13099012D01*
X14564760Y-13099012D02*
X14574284Y-13118060D01*
X14574284Y-13118060D02*
X14574284Y-13222822D01*
X14574284Y-13118060D02*
X14583807Y-13099012D01*
X14583807Y-13099012D02*
X14602855Y-13089488D01*
X14602855Y-13089488D02*
X14631426Y-13089488D01*
X14631426Y-13089488D02*
X14650474Y-13099012D01*
X14650474Y-13099012D02*
X14659998Y-13118060D01*
X14659998Y-13118060D02*
X14659998Y-13222822D01*
X15050474Y-13013298D02*
X14879046Y-13270441D01*
X15307617Y-13022822D02*
X15326665Y-13022822D01*
X15326665Y-13022822D02*
X15345712Y-13032346D01*
X15345712Y-13032346D02*
X15355236Y-13041869D01*
X15355236Y-13041869D02*
X15364760Y-13060917D01*
X15364760Y-13060917D02*
X15374284Y-13099012D01*
X15374284Y-13099012D02*
X15374284Y-13146631D01*
X15374284Y-13146631D02*
X15364760Y-13184726D01*
X15364760Y-13184726D02*
X15355236Y-13203774D01*
X15355236Y-13203774D02*
X15345712Y-13213298D01*
X15345712Y-13213298D02*
X15326665Y-13222822D01*
X15326665Y-13222822D02*
X15307617Y-13222822D01*
X15307617Y-13222822D02*
X15288569Y-13213298D01*
X15288569Y-13213298D02*
X15279046Y-13203774D01*
X15279046Y-13203774D02*
X15269522Y-13184726D01*
X15269522Y-13184726D02*
X15259998Y-13146631D01*
X15259998Y-13146631D02*
X15259998Y-13099012D01*
X15259998Y-13099012D02*
X15269522Y-13060917D01*
X15269522Y-13060917D02*
X15279046Y-13041869D01*
X15279046Y-13041869D02*
X15288569Y-13032346D01*
X15288569Y-13032346D02*
X15307617Y-13022822D01*
X15459998Y-13203774D02*
X15469522Y-13213298D01*
X15469522Y-13213298D02*
X15459998Y-13222822D01*
X15459998Y-13222822D02*
X15450474Y-13213298D01*
X15450474Y-13213298D02*
X15459998Y-13203774D01*
X15459998Y-13203774D02*
X15459998Y-13222822D01*
X15593331Y-13022822D02*
X15612379Y-13022822D01*
X15612379Y-13022822D02*
X15631427Y-13032346D01*
X15631427Y-13032346D02*
X15640950Y-13041869D01*
X15640950Y-13041869D02*
X15650474Y-13060917D01*
X15650474Y-13060917D02*
X15659998Y-13099012D01*
X15659998Y-13099012D02*
X15659998Y-13146631D01*
X15659998Y-13146631D02*
X15650474Y-13184726D01*
X15650474Y-13184726D02*
X15640950Y-13203774D01*
X15640950Y-13203774D02*
X15631427Y-13213298D01*
X15631427Y-13213298D02*
X15612379Y-13222822D01*
X15612379Y-13222822D02*
X15593331Y-13222822D01*
X15593331Y-13222822D02*
X15574284Y-13213298D01*
X15574284Y-13213298D02*
X15564760Y-13203774D01*
X15564760Y-13203774D02*
X15555236Y-13184726D01*
X15555236Y-13184726D02*
X15545712Y-13146631D01*
X15545712Y-13146631D02*
X15545712Y-13099012D01*
X15545712Y-13099012D02*
X15555236Y-13060917D01*
X15555236Y-13060917D02*
X15564760Y-13041869D01*
X15564760Y-13041869D02*
X15574284Y-13032346D01*
X15574284Y-13032346D02*
X15593331Y-13022822D01*
X15850474Y-13222822D02*
X15736189Y-13222822D01*
X15793331Y-13222822D02*
X15793331Y-13022822D01*
X15793331Y-13022822D02*
X15774284Y-13051393D01*
X15774284Y-13051393D02*
X15755236Y-13070441D01*
X15755236Y-13070441D02*
X15736189Y-13079965D01*
X15945712Y-13222822D02*
X15983808Y-13222822D01*
X15983808Y-13222822D02*
X16002855Y-13213298D01*
X16002855Y-13213298D02*
X16012379Y-13203774D01*
X16012379Y-13203774D02*
X16031427Y-13175203D01*
X16031427Y-13175203D02*
X16040950Y-13137107D01*
X16040950Y-13137107D02*
X16040950Y-13060917D01*
X16040950Y-13060917D02*
X16031427Y-13041869D01*
X16031427Y-13041869D02*
X16021903Y-13032346D01*
X16021903Y-13032346D02*
X16002855Y-13022822D01*
X16002855Y-13022822D02*
X15964760Y-13022822D01*
X15964760Y-13022822D02*
X15945712Y-13032346D01*
X15945712Y-13032346D02*
X15936189Y-13041869D01*
X15936189Y-13041869D02*
X15926665Y-13060917D01*
X15926665Y-13060917D02*
X15926665Y-13108536D01*
X15926665Y-13108536D02*
X15936189Y-13127584D01*
X15936189Y-13127584D02*
X15945712Y-13137107D01*
X15945712Y-13137107D02*
X15964760Y-13146631D01*
X15964760Y-13146631D02*
X16002855Y-13146631D01*
X16002855Y-13146631D02*
X16021903Y-13137107D01*
X16021903Y-13137107D02*
X16031427Y-13127584D01*
X16031427Y-13127584D02*
X16040950Y-13108536D01*
X16107617Y-13022822D02*
X16240950Y-13022822D01*
X16240950Y-13022822D02*
X16155236Y-13222822D01*
X16307617Y-13022822D02*
X16307617Y-13060917D01*
X16383808Y-13022822D02*
X16383808Y-13060917D01*
X16679046Y-13299012D02*
X16669522Y-13289488D01*
X16669522Y-13289488D02*
X16650474Y-13260917D01*
X16650474Y-13260917D02*
X16640951Y-13241869D01*
X16640951Y-13241869D02*
X16631427Y-13213298D01*
X16631427Y-13213298D02*
X16621903Y-13165679D01*
X16621903Y-13165679D02*
X16621903Y-13127584D01*
X16621903Y-13127584D02*
X16631427Y-13079965D01*
X16631427Y-13079965D02*
X16640951Y-13051393D01*
X16640951Y-13051393D02*
X16650474Y-13032346D01*
X16650474Y-13032346D02*
X16669522Y-13003774D01*
X16669522Y-13003774D02*
X16679046Y-12994250D01*
X16840951Y-13089488D02*
X16840951Y-13222822D01*
X16793332Y-13013298D02*
X16745712Y-13156155D01*
X16745712Y-13156155D02*
X16869522Y-13156155D01*
X17098094Y-13222822D02*
X17098094Y-13022822D01*
X17183808Y-13222822D02*
X17183808Y-13118060D01*
X17183808Y-13118060D02*
X17174284Y-13099012D01*
X17174284Y-13099012D02*
X17155236Y-13089488D01*
X17155236Y-13089488D02*
X17126665Y-13089488D01*
X17126665Y-13089488D02*
X17107617Y-13099012D01*
X17107617Y-13099012D02*
X17098094Y-13108536D01*
X17307617Y-13222822D02*
X17288570Y-13213298D01*
X17288570Y-13213298D02*
X17279046Y-13203774D01*
X17279046Y-13203774D02*
X17269522Y-13184726D01*
X17269522Y-13184726D02*
X17269522Y-13127584D01*
X17269522Y-13127584D02*
X17279046Y-13108536D01*
X17279046Y-13108536D02*
X17288570Y-13099012D01*
X17288570Y-13099012D02*
X17307617Y-13089488D01*
X17307617Y-13089488D02*
X17336189Y-13089488D01*
X17336189Y-13089488D02*
X17355236Y-13099012D01*
X17355236Y-13099012D02*
X17364760Y-13108536D01*
X17364760Y-13108536D02*
X17374284Y-13127584D01*
X17374284Y-13127584D02*
X17374284Y-13184726D01*
X17374284Y-13184726D02*
X17364760Y-13203774D01*
X17364760Y-13203774D02*
X17355236Y-13213298D01*
X17355236Y-13213298D02*
X17336189Y-13222822D01*
X17336189Y-13222822D02*
X17307617Y-13222822D01*
X17488570Y-13222822D02*
X17469522Y-13213298D01*
X17469522Y-13213298D02*
X17459998Y-13194250D01*
X17459998Y-13194250D02*
X17459998Y-13022822D01*
X17640951Y-13213298D02*
X17621903Y-13222822D01*
X17621903Y-13222822D02*
X17583808Y-13222822D01*
X17583808Y-13222822D02*
X17564760Y-13213298D01*
X17564760Y-13213298D02*
X17555236Y-13194250D01*
X17555236Y-13194250D02*
X17555236Y-13118060D01*
X17555236Y-13118060D02*
X17564760Y-13099012D01*
X17564760Y-13099012D02*
X17583808Y-13089488D01*
X17583808Y-13089488D02*
X17621903Y-13089488D01*
X17621903Y-13089488D02*
X17640951Y-13099012D01*
X17640951Y-13099012D02*
X17650475Y-13118060D01*
X17650475Y-13118060D02*
X17650475Y-13137107D01*
X17650475Y-13137107D02*
X17555236Y-13156155D01*
X17726665Y-13213298D02*
X17745713Y-13222822D01*
X17745713Y-13222822D02*
X17783808Y-13222822D01*
X17783808Y-13222822D02*
X17802856Y-13213298D01*
X17802856Y-13213298D02*
X17812379Y-13194250D01*
X17812379Y-13194250D02*
X17812379Y-13184726D01*
X17812379Y-13184726D02*
X17802856Y-13165679D01*
X17802856Y-13165679D02*
X17783808Y-13156155D01*
X17783808Y-13156155D02*
X17755236Y-13156155D01*
X17755236Y-13156155D02*
X17736189Y-13146631D01*
X17736189Y-13146631D02*
X17726665Y-13127584D01*
X17726665Y-13127584D02*
X17726665Y-13118060D01*
X17726665Y-13118060D02*
X17736189Y-13099012D01*
X17736189Y-13099012D02*
X17755236Y-13089488D01*
X17755236Y-13089488D02*
X17783808Y-13089488D01*
X17783808Y-13089488D02*
X17802856Y-13099012D01*
X17879046Y-13299012D02*
X17888570Y-13289488D01*
X17888570Y-13289488D02*
X17907617Y-13260917D01*
X17907617Y-13260917D02*
X17917141Y-13241869D01*
X17917141Y-13241869D02*
X17926665Y-13213298D01*
X17926665Y-13213298D02*
X17936189Y-13165679D01*
X17936189Y-13165679D02*
X17936189Y-13127584D01*
X17936189Y-13127584D02*
X17926665Y-13079965D01*
X17926665Y-13079965D02*
X17917141Y-13051393D01*
X17917141Y-13051393D02*
X17907617Y-13032346D01*
X17907617Y-13032346D02*
X17888570Y-13003774D01*
X17888570Y-13003774D02*
X17879046Y-12994250D01*
D12*
X13068983Y-13360338D02*
X13068983Y-13430338D01*
X13033983Y-13395338D02*
X13103983Y-13395338D01*
D11*
X13402855Y-13286822D02*
X13421903Y-13286822D01*
X13421903Y-13286822D02*
X13440950Y-13296346D01*
X13440950Y-13296346D02*
X13450474Y-13305869D01*
X13450474Y-13305869D02*
X13459998Y-13324917D01*
X13459998Y-13324917D02*
X13469522Y-13363012D01*
X13469522Y-13363012D02*
X13469522Y-13410631D01*
X13469522Y-13410631D02*
X13459998Y-13448726D01*
X13459998Y-13448726D02*
X13450474Y-13467774D01*
X13450474Y-13467774D02*
X13440950Y-13477298D01*
X13440950Y-13477298D02*
X13421903Y-13486822D01*
X13421903Y-13486822D02*
X13402855Y-13486822D01*
X13402855Y-13486822D02*
X13383807Y-13477298D01*
X13383807Y-13477298D02*
X13374284Y-13467774D01*
X13374284Y-13467774D02*
X13364760Y-13448726D01*
X13364760Y-13448726D02*
X13355236Y-13410631D01*
X13355236Y-13410631D02*
X13355236Y-13363012D01*
X13355236Y-13363012D02*
X13364760Y-13324917D01*
X13364760Y-13324917D02*
X13374284Y-13305869D01*
X13374284Y-13305869D02*
X13383807Y-13296346D01*
X13383807Y-13296346D02*
X13402855Y-13286822D01*
X13555236Y-13467774D02*
X13564760Y-13477298D01*
X13564760Y-13477298D02*
X13555236Y-13486822D01*
X13555236Y-13486822D02*
X13545712Y-13477298D01*
X13545712Y-13477298D02*
X13555236Y-13467774D01*
X13555236Y-13467774D02*
X13555236Y-13486822D01*
X13631426Y-13286822D02*
X13764760Y-13286822D01*
X13764760Y-13286822D02*
X13679045Y-13486822D01*
X13879045Y-13286822D02*
X13898093Y-13286822D01*
X13898093Y-13286822D02*
X13917141Y-13296346D01*
X13917141Y-13296346D02*
X13926665Y-13305869D01*
X13926665Y-13305869D02*
X13936188Y-13324917D01*
X13936188Y-13324917D02*
X13945712Y-13363012D01*
X13945712Y-13363012D02*
X13945712Y-13410631D01*
X13945712Y-13410631D02*
X13936188Y-13448726D01*
X13936188Y-13448726D02*
X13926665Y-13467774D01*
X13926665Y-13467774D02*
X13917141Y-13477298D01*
X13917141Y-13477298D02*
X13898093Y-13486822D01*
X13898093Y-13486822D02*
X13879045Y-13486822D01*
X13879045Y-13486822D02*
X13859998Y-13477298D01*
X13859998Y-13477298D02*
X13850474Y-13467774D01*
X13850474Y-13467774D02*
X13840950Y-13448726D01*
X13840950Y-13448726D02*
X13831426Y-13410631D01*
X13831426Y-13410631D02*
X13831426Y-13363012D01*
X13831426Y-13363012D02*
X13840950Y-13324917D01*
X13840950Y-13324917D02*
X13850474Y-13305869D01*
X13850474Y-13305869D02*
X13859998Y-13296346D01*
X13859998Y-13296346D02*
X13879045Y-13286822D01*
X14069522Y-13286822D02*
X14088569Y-13286822D01*
X14088569Y-13286822D02*
X14107617Y-13296346D01*
X14107617Y-13296346D02*
X14117141Y-13305869D01*
X14117141Y-13305869D02*
X14126665Y-13324917D01*
X14126665Y-13324917D02*
X14136188Y-13363012D01*
X14136188Y-13363012D02*
X14136188Y-13410631D01*
X14136188Y-13410631D02*
X14126665Y-13448726D01*
X14126665Y-13448726D02*
X14117141Y-13467774D01*
X14117141Y-13467774D02*
X14107617Y-13477298D01*
X14107617Y-13477298D02*
X14088569Y-13486822D01*
X14088569Y-13486822D02*
X14069522Y-13486822D01*
X14069522Y-13486822D02*
X14050474Y-13477298D01*
X14050474Y-13477298D02*
X14040950Y-13467774D01*
X14040950Y-13467774D02*
X14031426Y-13448726D01*
X14031426Y-13448726D02*
X14021903Y-13410631D01*
X14021903Y-13410631D02*
X14021903Y-13363012D01*
X14021903Y-13363012D02*
X14031426Y-13324917D01*
X14031426Y-13324917D02*
X14040950Y-13305869D01*
X14040950Y-13305869D02*
X14050474Y-13296346D01*
X14050474Y-13296346D02*
X14069522Y-13286822D01*
X14221903Y-13486822D02*
X14221903Y-13353488D01*
X14221903Y-13372536D02*
X14231426Y-13363012D01*
X14231426Y-13363012D02*
X14250474Y-13353488D01*
X14250474Y-13353488D02*
X14279046Y-13353488D01*
X14279046Y-13353488D02*
X14298093Y-13363012D01*
X14298093Y-13363012D02*
X14307617Y-13382060D01*
X14307617Y-13382060D02*
X14307617Y-13486822D01*
X14307617Y-13382060D02*
X14317141Y-13363012D01*
X14317141Y-13363012D02*
X14336188Y-13353488D01*
X14336188Y-13353488D02*
X14364760Y-13353488D01*
X14364760Y-13353488D02*
X14383807Y-13363012D01*
X14383807Y-13363012D02*
X14393331Y-13382060D01*
X14393331Y-13382060D02*
X14393331Y-13486822D01*
X14488569Y-13486822D02*
X14488569Y-13353488D01*
X14488569Y-13372536D02*
X14498093Y-13363012D01*
X14498093Y-13363012D02*
X14517141Y-13353488D01*
X14517141Y-13353488D02*
X14545712Y-13353488D01*
X14545712Y-13353488D02*
X14564760Y-13363012D01*
X14564760Y-13363012D02*
X14574284Y-13382060D01*
X14574284Y-13382060D02*
X14574284Y-13486822D01*
X14574284Y-13382060D02*
X14583807Y-13363012D01*
X14583807Y-13363012D02*
X14602855Y-13353488D01*
X14602855Y-13353488D02*
X14631426Y-13353488D01*
X14631426Y-13353488D02*
X14650474Y-13363012D01*
X14650474Y-13363012D02*
X14659998Y-13382060D01*
X14659998Y-13382060D02*
X14659998Y-13486822D01*
X15050474Y-13277298D02*
X14879046Y-13534441D01*
X15307617Y-13286822D02*
X15326665Y-13286822D01*
X15326665Y-13286822D02*
X15345712Y-13296346D01*
X15345712Y-13296346D02*
X15355236Y-13305869D01*
X15355236Y-13305869D02*
X15364760Y-13324917D01*
X15364760Y-13324917D02*
X15374284Y-13363012D01*
X15374284Y-13363012D02*
X15374284Y-13410631D01*
X15374284Y-13410631D02*
X15364760Y-13448726D01*
X15364760Y-13448726D02*
X15355236Y-13467774D01*
X15355236Y-13467774D02*
X15345712Y-13477298D01*
X15345712Y-13477298D02*
X15326665Y-13486822D01*
X15326665Y-13486822D02*
X15307617Y-13486822D01*
X15307617Y-13486822D02*
X15288569Y-13477298D01*
X15288569Y-13477298D02*
X15279046Y-13467774D01*
X15279046Y-13467774D02*
X15269522Y-13448726D01*
X15269522Y-13448726D02*
X15259998Y-13410631D01*
X15259998Y-13410631D02*
X15259998Y-13363012D01*
X15259998Y-13363012D02*
X15269522Y-13324917D01*
X15269522Y-13324917D02*
X15279046Y-13305869D01*
X15279046Y-13305869D02*
X15288569Y-13296346D01*
X15288569Y-13296346D02*
X15307617Y-13286822D01*
X15459998Y-13467774D02*
X15469522Y-13477298D01*
X15469522Y-13477298D02*
X15459998Y-13486822D01*
X15459998Y-13486822D02*
X15450474Y-13477298D01*
X15450474Y-13477298D02*
X15459998Y-13467774D01*
X15459998Y-13467774D02*
X15459998Y-13486822D01*
X15593331Y-13286822D02*
X15612379Y-13286822D01*
X15612379Y-13286822D02*
X15631427Y-13296346D01*
X15631427Y-13296346D02*
X15640950Y-13305869D01*
X15640950Y-13305869D02*
X15650474Y-13324917D01*
X15650474Y-13324917D02*
X15659998Y-13363012D01*
X15659998Y-13363012D02*
X15659998Y-13410631D01*
X15659998Y-13410631D02*
X15650474Y-13448726D01*
X15650474Y-13448726D02*
X15640950Y-13467774D01*
X15640950Y-13467774D02*
X15631427Y-13477298D01*
X15631427Y-13477298D02*
X15612379Y-13486822D01*
X15612379Y-13486822D02*
X15593331Y-13486822D01*
X15593331Y-13486822D02*
X15574284Y-13477298D01*
X15574284Y-13477298D02*
X15564760Y-13467774D01*
X15564760Y-13467774D02*
X15555236Y-13448726D01*
X15555236Y-13448726D02*
X15545712Y-13410631D01*
X15545712Y-13410631D02*
X15545712Y-13363012D01*
X15545712Y-13363012D02*
X15555236Y-13324917D01*
X15555236Y-13324917D02*
X15564760Y-13305869D01*
X15564760Y-13305869D02*
X15574284Y-13296346D01*
X15574284Y-13296346D02*
X15593331Y-13286822D01*
X15736189Y-13305869D02*
X15745712Y-13296346D01*
X15745712Y-13296346D02*
X15764760Y-13286822D01*
X15764760Y-13286822D02*
X15812379Y-13286822D01*
X15812379Y-13286822D02*
X15831427Y-13296346D01*
X15831427Y-13296346D02*
X15840950Y-13305869D01*
X15840950Y-13305869D02*
X15850474Y-13324917D01*
X15850474Y-13324917D02*
X15850474Y-13343965D01*
X15850474Y-13343965D02*
X15840950Y-13372536D01*
X15840950Y-13372536D02*
X15726665Y-13486822D01*
X15726665Y-13486822D02*
X15850474Y-13486822D01*
X15917141Y-13286822D02*
X16050474Y-13286822D01*
X16050474Y-13286822D02*
X15964760Y-13486822D01*
X16212379Y-13286822D02*
X16174284Y-13286822D01*
X16174284Y-13286822D02*
X16155236Y-13296346D01*
X16155236Y-13296346D02*
X16145712Y-13305869D01*
X16145712Y-13305869D02*
X16126665Y-13334441D01*
X16126665Y-13334441D02*
X16117141Y-13372536D01*
X16117141Y-13372536D02*
X16117141Y-13448726D01*
X16117141Y-13448726D02*
X16126665Y-13467774D01*
X16126665Y-13467774D02*
X16136189Y-13477298D01*
X16136189Y-13477298D02*
X16155236Y-13486822D01*
X16155236Y-13486822D02*
X16193331Y-13486822D01*
X16193331Y-13486822D02*
X16212379Y-13477298D01*
X16212379Y-13477298D02*
X16221903Y-13467774D01*
X16221903Y-13467774D02*
X16231427Y-13448726D01*
X16231427Y-13448726D02*
X16231427Y-13401107D01*
X16231427Y-13401107D02*
X16221903Y-13382060D01*
X16221903Y-13382060D02*
X16212379Y-13372536D01*
X16212379Y-13372536D02*
X16193331Y-13363012D01*
X16193331Y-13363012D02*
X16155236Y-13363012D01*
X16155236Y-13363012D02*
X16136189Y-13372536D01*
X16136189Y-13372536D02*
X16126665Y-13382060D01*
X16126665Y-13382060D02*
X16117141Y-13401107D01*
X16307617Y-13286822D02*
X16307617Y-13324917D01*
X16383808Y-13286822D02*
X16383808Y-13324917D01*
X16679046Y-13563012D02*
X16669522Y-13553488D01*
X16669522Y-13553488D02*
X16650474Y-13524917D01*
X16650474Y-13524917D02*
X16640951Y-13505869D01*
X16640951Y-13505869D02*
X16631427Y-13477298D01*
X16631427Y-13477298D02*
X16621903Y-13429679D01*
X16621903Y-13429679D02*
X16621903Y-13391584D01*
X16621903Y-13391584D02*
X16631427Y-13343965D01*
X16631427Y-13343965D02*
X16640951Y-13315393D01*
X16640951Y-13315393D02*
X16650474Y-13296346D01*
X16650474Y-13296346D02*
X16669522Y-13267774D01*
X16669522Y-13267774D02*
X16679046Y-13258250D01*
X16859998Y-13486822D02*
X16745712Y-13486822D01*
X16802855Y-13486822D02*
X16802855Y-13286822D01*
X16802855Y-13286822D02*
X16783808Y-13315393D01*
X16783808Y-13315393D02*
X16764760Y-13334441D01*
X16764760Y-13334441D02*
X16745712Y-13343965D01*
X16983808Y-13286822D02*
X17002855Y-13286822D01*
X17002855Y-13286822D02*
X17021903Y-13296346D01*
X17021903Y-13296346D02*
X17031427Y-13305869D01*
X17031427Y-13305869D02*
X17040951Y-13324917D01*
X17040951Y-13324917D02*
X17050474Y-13363012D01*
X17050474Y-13363012D02*
X17050474Y-13410631D01*
X17050474Y-13410631D02*
X17040951Y-13448726D01*
X17040951Y-13448726D02*
X17031427Y-13467774D01*
X17031427Y-13467774D02*
X17021903Y-13477298D01*
X17021903Y-13477298D02*
X17002855Y-13486822D01*
X17002855Y-13486822D02*
X16983808Y-13486822D01*
X16983808Y-13486822D02*
X16964760Y-13477298D01*
X16964760Y-13477298D02*
X16955236Y-13467774D01*
X16955236Y-13467774D02*
X16945713Y-13448726D01*
X16945713Y-13448726D02*
X16936189Y-13410631D01*
X16936189Y-13410631D02*
X16936189Y-13363012D01*
X16936189Y-13363012D02*
X16945713Y-13324917D01*
X16945713Y-13324917D02*
X16955236Y-13305869D01*
X16955236Y-13305869D02*
X16964760Y-13296346D01*
X16964760Y-13296346D02*
X16983808Y-13286822D01*
X17288570Y-13486822D02*
X17288570Y-13286822D01*
X17374284Y-13486822D02*
X17374284Y-13382060D01*
X17374284Y-13382060D02*
X17364760Y-13363012D01*
X17364760Y-13363012D02*
X17345713Y-13353488D01*
X17345713Y-13353488D02*
X17317141Y-13353488D01*
X17317141Y-13353488D02*
X17298094Y-13363012D01*
X17298094Y-13363012D02*
X17288570Y-13372536D01*
X17498094Y-13486822D02*
X17479046Y-13477298D01*
X17479046Y-13477298D02*
X17469522Y-13467774D01*
X17469522Y-13467774D02*
X17459998Y-13448726D01*
X17459998Y-13448726D02*
X17459998Y-13391584D01*
X17459998Y-13391584D02*
X17469522Y-13372536D01*
X17469522Y-13372536D02*
X17479046Y-13363012D01*
X17479046Y-13363012D02*
X17498094Y-13353488D01*
X17498094Y-13353488D02*
X17526665Y-13353488D01*
X17526665Y-13353488D02*
X17545713Y-13363012D01*
X17545713Y-13363012D02*
X17555236Y-13372536D01*
X17555236Y-13372536D02*
X17564760Y-13391584D01*
X17564760Y-13391584D02*
X17564760Y-13448726D01*
X17564760Y-13448726D02*
X17555236Y-13467774D01*
X17555236Y-13467774D02*
X17545713Y-13477298D01*
X17545713Y-13477298D02*
X17526665Y-13486822D01*
X17526665Y-13486822D02*
X17498094Y-13486822D01*
X17679046Y-13486822D02*
X17659998Y-13477298D01*
X17659998Y-13477298D02*
X17650475Y-13458250D01*
X17650475Y-13458250D02*
X17650475Y-13286822D01*
X17831427Y-13477298D02*
X17812379Y-13486822D01*
X17812379Y-13486822D02*
X17774284Y-13486822D01*
X17774284Y-13486822D02*
X17755236Y-13477298D01*
X17755236Y-13477298D02*
X17745713Y-13458250D01*
X17745713Y-13458250D02*
X17745713Y-13382060D01*
X17745713Y-13382060D02*
X17755236Y-13363012D01*
X17755236Y-13363012D02*
X17774284Y-13353488D01*
X17774284Y-13353488D02*
X17812379Y-13353488D01*
X17812379Y-13353488D02*
X17831427Y-13363012D01*
X17831427Y-13363012D02*
X17840951Y-13382060D01*
X17840951Y-13382060D02*
X17840951Y-13401107D01*
X17840951Y-13401107D02*
X17745713Y-13420155D01*
X17917141Y-13477298D02*
X17936189Y-13486822D01*
X17936189Y-13486822D02*
X17974284Y-13486822D01*
X17974284Y-13486822D02*
X17993332Y-13477298D01*
X17993332Y-13477298D02*
X18002856Y-13458250D01*
X18002856Y-13458250D02*
X18002856Y-13448726D01*
X18002856Y-13448726D02*
X17993332Y-13429679D01*
X17993332Y-13429679D02*
X17974284Y-13420155D01*
X17974284Y-13420155D02*
X17945713Y-13420155D01*
X17945713Y-13420155D02*
X17926665Y-13410631D01*
X17926665Y-13410631D02*
X17917141Y-13391584D01*
X17917141Y-13391584D02*
X17917141Y-13382060D01*
X17917141Y-13382060D02*
X17926665Y-13363012D01*
X17926665Y-13363012D02*
X17945713Y-13353488D01*
X17945713Y-13353488D02*
X17974284Y-13353488D01*
X17974284Y-13353488D02*
X17993332Y-13363012D01*
X18069522Y-13563012D02*
X18079046Y-13553488D01*
X18079046Y-13553488D02*
X18098094Y-13524917D01*
X18098094Y-13524917D02*
X18107617Y-13505869D01*
X18107617Y-13505869D02*
X18117141Y-13477298D01*
X18117141Y-13477298D02*
X18126665Y-13429679D01*
X18126665Y-13429679D02*
X18126665Y-13391584D01*
X18126665Y-13391584D02*
X18117141Y-13343965D01*
X18117141Y-13343965D02*
X18107617Y-13315393D01*
X18107617Y-13315393D02*
X18098094Y-13296346D01*
X18098094Y-13296346D02*
X18079046Y-13267774D01*
X18079046Y-13267774D02*
X18069522Y-13258250D01*
M02*
