%TF.GenerationSoftware,KiCad,Pcbnew,8.0.2*%
%TF.CreationDate,2024-08-28T15:29:38+05:30*%
%TF.ProjectId,CTF LED matrix,43544620-4c45-4442-906d-61747269782e,rev?*%
%TF.SameCoordinates,Original*%
%TF.FileFunction,Drillmap*%
%TF.FilePolarity,Positive*%
%FSLAX45Y45*%
G04 Gerber Fmt 4.5, Leading zero omitted, Abs format (unit mm)*
G04 Created by KiCad (PCBNEW 8.0.2) date 2024-08-28 15:29:38*
%MOMM*%
%LPD*%
G01*
G04 APERTURE LIST*
%ADD10C,0.050000*%
%ADD11C,0.200000*%
G04 APERTURE END LIST*
D10*
X15963844Y-12224703D02*
X15961391Y-12224778D01*
X15968747Y-12224462D02*
X15966297Y-12224597D01*
X15961391Y-12224778D02*
X15958937Y-12224823D01*
X15971196Y-12224296D02*
X15968747Y-12224462D01*
X15966297Y-12224597D02*
X15963844Y-12224703D01*
X15956483Y-12224838D02*
X13306483Y-12224838D01*
X15958937Y-12224823D02*
X15956483Y-12224838D01*
X16111085Y-12151717D02*
X16109517Y-12153604D01*
X16109517Y-12153604D02*
X16107925Y-12155473D01*
X16114152Y-12147884D02*
X16112630Y-12149810D01*
X16117125Y-12143978D02*
X16115650Y-12145940D01*
X16126754Y-12129756D02*
X16125454Y-12131838D01*
X16125454Y-12131838D02*
X16124128Y-12133903D01*
X16118574Y-12141998D02*
X16117125Y-12143978D01*
X16120000Y-12140000D02*
X16118574Y-12141998D01*
X16122777Y-12135952D02*
X16121401Y-12137984D01*
X16128029Y-12127659D02*
X16126754Y-12129756D01*
X16129278Y-12125546D02*
X16128029Y-12127659D01*
X16132867Y-12119117D02*
X16131697Y-12121275D01*
X16136218Y-12112561D02*
X16135128Y-12114760D01*
X16142184Y-12099101D02*
X16141259Y-12101375D01*
X16147871Y-12082895D02*
X16147144Y-12085239D01*
X16148569Y-12080542D02*
X16147871Y-12082895D01*
X16149238Y-12078181D02*
X16148569Y-12080542D01*
X16154318Y-12054184D02*
X16153943Y-12056610D01*
X16154979Y-12049320D02*
X16154664Y-12051754D01*
X16151623Y-12068658D02*
X16151071Y-12071050D01*
X16149878Y-12075811D02*
X16149238Y-12078181D01*
X16155746Y-7407678D02*
X16155941Y-7410125D01*
X16152147Y-12066260D02*
X16151623Y-12068658D01*
X16153104Y-12061446D02*
X16152640Y-12063856D01*
X16154664Y-12051754D02*
X16154318Y-12054184D01*
X16153943Y-12056610D02*
X16153539Y-12059030D01*
X16155264Y-12046882D02*
X16154979Y-12049320D01*
X16134011Y-12116946D02*
X16132867Y-12119117D01*
X16150489Y-12073434D02*
X16149878Y-12075811D01*
X16135128Y-12114760D02*
X16134011Y-12116946D01*
X16138317Y-12108124D02*
X16137281Y-12110349D01*
X16156242Y-12034652D02*
X16156107Y-12037102D01*
X16156423Y-12029746D02*
X16156348Y-12032199D01*
X16141259Y-12101375D02*
X16140306Y-12103636D01*
X16145605Y-12089900D02*
X16144792Y-12092216D01*
X16152640Y-12063856D02*
X16152147Y-12066260D01*
X16155520Y-12044441D02*
X16155264Y-12046882D01*
X16156348Y-12032199D02*
X16156242Y-12034652D01*
X16156107Y-7412574D02*
X16156242Y-7415024D01*
X16156242Y-7415024D02*
X16156348Y-7417477D01*
X16155941Y-7410125D02*
X16156107Y-7412574D01*
X16156423Y-7419930D02*
X16156468Y-7422384D01*
X16155746Y-12041998D02*
X16155520Y-12044441D01*
X16124128Y-12133903D02*
X16122777Y-12135952D01*
X16121401Y-12137984D02*
X16120000Y-12140000D01*
X16143082Y-12096817D02*
X16142184Y-12099101D01*
X16146389Y-12087574D02*
X16145605Y-12089900D01*
X16156348Y-7417477D02*
X16156423Y-7419930D01*
X16156483Y-12024838D02*
X16156468Y-12027292D01*
X16112630Y-12149810D02*
X16111085Y-12151717D01*
X16115650Y-12145940D02*
X16114152Y-12147884D01*
X16139325Y-12105886D02*
X16138317Y-12108124D01*
X16140306Y-12103636D02*
X16139325Y-12105886D01*
X16156468Y-12027292D02*
X16156423Y-12029746D01*
X16156468Y-7422384D02*
X16156483Y-7424838D01*
X16131697Y-12121275D02*
X16130500Y-12123418D01*
X16156483Y-7424838D02*
X16156483Y-12024838D01*
X16137281Y-12110349D02*
X16136218Y-12112561D01*
X16130500Y-12123418D02*
X16129278Y-12125546D01*
X16143951Y-12094522D02*
X16143082Y-12096817D01*
X16144792Y-12092216D02*
X16143951Y-12094522D01*
X16147144Y-12085239D02*
X16146389Y-12087574D01*
X16153539Y-12059030D02*
X16153104Y-12061446D01*
X16151071Y-12071050D02*
X16150489Y-12073434D01*
X16155941Y-12039551D02*
X16155746Y-12041998D01*
X16156107Y-12037102D02*
X16155941Y-12039551D01*
X16155520Y-7405235D02*
X16155746Y-7407678D01*
X16155264Y-7402794D02*
X16155520Y-7405235D01*
X16154979Y-7400356D02*
X16155264Y-7402794D01*
X16145605Y-7359776D02*
X16146389Y-7362102D01*
X16149238Y-7371495D02*
X16149878Y-7373865D01*
X16154664Y-7397922D02*
X16154979Y-7400356D01*
X16154318Y-7395492D02*
X16154664Y-7397922D01*
X16153943Y-7393066D02*
X16154318Y-7395492D01*
X16147871Y-7366781D02*
X16148569Y-7369134D01*
X16153539Y-7390646D02*
X16153943Y-7393066D01*
X16153104Y-7388230D02*
X16153539Y-7390646D01*
X16152640Y-7385820D02*
X16153104Y-7388230D01*
X16152147Y-7383416D02*
X16152640Y-7385820D01*
X16151623Y-7381018D02*
X16152147Y-7383416D01*
X16148569Y-7369134D02*
X16149238Y-7371495D01*
X16142184Y-7350575D02*
X16143082Y-7352859D01*
X16094391Y-7279989D02*
X16096158Y-7281692D01*
X16130500Y-7326258D02*
X16131697Y-7328401D01*
X16151071Y-7378626D02*
X16151623Y-7381018D01*
X16146389Y-7362102D02*
X16147144Y-7364437D01*
X16101332Y-7286930D02*
X16103014Y-7288718D01*
X16150489Y-7376242D02*
X16151071Y-7378626D01*
X16092603Y-7278307D02*
X16094391Y-7279989D01*
X16143082Y-7352859D02*
X16143951Y-7355154D01*
X16149878Y-7373865D02*
X16150489Y-7376242D01*
X16147144Y-7364437D02*
X16147871Y-7366781D01*
X16122777Y-7313724D02*
X16124128Y-7315773D01*
X16111085Y-7297959D02*
X16112630Y-7299866D01*
X16143951Y-7355154D02*
X16144792Y-7357460D01*
X16141259Y-7348301D02*
X16142184Y-7350575D01*
X16134011Y-7332730D02*
X16135128Y-7334916D01*
X16129278Y-7324130D02*
X16130500Y-7326258D01*
X16097904Y-7283417D02*
X16099629Y-7285163D01*
X16140306Y-7346040D02*
X16141259Y-7348301D01*
X16139325Y-7343790D02*
X16140306Y-7346040D01*
X16118574Y-7307678D02*
X16120000Y-7309676D01*
X16085249Y-7271804D02*
X16087118Y-7273396D01*
X16106310Y-7292355D02*
X16107925Y-7294203D01*
X16103014Y-7288718D02*
X16104673Y-7290526D01*
X16109517Y-7296072D02*
X16111085Y-7297959D01*
X16088966Y-7275011D02*
X16090795Y-7276648D01*
X16138317Y-7341552D02*
X16139325Y-7343790D01*
X16136218Y-7337115D02*
X16137281Y-7339327D01*
X16135128Y-7334916D02*
X16136218Y-7337115D01*
X16107925Y-7294203D02*
X16109517Y-7296072D01*
X16132867Y-7330559D02*
X16134011Y-7332730D01*
X16131697Y-7328401D02*
X16132867Y-7330559D01*
X16128029Y-7322017D02*
X16129278Y-7324130D01*
X16124128Y-7315773D02*
X16125454Y-7317838D01*
X16117125Y-7305698D02*
X16118574Y-7307678D01*
X16114152Y-7301792D02*
X16115650Y-7303736D01*
X16115650Y-7303736D02*
X16117125Y-7305698D01*
X16090795Y-7276648D02*
X16092603Y-7278307D01*
X16087118Y-7273396D02*
X16088966Y-7275011D01*
X16112630Y-7299866D02*
X16114152Y-7301792D01*
X16126754Y-7319920D02*
X16128029Y-7322017D01*
X16099629Y-7285163D02*
X16101332Y-7286930D01*
X16104673Y-7290526D02*
X16106310Y-7292355D01*
X16096158Y-7281692D02*
X16097904Y-7283417D01*
X16120000Y-7309676D02*
X16121401Y-7311692D01*
X16125454Y-7317838D02*
X16126754Y-7319920D01*
X16137281Y-7339327D02*
X16138317Y-7341552D01*
X16144792Y-7357460D02*
X16145605Y-7359776D01*
X16121401Y-7311692D02*
X16122777Y-7313724D01*
X15973643Y-12224101D02*
X15971196Y-12224296D01*
X15976086Y-12223875D02*
X15973643Y-12224101D01*
X15978527Y-12223619D02*
X15976086Y-12223875D01*
X15980965Y-12223334D02*
X15978527Y-12223619D01*
X15983399Y-12223019D02*
X15980965Y-12223334D01*
X15985829Y-12222673D02*
X15983399Y-12223019D01*
X15988255Y-12222298D02*
X15985829Y-12222673D01*
X15990675Y-12221894D02*
X15988255Y-12222298D01*
X15995501Y-12220995D02*
X15993091Y-12221459D01*
X16000303Y-12219978D02*
X15997905Y-12220502D01*
X16005079Y-12218844D02*
X16002695Y-12219426D01*
X16007456Y-12218233D02*
X16005079Y-12218844D01*
X16012187Y-12216924D02*
X16009826Y-12217593D01*
X16014540Y-12216226D02*
X16012187Y-12216924D01*
X16016884Y-12215499D02*
X16014540Y-12216226D01*
X16026167Y-12212306D02*
X16023861Y-12213147D01*
X16033020Y-12209614D02*
X16030746Y-12210539D01*
X16035281Y-12208661D02*
X16033020Y-12209614D01*
X16037531Y-12207680D02*
X16035281Y-12208661D01*
X16039769Y-12206672D02*
X16037531Y-12207680D01*
X16044206Y-12204573D02*
X16041994Y-12205636D01*
X16052920Y-12200052D02*
X16050762Y-12201222D01*
X16061401Y-12195109D02*
X16059304Y-12196384D01*
X16050762Y-12201222D02*
X16048591Y-12202366D01*
X16046405Y-12203483D02*
X16044206Y-12204573D01*
X16055063Y-12198855D02*
X16052920Y-12200052D01*
X16063483Y-12193809D02*
X16061401Y-12195109D01*
X16073643Y-12186929D02*
X16071645Y-12188355D01*
X16081455Y-12180985D02*
X16079529Y-12182507D01*
X16097904Y-12166259D02*
X16096158Y-12167984D01*
X16083362Y-12179440D02*
X16081455Y-12180985D01*
X16077585Y-12184005D02*
X16075623Y-12185480D01*
X16079529Y-12182507D02*
X16077585Y-12184005D01*
X16090795Y-12173028D02*
X16088966Y-12174665D01*
X16092603Y-12171369D02*
X16090795Y-12173028D01*
X16096158Y-12167984D02*
X16094391Y-12169687D01*
X16107925Y-12155473D02*
X16106310Y-12157321D01*
X16104673Y-12159150D02*
X16103014Y-12160958D01*
X16057191Y-12197633D02*
X16055063Y-12198855D01*
X16059304Y-12196384D02*
X16057191Y-12197633D01*
X16085249Y-12177872D02*
X16083362Y-12179440D01*
X16103014Y-12160958D02*
X16101332Y-12162746D01*
X16099629Y-12164513D02*
X16097904Y-12166259D01*
X16075623Y-12185480D02*
X16073643Y-12186929D01*
X16094391Y-12169687D02*
X16092603Y-12171369D01*
X16087118Y-12176280D02*
X16085249Y-12177872D01*
X16065548Y-12192483D02*
X16063483Y-12193809D01*
X16019219Y-12214744D02*
X16016884Y-12215499D01*
X16106310Y-12157321D02*
X16104673Y-12159150D01*
X16009826Y-12217593D02*
X16007456Y-12218233D01*
X16023861Y-12213147D02*
X16021545Y-12213960D01*
X16088966Y-12174665D02*
X16087118Y-12176280D01*
X16069629Y-12189756D02*
X16067597Y-12191132D01*
X16041994Y-12205636D02*
X16039769Y-12206672D01*
X15997905Y-12220502D02*
X15995501Y-12220995D01*
X15993091Y-12221459D02*
X15990675Y-12221894D01*
X16030746Y-12210539D02*
X16028462Y-12211437D01*
X16002695Y-12219426D02*
X16000303Y-12219978D01*
X16071645Y-12188355D02*
X16069629Y-12189756D01*
X16101332Y-12162746D02*
X16099629Y-12164513D01*
X16048591Y-12202366D02*
X16046405Y-12203483D01*
X16067597Y-12191132D02*
X16065548Y-12192483D01*
X16021545Y-12213960D02*
X16019219Y-12214744D01*
X16028462Y-12211437D02*
X16026167Y-12212306D01*
X16014540Y-7233450D02*
X16016884Y-7234177D01*
X16055063Y-7250821D02*
X16057191Y-7252043D01*
X16075623Y-7264196D02*
X16077585Y-7265671D01*
X16026167Y-7237370D02*
X16028462Y-7238239D01*
X16030746Y-7239137D02*
X16033020Y-7240062D01*
X16067597Y-7258544D02*
X16069629Y-7259920D01*
X16065548Y-7257193D02*
X16067597Y-7258544D01*
X16052920Y-7249624D02*
X16055063Y-7250821D01*
X16039769Y-7243004D02*
X16041994Y-7244040D01*
X16037531Y-7241996D02*
X16039769Y-7243004D01*
X16035281Y-7241015D02*
X16037531Y-7241996D01*
X16016884Y-7234177D02*
X16019219Y-7234932D01*
X16028462Y-7238239D02*
X16030746Y-7239137D01*
X16083362Y-7270236D02*
X16085249Y-7271804D01*
X16081455Y-7268691D02*
X16083362Y-7270236D01*
X16050762Y-7248454D02*
X16052920Y-7249624D01*
X16077585Y-7265671D02*
X16079529Y-7267169D01*
X16063483Y-7255867D02*
X16065548Y-7257193D01*
X16041994Y-7244040D02*
X16044206Y-7245103D01*
X16046405Y-7246193D02*
X16048591Y-7247310D01*
X16048591Y-7247310D02*
X16050762Y-7248454D01*
X16021545Y-7235716D02*
X16023861Y-7236529D01*
X16073643Y-7262747D02*
X16075623Y-7264196D01*
X16057191Y-7252043D02*
X16059304Y-7253292D01*
X16071645Y-7261321D02*
X16073643Y-7262747D01*
X16059304Y-7253292D02*
X16061401Y-7254567D01*
X16019219Y-7234932D02*
X16021545Y-7235716D01*
X16044206Y-7245103D02*
X16046405Y-7246193D01*
X16023861Y-7236529D02*
X16026167Y-7237370D01*
X16061401Y-7254567D02*
X16063483Y-7255867D01*
X16033020Y-7240062D02*
X16035281Y-7241015D01*
X16079529Y-7267169D02*
X16081455Y-7268691D01*
X16069629Y-7259920D02*
X16071645Y-7261321D01*
X16012187Y-7232752D02*
X16014540Y-7233450D01*
X16009826Y-7232083D02*
X16012187Y-7232752D01*
X16007456Y-7231443D02*
X16009826Y-7232083D01*
X16005079Y-7230832D02*
X16007456Y-7231443D01*
X16002695Y-7230250D02*
X16005079Y-7230832D01*
X16000303Y-7229698D02*
X16002695Y-7230250D01*
X15997905Y-7229174D02*
X16000303Y-7229698D01*
X15990675Y-7227782D02*
X15993091Y-7228217D01*
X15988255Y-7227378D02*
X15990675Y-7227782D01*
X15983399Y-7226657D02*
X15985829Y-7227003D01*
X15978527Y-7226057D02*
X15980965Y-7226342D01*
X15976086Y-7225801D02*
X15978527Y-7226057D01*
X15963844Y-7224973D02*
X15966297Y-7225079D01*
X13299122Y-7224973D02*
X13301575Y-7224898D01*
X13286880Y-7225801D02*
X13289323Y-7225575D01*
X13279567Y-7226657D02*
X13282001Y-7226342D01*
X13232220Y-7239137D02*
X13234504Y-7238239D01*
X13277137Y-7227003D02*
X13279567Y-7226657D01*
X13274711Y-7227378D02*
X13277137Y-7227003D01*
X13246082Y-7234177D02*
X13248426Y-7233450D01*
X13236799Y-7237370D02*
X13239105Y-7236529D01*
X13214375Y-7247310D02*
X13216561Y-7246193D01*
X15973643Y-7225575D02*
X15976086Y-7225801D01*
X13306483Y-7224838D02*
X15956483Y-7224838D01*
X13301575Y-7224898D02*
X13304029Y-7224853D01*
X13250779Y-7232752D02*
X13253140Y-7232083D01*
X15971196Y-7225380D02*
X15973643Y-7225575D01*
X15968747Y-7225214D02*
X15971196Y-7225380D01*
X13262663Y-7229698D02*
X13265061Y-7229174D01*
X13253140Y-7232083D02*
X13255510Y-7231443D01*
X15961391Y-7224898D02*
X15963844Y-7224973D01*
X15956483Y-7224838D02*
X15958937Y-7224853D01*
X13257887Y-7230832D02*
X13260271Y-7230250D01*
X13239105Y-7236529D02*
X13241421Y-7235716D01*
X13282001Y-7226342D02*
X13284439Y-7226057D01*
X13234504Y-7238239D02*
X13236799Y-7237370D01*
X13260271Y-7230250D02*
X13262663Y-7229698D01*
X13255510Y-7231443D02*
X13257887Y-7230832D01*
X13248426Y-7233450D02*
X13250779Y-7232752D01*
X13241421Y-7235716D02*
X13243747Y-7234932D01*
X13229946Y-7240062D02*
X13232220Y-7239137D01*
X13225435Y-7241996D02*
X13227685Y-7241015D01*
X13218760Y-7245103D02*
X13220972Y-7244040D01*
X15966297Y-7225079D02*
X15968747Y-7225214D01*
X15958937Y-7224853D02*
X15961391Y-7224898D01*
X13272291Y-7227782D02*
X13274711Y-7227378D01*
X13289323Y-7225575D02*
X13291770Y-7225380D01*
X13267465Y-7228681D02*
X13269875Y-7228217D01*
X13220972Y-7244040D02*
X13223197Y-7243004D01*
X13216561Y-7246193D02*
X13218760Y-7245103D01*
X13243747Y-7234932D02*
X13246082Y-7234177D01*
X13265061Y-7229174D02*
X13267465Y-7228681D01*
X13223197Y-7243004D02*
X13225435Y-7241996D01*
X15993091Y-7228217D02*
X15995501Y-7228681D01*
X15995501Y-7228681D02*
X15997905Y-7229174D01*
X13269875Y-7228217D02*
X13272291Y-7227782D01*
X15985829Y-7227003D02*
X15988255Y-7227378D01*
X15980965Y-7226342D02*
X15983399Y-7226657D01*
X13294219Y-7225214D02*
X13296669Y-7225079D01*
X13291770Y-7225380D02*
X13294219Y-7225214D01*
X13304029Y-7224853D02*
X13306483Y-7224838D01*
X13296669Y-7225079D02*
X13299122Y-7224973D01*
X13284439Y-7226057D02*
X13286880Y-7225801D01*
X13227685Y-7241015D02*
X13229946Y-7240062D01*
X13153449Y-7296072D02*
X13155041Y-7294203D01*
X13203662Y-7253292D02*
X13205775Y-7252043D01*
X13158293Y-7290526D02*
X13159952Y-7288718D01*
X13199483Y-7255867D02*
X13201565Y-7254567D01*
X13168575Y-7279989D02*
X13170363Y-7278307D01*
X13205775Y-7252043D02*
X13207903Y-7250821D01*
X13181511Y-7268691D02*
X13183437Y-7267169D01*
X13151881Y-7297959D02*
X13153449Y-7296072D01*
X13185381Y-7265671D02*
X13187343Y-7264196D01*
X13183437Y-7267169D02*
X13185381Y-7265671D01*
X13155041Y-7294203D02*
X13156656Y-7292355D01*
X13175848Y-7273396D02*
X13177717Y-7271804D01*
X13212204Y-7248454D02*
X13214375Y-7247310D01*
X13177717Y-7271804D02*
X13179604Y-7270236D01*
X13197418Y-7257193D02*
X13199483Y-7255867D01*
X13166808Y-7281692D02*
X13168575Y-7279989D01*
X13207903Y-7250821D02*
X13210046Y-7249624D01*
X13201565Y-7254567D02*
X13203662Y-7253292D01*
X13195369Y-7258544D02*
X13197418Y-7257193D01*
X13189323Y-7262747D02*
X13191321Y-7261321D01*
X13179604Y-7270236D02*
X13181511Y-7268691D01*
X13172171Y-7276648D02*
X13174000Y-7275011D01*
X13170363Y-7278307D02*
X13172171Y-7276648D01*
X13163337Y-7285163D02*
X13165062Y-7283417D01*
X13156656Y-7292355D02*
X13158293Y-7290526D01*
X13161634Y-7286930D02*
X13163337Y-7285163D01*
X13191321Y-7261321D02*
X13193337Y-7259920D01*
X13210046Y-7249624D02*
X13212204Y-7248454D01*
X13187343Y-7264196D02*
X13189323Y-7262747D01*
X13174000Y-7275011D02*
X13175848Y-7273396D01*
X13193337Y-7259920D02*
X13195369Y-7258544D01*
X13165062Y-7283417D02*
X13166808Y-7281692D01*
X13159952Y-7288718D02*
X13161634Y-7286930D01*
X13142966Y-7309676D02*
X13144392Y-7307678D01*
X13148814Y-7301792D02*
X13150336Y-7299866D01*
X13147316Y-7303736D02*
X13148814Y-7301792D01*
X13144392Y-7307678D02*
X13145841Y-7305698D01*
X13145841Y-7305698D02*
X13147316Y-7303736D01*
X13141565Y-7311692D02*
X13142966Y-7309676D01*
X13137512Y-7317838D02*
X13138838Y-7315773D01*
X13136212Y-7319920D02*
X13137512Y-7317838D01*
X13133688Y-7324130D02*
X13134937Y-7322017D01*
X13134937Y-7322017D02*
X13136212Y-7319920D01*
X13131269Y-7328401D02*
X13132466Y-7326258D01*
X13130099Y-7330559D02*
X13131269Y-7328401D01*
X13124649Y-7341552D02*
X13125685Y-7339327D01*
X13126748Y-7337115D02*
X13127838Y-7334916D01*
X13123641Y-7343790D02*
X13124649Y-7341552D01*
X13117361Y-7359776D02*
X13118174Y-7357460D01*
X13107220Y-7407678D02*
X13107446Y-7405235D01*
X13119015Y-7355154D02*
X13119884Y-7352859D01*
X13116577Y-7362102D02*
X13117361Y-7359776D01*
X13109023Y-7393066D02*
X13109427Y-7390646D01*
X13115822Y-7364437D02*
X13116577Y-7362102D01*
X13107702Y-7402794D02*
X13107987Y-7400356D01*
X13125685Y-7339327D02*
X13126748Y-7337115D01*
X13109862Y-7388230D02*
X13110326Y-7385820D01*
X13106543Y-7419930D02*
X13106618Y-7417477D01*
X13107025Y-12039551D02*
X13106859Y-12037102D01*
X13118174Y-7357460D02*
X13119015Y-7355154D01*
X13112477Y-7376242D02*
X13113088Y-7373865D01*
X13111895Y-7378626D02*
X13112477Y-7376242D01*
X13110326Y-7385820D02*
X13110819Y-7383416D01*
X13111343Y-7381018D02*
X13111895Y-7378626D01*
X13106483Y-12024838D02*
X13106483Y-7424838D01*
X13106498Y-12027292D02*
X13106483Y-12024838D01*
X13107987Y-7400356D02*
X13108302Y-7397922D01*
X13110819Y-7383416D02*
X13111343Y-7381018D01*
X13107446Y-7405235D02*
X13107702Y-7402794D01*
X13109427Y-7390646D02*
X13109862Y-7388230D01*
X13108302Y-7397922D02*
X13108648Y-7395492D01*
X13107025Y-7410125D02*
X13107220Y-7407678D01*
X13106483Y-7424838D02*
X13106498Y-7422384D01*
X13106618Y-12032199D02*
X13106543Y-12029746D01*
X13106724Y-7415024D02*
X13106859Y-7412574D01*
X13127838Y-7334916D02*
X13128955Y-7332730D01*
X13120782Y-7350575D02*
X13121707Y-7348301D01*
X13106859Y-12037102D02*
X13106724Y-12034652D01*
X13115095Y-7366781D02*
X13115822Y-7364437D01*
X13106498Y-7422384D02*
X13106543Y-7419930D01*
X13150336Y-7299866D02*
X13151881Y-7297959D01*
X13138838Y-7315773D02*
X13140189Y-7313724D01*
X13113728Y-7371495D02*
X13114397Y-7369134D01*
X13108648Y-7395492D02*
X13109023Y-7393066D01*
X13113088Y-7373865D02*
X13113728Y-7371495D01*
X13106618Y-7417477D02*
X13106724Y-7415024D01*
X13140189Y-7313724D02*
X13141565Y-7311692D01*
X13122660Y-7346040D02*
X13123641Y-7343790D01*
X13114397Y-7369134D02*
X13115095Y-7366781D01*
X13121707Y-7348301D02*
X13122660Y-7346040D01*
X13132466Y-7326258D02*
X13133688Y-7324130D01*
X13128955Y-7332730D02*
X13130099Y-7330559D01*
X13106724Y-12034652D02*
X13106618Y-12032199D01*
X13107220Y-12041998D02*
X13107025Y-12039551D01*
X13106543Y-12029746D02*
X13106498Y-12027292D01*
X13119884Y-7352859D02*
X13120782Y-7350575D01*
X13106859Y-7412574D02*
X13107025Y-7410125D01*
X13128955Y-12116946D02*
X13127838Y-12114760D01*
X13119015Y-12094522D02*
X13118174Y-12092216D01*
X13127838Y-12114760D02*
X13126748Y-12112561D01*
X13114397Y-12080542D02*
X13113728Y-12078181D01*
X13124649Y-12108124D02*
X13123641Y-12105886D01*
X13123641Y-12105886D02*
X13122660Y-12103636D01*
X13109862Y-12061446D02*
X13109427Y-12059030D01*
X13122660Y-12103636D02*
X13121707Y-12101375D01*
X13120782Y-12099101D02*
X13119884Y-12096817D01*
X13125685Y-12110349D02*
X13124649Y-12108124D01*
X13111895Y-12071050D02*
X13111343Y-12068658D01*
X13107446Y-12044441D02*
X13107220Y-12041998D01*
X13111343Y-12068658D02*
X13110819Y-12066260D01*
X13107702Y-12046882D02*
X13107446Y-12044441D01*
X13115095Y-12082895D02*
X13114397Y-12080542D01*
X13130099Y-12119117D02*
X13128955Y-12116946D01*
X13126748Y-12112561D02*
X13125685Y-12110349D01*
X13107987Y-12049320D02*
X13107702Y-12046882D01*
X13108648Y-12054184D02*
X13108302Y-12051754D01*
X13110819Y-12066260D02*
X13110326Y-12063856D01*
X13113088Y-12075811D02*
X13112477Y-12073434D01*
X13113728Y-12078181D02*
X13113088Y-12075811D01*
X13116577Y-12087574D02*
X13115822Y-12085239D01*
X13119884Y-12096817D02*
X13119015Y-12094522D01*
X13117361Y-12089900D02*
X13116577Y-12087574D01*
X13109023Y-12056610D02*
X13108648Y-12054184D01*
X13108302Y-12051754D02*
X13107987Y-12049320D01*
X13109427Y-12059030D02*
X13109023Y-12056610D01*
X13112477Y-12073434D02*
X13111895Y-12071050D01*
X13110326Y-12063856D02*
X13109862Y-12061446D01*
X13115822Y-12085239D02*
X13115095Y-12082895D01*
X13118174Y-12092216D02*
X13117361Y-12089900D01*
X13121707Y-12101375D02*
X13120782Y-12099101D01*
X13132466Y-12123418D02*
X13131269Y-12121275D01*
X13131269Y-12121275D02*
X13130099Y-12119117D01*
X13133688Y-12125546D02*
X13132466Y-12123418D01*
X13136212Y-12129756D02*
X13134937Y-12127659D01*
X13137512Y-12131838D02*
X13136212Y-12129756D01*
X13138838Y-12133903D02*
X13137512Y-12131838D01*
X13140189Y-12135952D02*
X13138838Y-12133903D01*
X13165062Y-12166259D02*
X13163337Y-12164513D01*
X13163337Y-12164513D02*
X13161634Y-12162746D01*
X13141565Y-12137984D02*
X13140189Y-12135952D01*
X13144392Y-12141998D02*
X13142966Y-12140000D01*
X13145841Y-12143978D02*
X13144392Y-12141998D01*
X13147316Y-12145940D02*
X13145841Y-12143978D01*
X13148814Y-12147884D02*
X13147316Y-12145940D01*
X13168575Y-12169687D02*
X13166808Y-12167984D01*
X13153449Y-12153604D02*
X13151881Y-12151717D01*
X13203662Y-12196384D02*
X13201565Y-12195109D01*
X13210046Y-12200052D02*
X13207903Y-12198855D01*
X13234504Y-12211437D02*
X13232220Y-12210539D01*
X13185381Y-12184005D02*
X13183437Y-12182507D01*
X13166808Y-12167984D02*
X13165062Y-12166259D01*
X13161634Y-12162746D02*
X13159952Y-12160958D01*
X13181511Y-12180985D02*
X13179604Y-12179440D01*
X13197418Y-12192483D02*
X13195369Y-12191132D01*
X13207903Y-12198855D02*
X13205775Y-12197633D01*
X13189323Y-12186929D02*
X13187343Y-12185480D01*
X13150336Y-12149810D02*
X13148814Y-12147884D01*
X13248426Y-12216226D02*
X13246082Y-12215499D01*
X13151881Y-12151717D02*
X13150336Y-12149810D01*
X13155041Y-12155473D02*
X13153449Y-12153604D01*
X13156656Y-12157321D02*
X13155041Y-12155473D01*
X13227685Y-12208661D02*
X13225435Y-12207680D01*
X13158293Y-12159150D02*
X13156656Y-12157321D01*
X13236799Y-12212306D02*
X13234504Y-12211437D01*
X13159952Y-12160958D02*
X13158293Y-12159150D01*
X13174000Y-12174665D02*
X13172171Y-12173028D01*
X13175848Y-12176280D02*
X13174000Y-12174665D01*
X13187343Y-12185480D02*
X13185381Y-12184005D01*
X13214375Y-12202366D02*
X13212204Y-12201222D01*
X13177717Y-12177872D02*
X13175848Y-12176280D01*
X13183437Y-12182507D02*
X13181511Y-12180985D01*
X13201565Y-12195109D02*
X13199483Y-12193809D01*
X13191321Y-12188355D02*
X13189323Y-12186929D01*
X13223197Y-12206672D02*
X13220972Y-12205636D01*
X13218760Y-12204573D02*
X13216561Y-12203483D01*
X13179604Y-12179440D02*
X13177717Y-12177872D01*
X13216561Y-12203483D02*
X13214375Y-12202366D01*
X13195369Y-12191132D02*
X13193337Y-12189756D01*
X13172171Y-12173028D02*
X13170363Y-12171369D01*
X13212204Y-12201222D02*
X13210046Y-12200052D01*
X13134937Y-12127659D02*
X13133688Y-12125546D01*
X13142966Y-12140000D02*
X13141565Y-12137984D01*
X13205775Y-12197633D02*
X13203662Y-12196384D01*
X13246082Y-12215499D02*
X13243747Y-12214744D01*
X13193337Y-12189756D02*
X13191321Y-12188355D01*
X13199483Y-12193809D02*
X13197418Y-12192483D01*
X13225435Y-12207680D02*
X13223197Y-12206672D01*
X13241421Y-12213960D02*
X13239105Y-12213147D01*
X13229946Y-12209614D02*
X13227685Y-12208661D01*
X13232220Y-12210539D02*
X13229946Y-12209614D01*
X13239105Y-12213147D02*
X13236799Y-12212306D01*
X13243747Y-12214744D02*
X13241421Y-12213960D01*
X13220972Y-12205636D02*
X13218760Y-12204573D01*
X13170363Y-12171369D02*
X13168575Y-12169687D01*
X13265061Y-12220502D02*
X13262663Y-12219978D01*
X13279567Y-12223019D02*
X13277137Y-12222673D01*
X13289323Y-12224101D02*
X13286880Y-12223875D01*
X13304029Y-12224823D02*
X13301575Y-12224778D01*
X13291770Y-12224296D02*
X13289323Y-12224101D01*
X13286880Y-12223875D02*
X13284439Y-12223619D01*
X13257887Y-12218844D02*
X13255510Y-12218233D01*
X13260271Y-12219426D02*
X13257887Y-12218844D01*
X13269875Y-12221459D02*
X13267465Y-12220995D01*
X13274711Y-12222298D02*
X13272291Y-12221894D01*
X13262663Y-12219978D02*
X13260271Y-12219426D01*
X13296669Y-12224597D02*
X13294219Y-12224462D01*
X13250779Y-12216924D02*
X13248426Y-12216226D01*
X13267465Y-12220995D02*
X13265061Y-12220502D01*
X13282001Y-12223334D02*
X13279567Y-12223019D01*
X13299122Y-12224703D02*
X13296669Y-12224597D01*
X13294219Y-12224462D02*
X13291770Y-12224296D01*
X13284439Y-12223619D02*
X13282001Y-12223334D01*
X13306483Y-12224838D02*
X13304029Y-12224823D01*
X13277137Y-12222673D02*
X13274711Y-12222298D01*
X13253140Y-12217593D02*
X13250779Y-12216924D01*
X13255510Y-12218233D02*
X13253140Y-12217593D01*
X13272291Y-12221894D02*
X13269875Y-12221459D01*
X13301575Y-12224778D02*
X13299122Y-12224703D01*
D11*
X13364760Y-12538822D02*
X13364760Y-12338822D01*
X13364760Y-12338822D02*
X13412379Y-12338822D01*
X13412379Y-12338822D02*
X13440950Y-12348346D01*
X13440950Y-12348346D02*
X13459998Y-12367393D01*
X13459998Y-12367393D02*
X13469522Y-12386441D01*
X13469522Y-12386441D02*
X13479045Y-12424536D01*
X13479045Y-12424536D02*
X13479045Y-12453107D01*
X13479045Y-12453107D02*
X13469522Y-12491203D01*
X13469522Y-12491203D02*
X13459998Y-12510250D01*
X13459998Y-12510250D02*
X13440950Y-12529298D01*
X13440950Y-12529298D02*
X13412379Y-12538822D01*
X13412379Y-12538822D02*
X13364760Y-12538822D01*
X13564760Y-12538822D02*
X13564760Y-12405488D01*
X13564760Y-12443584D02*
X13574284Y-12424536D01*
X13574284Y-12424536D02*
X13583807Y-12415012D01*
X13583807Y-12415012D02*
X13602855Y-12405488D01*
X13602855Y-12405488D02*
X13621903Y-12405488D01*
X13688569Y-12538822D02*
X13688569Y-12405488D01*
X13688569Y-12338822D02*
X13679045Y-12348346D01*
X13679045Y-12348346D02*
X13688569Y-12357869D01*
X13688569Y-12357869D02*
X13698093Y-12348346D01*
X13698093Y-12348346D02*
X13688569Y-12338822D01*
X13688569Y-12338822D02*
X13688569Y-12357869D01*
X13812379Y-12538822D02*
X13793331Y-12529298D01*
X13793331Y-12529298D02*
X13783807Y-12510250D01*
X13783807Y-12510250D02*
X13783807Y-12338822D01*
X13917141Y-12538822D02*
X13898093Y-12529298D01*
X13898093Y-12529298D02*
X13888569Y-12510250D01*
X13888569Y-12510250D02*
X13888569Y-12338822D01*
X14145712Y-12538822D02*
X14145712Y-12338822D01*
X14145712Y-12338822D02*
X14212379Y-12481679D01*
X14212379Y-12481679D02*
X14279045Y-12338822D01*
X14279045Y-12338822D02*
X14279045Y-12538822D01*
X14459998Y-12538822D02*
X14459998Y-12434060D01*
X14459998Y-12434060D02*
X14450474Y-12415012D01*
X14450474Y-12415012D02*
X14431426Y-12405488D01*
X14431426Y-12405488D02*
X14393331Y-12405488D01*
X14393331Y-12405488D02*
X14374284Y-12415012D01*
X14459998Y-12529298D02*
X14440950Y-12538822D01*
X14440950Y-12538822D02*
X14393331Y-12538822D01*
X14393331Y-12538822D02*
X14374284Y-12529298D01*
X14374284Y-12529298D02*
X14364760Y-12510250D01*
X14364760Y-12510250D02*
X14364760Y-12491203D01*
X14364760Y-12491203D02*
X14374284Y-12472155D01*
X14374284Y-12472155D02*
X14393331Y-12462631D01*
X14393331Y-12462631D02*
X14440950Y-12462631D01*
X14440950Y-12462631D02*
X14459998Y-12453107D01*
X14555236Y-12405488D02*
X14555236Y-12605488D01*
X14555236Y-12415012D02*
X14574284Y-12405488D01*
X14574284Y-12405488D02*
X14612379Y-12405488D01*
X14612379Y-12405488D02*
X14631426Y-12415012D01*
X14631426Y-12415012D02*
X14640950Y-12424536D01*
X14640950Y-12424536D02*
X14650474Y-12443584D01*
X14650474Y-12443584D02*
X14650474Y-12500726D01*
X14650474Y-12500726D02*
X14640950Y-12519774D01*
X14640950Y-12519774D02*
X14631426Y-12529298D01*
X14631426Y-12529298D02*
X14612379Y-12538822D01*
X14612379Y-12538822D02*
X14574284Y-12538822D01*
X14574284Y-12538822D02*
X14555236Y-12529298D01*
X14736188Y-12519774D02*
X14745712Y-12529298D01*
X14745712Y-12529298D02*
X14736188Y-12538822D01*
X14736188Y-12538822D02*
X14726665Y-12529298D01*
X14726665Y-12529298D02*
X14736188Y-12519774D01*
X14736188Y-12519774D02*
X14736188Y-12538822D01*
X14736188Y-12415012D02*
X14745712Y-12424536D01*
X14745712Y-12424536D02*
X14736188Y-12434060D01*
X14736188Y-12434060D02*
X14726665Y-12424536D01*
X14726665Y-12424536D02*
X14736188Y-12415012D01*
X14736188Y-12415012D02*
X14736188Y-12434060D01*
M02*
