%TF.GenerationSoftware,KiCad,Pcbnew,8.0.2*%
%TF.CreationDate,2024-08-28T15:29:28+05:30*%
%TF.ProjectId,CTF LED matrix,43544620-4c45-4442-906d-61747269782e,rev?*%
%TF.SameCoordinates,Original*%
%TF.FileFunction,Legend,Bot*%
%TF.FilePolarity,Positive*%
%FSLAX46Y46*%
G04 Gerber Fmt 4.6, Leading zero omitted, Abs format (unit mm)*
G04 Created by KiCad (PCBNEW 8.0.2) date 2024-08-28 15:29:28*
%MOMM*%
%LPD*%
G01*
G04 APERTURE LIST*
%ADD10C,0.050000*%
%ADD11C,0.120000*%
%ADD12C,0.127000*%
%ADD13C,0.200000*%
G04 APERTURE END LIST*
D10*
X137616820Y-93769670D02*
X153716820Y-93769690D01*
D11*
X154970630Y-87036980D02*
X154970630Y-87318180D01*
D10*
X137616840Y-81909670D02*
X153716840Y-81909690D01*
D11*
X154297130Y-89621880D02*
X154297130Y-90096480D01*
D10*
X153716840Y-81909690D02*
X153716820Y-93769690D01*
X137616840Y-81909670D02*
X137616820Y-93769670D01*
D11*
X155342130Y-89621880D02*
X155342130Y-90096480D01*
X155990630Y-87036980D02*
X155990630Y-87318180D01*
D12*
X153466830Y-84039690D02*
X153466830Y-91639690D01*
D13*
X138065950Y-81231260D02*
X138091840Y-81234670D01*
X138021130Y-81205380D02*
X138041840Y-81221270D01*
X138005230Y-81184670D02*
X138021130Y-81205380D01*
X137991840Y-81134670D02*
X137995240Y-81160550D01*
X138178440Y-81084670D02*
X138162550Y-81063960D01*
X138021130Y-81063960D02*
X138005230Y-81084670D01*
X138117720Y-81038080D02*
X138091840Y-81034670D01*
D12*
X137866830Y-91639670D02*
X153466830Y-91639690D01*
D13*
X138041840Y-81048070D02*
X138021130Y-81063960D01*
X138065950Y-81038080D02*
X138041840Y-81048070D01*
X138188430Y-81108790D02*
X138178440Y-81084670D01*
X138117720Y-81231260D02*
X138141840Y-81221270D01*
X138021130Y-81205380D02*
X138041840Y-81221270D01*
D12*
X153466830Y-84039690D02*
X153466830Y-91639690D01*
D13*
X138091840Y-81034670D02*
X138065950Y-81038080D01*
X138162550Y-81063960D02*
X138141840Y-81048070D01*
X138021130Y-81063960D02*
X138005230Y-81084670D01*
X138178440Y-81184670D02*
X138188430Y-81160550D01*
X138188430Y-81160550D02*
X138191840Y-81134670D01*
X138178440Y-81184670D02*
X138188430Y-81160550D01*
X138091840Y-81234670D02*
X138117720Y-81231260D01*
X138005230Y-81084670D02*
X137995240Y-81108790D01*
D12*
X137866830Y-84039670D02*
X153466830Y-84039690D01*
D11*
X154904830Y-87034680D02*
X154904830Y-87315880D01*
D12*
X137866830Y-84039670D02*
X137866830Y-91639670D01*
D13*
X137995240Y-81160550D02*
X138005230Y-81184670D01*
X138091840Y-81234670D02*
X138117720Y-81231260D01*
X138188430Y-81108790D02*
X138178440Y-81084670D01*
X138162550Y-81205380D02*
X138178440Y-81184670D01*
X138162550Y-81205380D02*
X138178440Y-81184670D01*
X138141840Y-81221270D02*
X138162550Y-81205380D01*
X138041840Y-81221270D02*
X138065950Y-81231260D01*
X137995240Y-81108790D02*
X137991840Y-81134670D01*
X138141840Y-81048070D02*
X138117720Y-81038080D01*
X138065950Y-81038080D02*
X138041840Y-81048070D01*
X138191840Y-81134670D02*
X138188430Y-81108790D01*
X138065950Y-81231260D02*
X138091840Y-81234670D01*
X138162550Y-81063960D02*
X138141840Y-81048070D01*
X138117720Y-81038080D02*
X138091840Y-81034670D01*
X138005230Y-81184670D02*
X138021130Y-81205380D01*
X138091840Y-81034670D02*
X138065950Y-81038080D01*
D12*
X137866830Y-84039670D02*
X137866830Y-91639670D01*
D13*
X138041840Y-81221270D02*
X138065950Y-81231260D01*
X138041840Y-81048070D02*
X138021130Y-81063960D01*
X137995240Y-81160550D02*
X138005230Y-81184670D01*
X138005230Y-81084670D02*
X137995240Y-81108790D01*
X137995240Y-81108790D02*
X137991840Y-81134670D01*
X138178440Y-81084670D02*
X138162550Y-81063960D01*
X138191840Y-81134670D02*
X138188430Y-81108790D01*
X138188430Y-81160550D02*
X138191840Y-81134670D01*
X138117720Y-81231260D02*
X138141840Y-81221270D01*
D11*
X153884830Y-87034680D02*
X153884830Y-87315880D01*
D13*
X138141840Y-81221270D02*
X138162550Y-81205380D01*
X138141840Y-81048070D02*
X138117720Y-81038080D01*
X137991840Y-81134670D02*
X137995240Y-81160550D01*
M02*
