%TF.GenerationSoftware,KiCad,Pcbnew,8.0.2*%
%TF.CreationDate,2024-08-28T15:29:28+05:30*%
%TF.ProjectId,CTF LED matrix,43544620-4c45-4442-906d-61747269782e,rev?*%
%TF.SameCoordinates,Original*%
%TF.FileFunction,Glue,Top*%
%TF.FilePolarity,Positive*%
%FSLAX46Y46*%
G04 Gerber Fmt 4.6, Leading zero omitted, Abs format (unit mm)*
G04 Created by KiCad (PCBNEW 8.0.2) date 2024-08-28 15:29:28*
%MOMM*%
%LPD*%
G01*
G04 APERTURE LIST*
%ADD10C,0.150000*%
G04 APERTURE END LIST*
D10*
X149165350Y-78669819D02*
X149165350Y-78146009D01*
X149165350Y-78146009D02*
X149117731Y-78050771D01*
X149117731Y-78050771D02*
X149022493Y-78003152D01*
X149022493Y-78003152D02*
X148832017Y-78003152D01*
X148832017Y-78003152D02*
X148736779Y-78050771D01*
X149165350Y-78622200D02*
X149070112Y-78669819D01*
X149070112Y-78669819D02*
X148832017Y-78669819D01*
X148832017Y-78669819D02*
X148736779Y-78622200D01*
X148736779Y-78622200D02*
X148689160Y-78526961D01*
X148689160Y-78526961D02*
X148689160Y-78431723D01*
X148689160Y-78431723D02*
X148736779Y-78336485D01*
X148736779Y-78336485D02*
X148832017Y-78288866D01*
X148832017Y-78288866D02*
X149070112Y-78288866D01*
X149070112Y-78288866D02*
X149165350Y-78241247D01*
X149641541Y-78669819D02*
X149641541Y-77669819D01*
X149641541Y-77669819D02*
X149879636Y-77669819D01*
X149879636Y-77669819D02*
X150022493Y-77717438D01*
X150022493Y-77717438D02*
X150117731Y-77812676D01*
X150117731Y-77812676D02*
X150165350Y-77907914D01*
X150165350Y-77907914D02*
X150212969Y-78098390D01*
X150212969Y-78098390D02*
X150212969Y-78241247D01*
X150212969Y-78241247D02*
X150165350Y-78431723D01*
X150165350Y-78431723D02*
X150117731Y-78526961D01*
X150117731Y-78526961D02*
X150022493Y-78622200D01*
X150022493Y-78622200D02*
X149879636Y-78669819D01*
X149879636Y-78669819D02*
X149641541Y-78669819D01*
X151212969Y-78669819D02*
X150879636Y-78193628D01*
X150641541Y-78669819D02*
X150641541Y-77669819D01*
X150641541Y-77669819D02*
X151022493Y-77669819D01*
X151022493Y-77669819D02*
X151117731Y-77717438D01*
X151117731Y-77717438D02*
X151165350Y-77765057D01*
X151165350Y-77765057D02*
X151212969Y-77860295D01*
X151212969Y-77860295D02*
X151212969Y-78003152D01*
X151212969Y-78003152D02*
X151165350Y-78098390D01*
X151165350Y-78098390D02*
X151117731Y-78146009D01*
X151117731Y-78146009D02*
X151022493Y-78193628D01*
X151022493Y-78193628D02*
X150641541Y-78193628D01*
X151546303Y-78003152D02*
X151784398Y-78669819D01*
X152022493Y-78003152D02*
X151784398Y-78669819D01*
X151784398Y-78669819D02*
X151689160Y-78907914D01*
X151689160Y-78907914D02*
X151641541Y-78955533D01*
X151641541Y-78955533D02*
X151546303Y-79003152D01*
X152308208Y-77669819D02*
X152974874Y-77669819D01*
X152974874Y-77669819D02*
X152308208Y-78669819D01*
X152308208Y-78669819D02*
X152974874Y-78669819D01*
X153355827Y-78669819D02*
X153355827Y-77669819D01*
X153355827Y-78146009D02*
X153927255Y-78146009D01*
X153927255Y-78669819D02*
X153927255Y-77669819D01*
X154832017Y-78622200D02*
X154736779Y-78669819D01*
X154736779Y-78669819D02*
X154546303Y-78669819D01*
X154546303Y-78669819D02*
X154451065Y-78622200D01*
X154451065Y-78622200D02*
X154403446Y-78574580D01*
X154403446Y-78574580D02*
X154355827Y-78479342D01*
X154355827Y-78479342D02*
X154355827Y-78193628D01*
X154355827Y-78193628D02*
X154403446Y-78098390D01*
X154403446Y-78098390D02*
X154451065Y-78050771D01*
X154451065Y-78050771D02*
X154546303Y-78003152D01*
X154546303Y-78003152D02*
X154736779Y-78003152D01*
X154736779Y-78003152D02*
X154832017Y-78050771D01*
X155451065Y-77669819D02*
X155546303Y-77669819D01*
X155546303Y-77669819D02*
X155641541Y-77717438D01*
X155641541Y-77717438D02*
X155689160Y-77765057D01*
X155689160Y-77765057D02*
X155736779Y-77860295D01*
X155736779Y-77860295D02*
X155784398Y-78050771D01*
X155784398Y-78050771D02*
X155784398Y-78288866D01*
X155784398Y-78288866D02*
X155736779Y-78479342D01*
X155736779Y-78479342D02*
X155689160Y-78574580D01*
X155689160Y-78574580D02*
X155641541Y-78622200D01*
X155641541Y-78622200D02*
X155546303Y-78669819D01*
X155546303Y-78669819D02*
X155451065Y-78669819D01*
X155451065Y-78669819D02*
X155355827Y-78622200D01*
X155355827Y-78622200D02*
X155308208Y-78574580D01*
X155308208Y-78574580D02*
X155260589Y-78479342D01*
X155260589Y-78479342D02*
X155212970Y-78288866D01*
X155212970Y-78288866D02*
X155212970Y-78050771D01*
X155212970Y-78050771D02*
X155260589Y-77860295D01*
X155260589Y-77860295D02*
X155308208Y-77765057D01*
X155308208Y-77765057D02*
X155355827Y-77717438D01*
X155355827Y-77717438D02*
X155451065Y-77669819D01*
X156641541Y-78622200D02*
X156546303Y-78669819D01*
X156546303Y-78669819D02*
X156355827Y-78669819D01*
X156355827Y-78669819D02*
X156260589Y-78622200D01*
X156260589Y-78622200D02*
X156212970Y-78574580D01*
X156212970Y-78574580D02*
X156165351Y-78479342D01*
X156165351Y-78479342D02*
X156165351Y-78193628D01*
X156165351Y-78193628D02*
X156212970Y-78098390D01*
X156212970Y-78098390D02*
X156260589Y-78050771D01*
X156260589Y-78050771D02*
X156355827Y-78003152D01*
X156355827Y-78003152D02*
X156546303Y-78003152D01*
X156546303Y-78003152D02*
X156641541Y-78050771D01*
X157070113Y-78003152D02*
X157070113Y-78860295D01*
X157070113Y-78860295D02*
X157022494Y-78955533D01*
X157022494Y-78955533D02*
X156927256Y-79003152D01*
X156927256Y-79003152D02*
X156879637Y-79003152D01*
X157070113Y-77669819D02*
X157022494Y-77717438D01*
X157022494Y-77717438D02*
X157070113Y-77765057D01*
X157070113Y-77765057D02*
X157117732Y-77717438D01*
X157117732Y-77717438D02*
X157070113Y-77669819D01*
X157070113Y-77669819D02*
X157070113Y-77765057D01*
X157546303Y-78669819D02*
X157546303Y-77669819D01*
X157546303Y-77669819D02*
X158117731Y-78669819D01*
X158117731Y-78669819D02*
X158117731Y-77669819D01*
X158451065Y-78003152D02*
X158832017Y-78003152D01*
X158593922Y-78669819D02*
X158593922Y-77812676D01*
X158593922Y-77812676D02*
X158641541Y-77717438D01*
X158641541Y-77717438D02*
X158736779Y-77669819D01*
X158736779Y-77669819D02*
X158832017Y-77669819D01*
M02*
